<svg width="32" height="32" viewBox="0 0 32 32" fill="none" xmlns="http://www.w3.org/2000/svg">
<path d="M4 6.76945C4 5.25236 5.25236 4 6.76945 4H25.2305C26.7476 4 28 5.25236 28 6.76945V15.1622C27.9954 15.8951 27.7021 16.5968 27.1837 17.1149C26.6653 17.6331 25.9635 17.926 25.2305 17.9302H6.76945C6.03624 17.926 5.33426 17.6329 4.8158 17.1144C4.29733 16.5959 4.0042 15.8939 4 15.1607V6.76945ZM21.6218 15.7484V13.4822C21.6174 13.3277 21.5541 13.1808 21.4448 13.0715C21.3356 12.9623 21.1886 12.8989 21.0342 12.8945H10.9658C10.8116 12.8993 10.665 12.9628 10.5561 13.072C10.4471 13.1812 10.384 13.328 10.3796 13.4822V15.7484H21.6218ZM10.9644 19.9418C11.2537 19.9418 11.5312 20.0568 11.7358 20.2613C11.9403 20.4659 12.0553 20.7434 12.0553 21.0327C12.0553 21.9418 12.0349 23.2 11.6116 24.24C11.3849 24.8331 10.992 25.3482 10.48 25.7236C9.91564 26.1265 9.22909 26.32 8.448 26.32C8.15867 26.32 7.8812 26.2051 7.67661 26.0005C7.47203 25.7959 7.35709 25.5184 7.35709 25.2291C7.35709 24.9398 7.47203 24.6623 7.67661 24.4577C7.8812 24.2531 8.15867 24.1382 8.448 24.1382C8.85964 24.1382 9.08364 24.0407 9.21455 23.9476C9.35127 23.8502 9.48073 23.6902 9.58982 23.4196C9.82982 22.8291 9.87346 21.9884 9.87346 21.0342C9.87346 20.7449 9.98839 20.4674 10.193 20.2628C10.3976 20.0582 10.675 19.9433 10.9644 19.9433M16 19.9433C16.2893 19.9433 16.5668 20.0582 16.7714 20.2628C16.976 20.4674 17.0909 20.7449 17.0909 21.0342V26.9091C17.0909 27.1984 16.976 27.4759 16.7714 27.6805C16.5668 27.8851 16.2893 28 16 28C15.7107 28 15.4332 27.8851 15.2286 27.6805C15.024 27.4759 14.9091 27.1984 14.9091 26.9091V21.0342C14.9091 20.7449 15.024 20.4674 15.2286 20.2628C15.4332 20.0582 15.7107 19.9433 16 19.9433ZM21.0342 19.9433C21.3235 19.9433 21.601 20.0582 21.8056 20.2628C22.0102 20.4674 22.1251 20.7449 22.1251 21.0342C22.1251 21.9898 22.1687 22.8305 22.4102 23.4211C22.5193 23.6916 22.6487 23.8516 22.7855 23.9491C22.9164 24.0422 23.1404 24.1396 23.552 24.1396C23.8413 24.1396 24.1188 24.2546 24.3234 24.4592C24.528 24.6637 24.6429 24.9412 24.6429 25.2305C24.6429 25.5199 24.528 25.7973 24.3234 26.0019C24.1188 26.2065 23.8413 26.3215 23.552 26.3215C22.7709 26.3215 22.0829 26.128 21.52 25.7251C21.008 25.3496 20.6151 24.8345 20.3884 24.2415C19.9665 23.2015 19.9433 21.9433 19.9433 21.0342C19.9433 20.7449 20.0582 20.4674 20.2628 20.2628C20.4674 20.0582 20.7449 19.9433 21.0342 19.9433Z" fill="#121212"/>
</svg>
