<svg width="32" height="32" viewBox="0 0 32 32" fill="none" xmlns="http://www.w3.org/2000/svg">
<path d="M7.79357 27.3493L23.5558 11.587V22.9839C23.5558 24.2112 24.5506 25.206 25.7779 25.206C27.0053 25.206 28 24.2112 28 22.9839V6.22208L27.9887 5.99394C27.8745 4.87376 26.9282 4 25.7779 4L9.01612 4L8.78798 4.01125C7.6678 4.12548 6.79404 5.07175 6.79404 6.22208C6.79404 7.37241 7.6678 8.31869 8.78798 8.43291L9.01612 8.44417L20.413 8.44417L4.65073 24.2064C3.7832 25.0743 3.78298 26.4815 4.65073 27.3493C5.51849 28.217 6.92567 28.2168 7.79357 27.3493Z" fill="#121212"/>
</svg>
