<svg width="32" height="32" viewBox="0 0 32 32" fill="none" xmlns="http://www.w3.org/2000/svg">
<path d="M5.5426 22.3812C5.18087 22.0194 5 21.559 5 21C5 20.441 5.18087 19.9806 5.5426 19.6188L14.6188 10.5426C14.8161 10.3453 15.0299 10.2059 15.2601 10.1243C15.4903 10.0427 15.7369 10.0013 16 10C16.2631 10 16.5183 10.0493 16.7656 10.148C17.0129 10.2466 17.2181 10.3782 17.3812 10.5426L26.4574 19.6188C26.8191 19.9806 27 20.441 27 21C27 21.559 26.8191 22.0194 26.4574 22.3812C26.0957 22.7429 25.6353 22.9238 25.0762 22.9238C24.5172 22.9238 24.0568 22.7429 23.6951 22.3812L16 14.6861L8.30493 22.3812C7.9432 22.7429 7.48281 22.9238 6.92377 22.9238C6.36472 22.9238 5.90433 22.7429 5.5426 22.3812Z" fill="#121212"/>
</svg>
