<svg width="32" height="32" viewBox="0 0 32 32" fill="none" xmlns="http://www.w3.org/2000/svg">
<path fill-rule="evenodd" clip-rule="evenodd" d="M11.5223 9.77458V8.55696C11.5223 7.34838 11.9942 6.1893 12.8341 5.3347C13.674 4.48011 14.8131 4 16.001 4C17.1888 4 18.3279 4.48011 19.1678 5.3347C20.0077 6.1893 20.4796 7.34838 20.4796 8.55696V9.77458C23.6851 9.78916 25.3882 9.9204 26.3436 11.1064C27.4185 12.4407 27.0232 14.4579 26.2301 18.4936L25.5136 22.1391C24.9618 24.945 24.6859 26.3473 23.6946 27.1737C22.7046 28 21.2989 28 18.4875 28H13.5144C10.7018 28 9.29615 28 8.30488 27.1737C7.3148 26.3473 7.03892 24.945 6.48715 22.1391L5.77057 18.4936C4.97756 14.4591 4.58105 12.4419 5.65592 11.1064C6.61136 9.9204 8.31563 9.78916 11.5211 9.77458M13.3138 8.55696C13.3138 7.83181 13.5969 7.13636 14.1008 6.62361C14.6048 6.11085 15.2883 5.82278 16.001 5.82278C16.7136 5.82278 17.3971 6.11085 17.9011 6.62361C18.405 7.13636 18.6881 7.83181 18.6881 8.55696V9.77215H13.3138V8.55696ZM19.5839 14.6329C19.9006 14.6329 20.2044 14.5049 20.4284 14.277C20.6523 14.0491 20.7782 13.74 20.7782 13.4177C20.7782 13.0954 20.6523 12.7863 20.4284 12.5585C20.2044 12.3306 19.9006 12.2025 19.5839 12.2025C19.2671 12.2025 18.9633 12.3306 18.7394 12.5585C18.5154 12.7863 18.3896 13.0954 18.3896 13.4177C18.3896 13.74 18.5154 14.0491 18.7394 14.277C18.9633 14.5049 19.2671 14.6329 19.5839 14.6329ZM13.6124 13.4177C13.6124 13.74 13.4865 14.0491 13.2625 14.277C13.0386 14.5049 12.7348 14.6329 12.4181 14.6329C12.1013 14.6329 11.7975 14.5049 11.5736 14.277C11.3496 14.0491 11.2238 13.74 11.2238 13.4177C11.2238 13.0954 11.3496 12.7863 11.5736 12.5585C11.7975 12.3306 12.1013 12.2025 12.4181 12.2025C12.7348 12.2025 13.0386 12.3306 13.2625 12.5585C13.4865 12.7863 13.6124 13.0954 13.6124 13.4177Z" fill="#121212"/>
</svg>
