<svg width="32" height="32" viewBox="0 0 32 32" fill="none" xmlns="http://www.w3.org/2000/svg">
<path fill-rule="evenodd" clip-rule="evenodd" d="M16 4C22.6277 4 28 9.37231 28 16C28 22.6277 22.6277 28 16 28C9.37231 28 4 22.6277 4 16C4 9.37231 9.37231 4 16 4ZM16.7108 9.04923L18.1877 15.2892C18.2246 15.4369 18.2892 15.5569 18.4092 15.6585L23.1446 19.9785C23.4031 20.2092 23.4585 20.5785 23.2923 20.8738C23.1169 21.1785 22.7754 21.3169 22.4431 21.2154L16.2123 19.3508C16.0646 19.3138 15.9354 19.3138 15.7877 19.3508L9.55692 21.2154C9.22462 21.3169 8.88308 21.1785 8.70769 20.8738C8.54154 20.5785 8.59692 20.2092 8.85538 19.9785L13.5908 15.6585C13.7108 15.5569 13.7754 15.4369 13.8123 15.2892L15.2892 9.04923C15.3631 8.71692 15.6585 8.47692 16 8.47692C16.3415 8.47692 16.6369 8.70769 16.7108 9.04923Z" fill="#121212"/>
</svg>
