<svg width="32" height="32" viewBox="0 0 32 32" fill="none" xmlns="http://www.w3.org/2000/svg">
<path d="M26.6667 21.4737C27.403 21.4737 28 22.0392 28 22.7368C28 23.4345 27.403 24 26.6667 24H5.33333C4.59695 24 4 23.4345 4 22.7368C4 22.0392 4.59695 21.4737 5.33333 21.4737H26.6667ZM26.6667 14.7368C27.403 14.7368 28 15.3024 28 16C28 16.6976 27.403 17.2632 26.6667 17.2632H5.33333C4.59695 17.2632 4 16.6976 4 16C4 15.3024 4.59695 14.7368 5.33333 14.7368H26.6667ZM26.6667 8C27.403 8 28 8.56554 28 9.26316C28 9.96078 27.403 10.5263 26.6667 10.5263H5.33333C4.59695 10.5263 4 9.96078 4 9.26316C4 8.56554 4.59695 8 5.33333 8H26.6667Z" fill="#121212"/>
</svg>
