<svg width="32" height="32" viewBox="0 0 32 32" fill="none" xmlns="http://www.w3.org/2000/svg">
<path d="M16 17.68L19.48 21.16C19.7 21.38 19.98 21.49 20.32 21.49C20.66 21.49 20.94 21.38 21.16 21.16C21.38 20.94 21.49 20.66 21.49 20.32C21.49 19.98 21.38 19.7 21.16 19.48L17.68 16L21.16 12.52C21.38 12.3 21.49 12.02 21.49 11.68C21.49 11.34 21.38 11.06 21.16 10.84C20.94 10.62 20.66 10.51 20.32 10.51C19.98 10.51 19.7 10.62 19.48 10.84L16 14.32L12.52 10.84C12.3 10.62 12.02 10.51 11.68 10.51C11.34 10.51 11.06 10.62 10.84 10.84C10.62 11.06 10.51 11.34 10.51 11.68C10.51 12.02 10.62 12.3 10.84 12.52L14.32 16L10.84 19.48C10.62 19.7 10.51 19.98 10.51 20.32C10.51 20.66 10.62 20.94 10.84 21.16C11.06 21.38 11.34 21.49 11.68 21.49C12.02 21.49 12.3 21.38 12.52 21.16L16 17.68ZM16 28C14.34 28 12.78 27.6848 11.32 27.0544C9.86 26.424 8.59 25.5692 7.51 24.49C6.43 23.4108 5.5752 22.1408 4.9456 20.68C4.316 19.2192 4.0008 17.6592 4 16C3.9992 14.3408 4.3144 12.7808 4.9456 11.32C5.5768 9.8592 6.4316 8.5892 7.51 7.51C8.5884 6.4308 9.8584 5.576 11.32 4.9456C12.7816 4.3152 14.3416 4 16 4C17.6584 4 19.2184 4.3152 20.68 4.9456C22.1416 5.576 23.4116 6.4308 24.49 7.51C25.5684 8.5892 26.4236 9.8592 27.0556 11.32C27.6876 12.7808 28.0024 14.3408 28 16C27.9976 17.6592 27.6824 19.2192 27.0544 20.68C26.4264 22.1408 25.5716 23.4108 24.49 24.49C23.4084 25.5692 22.1384 26.4244 20.68 27.0556C19.2216 27.6868 17.6616 28.0016 16 28Z" fill="#121212"/>
</svg>
