<svg width="32" height="32" viewBox="0 0 32 32" fill="none" xmlns="http://www.w3.org/2000/svg">
<path d="M22.036 8.8C23.332 8.8 24.4 9.856 24.4 11.2V24.4C24.4 25.756 23.332 26.8 22.036 26.8C22.036 27.496 21.472 28 20.8 28C20.2 28 19.6 27.496 19.6 26.8H12.4C12.4 27.496 11.8 28 11.2 28C10.528 28 9.964 27.496 9.964 26.8C8.668 26.8 7.6 25.756 7.6 24.4V11.2C7.6 9.856 8.668 8.8 9.964 8.8H12.4V5.2C12.4 4.504 12.952 4 13.6 4H18.4C19.048 4 19.6 4.504 19.6 5.2V8.8H22.036ZM17.8 8.8V5.8H14.2V8.8H17.8ZM11.2 12.4V23.2H13V12.4H11.2ZM19 12.4V23.2H20.8V12.4H19ZM15.1 12.4V23.2H16.9V12.4H15.1Z" fill="#121212"/>
</svg>
