<svg width="32" height="32" viewBox="0 0 32 32" fill="none" xmlns="http://www.w3.org/2000/svg">
<path d="M7.6 13.0971C7.6 10.9496 8.485 8.89011 10.0603 7.3716C11.6356 5.85309 13.7722 5 16 5C18.2278 5 20.3644 5.85309 21.9397 7.3716C23.515 8.89011 24.4 10.9496 24.4 13.0971V14.2944C26.4352 14.5754 28 16.2631 28 18.3024V18.5916C28 20.6448 26.1628 22.4447 24.0016 22.3487C23.1136 24.801 20.8552 26.454 18.418 26.8727C17.854 27.0717 17.1868 26.978 16.6 26.978C16.1226 26.978 15.6648 26.7952 15.3272 26.4698C14.9896 26.1444 14.8 25.703 14.8 25.2429C14.8 24.7827 14.9896 24.3413 15.3272 24.016C15.6648 23.6906 16.1226 23.5078 16.6 23.5078C17.5516 23.5078 18.6052 23.3747 19.2484 24.2122C20.8036 23.4985 22 21.9913 22 20.0375V13.0971C22 11.5632 21.3679 10.0921 20.2426 9.00747C19.1174 7.92282 17.5913 7.31347 16 7.31347C14.4087 7.31347 12.8826 7.92282 11.7574 9.00747C10.6321 10.0921 10 11.5632 10 13.0971V20.3267C10 20.8636 9.77875 21.3785 9.38492 21.7581C8.9911 22.1377 8.45695 22.351 7.9 22.351C6.86566 22.351 5.87368 21.9549 5.14228 21.2499C4.41089 20.5449 4 19.5887 4 18.5916V18.3024C3.99974 17.3287 4.36355 16.3875 5.02475 15.6514C5.68594 14.9152 6.60022 14.4335 7.6 14.2944V13.0971Z" fill="#121212"/>
</svg>
