<svg width="32" height="32" viewBox="0 0 32 32" fill="none" xmlns="http://www.w3.org/2000/svg">
<path d="M14.7625 5.99075V10.7661C14.7625 11.1615 14.6844 11.553 14.5326 11.9182C14.3808 12.2833 14.1584 12.6149 13.8781 12.8939C13.5978 13.173 13.2651 13.3939 12.8992 13.5441C12.5332 13.6943 12.1412 13.7708 11.7456 13.7692H6.99236C6.59782 13.7716 6.20686 13.6943 5.84292 13.542C5.47897 13.3898 5.14954 13.1656 4.87436 12.883C4.59497 12.6061 4.37372 12.2762 4.22359 11.9127C4.07346 11.5492 3.99746 11.1594 4.00006 10.7661V6.00306C4.00006 5.20872 4.31492 4.44674 4.87574 3.88391C5.43655 3.32108 6.19762 3.00326 6.99236 3H11.7579C12.152 3.00038 12.5421 3.07889 12.9057 3.231C13.2692 3.38311 13.599 3.60579 13.8759 3.88615C14.156 4.16059 14.3787 4.48802 14.5309 4.84935C14.6831 5.21069 14.7618 5.59869 14.7625 5.99075ZM28 6.00306V10.7661C27.9936 11.5585 27.6767 12.3167 27.1173 12.8782C26.5578 13.4396 25.8004 13.7595 25.0077 13.7692H20.2299C19.4334 13.7643 18.6698 13.4511 18.0996 12.8953C17.8209 12.6153 17.6003 12.2831 17.4502 11.9177C17.3002 11.5524 17.2238 11.161 17.2253 10.7661V6.00306C17.2243 5.60893 17.3022 5.21859 17.4545 4.85503C17.6067 4.49147 17.8303 4.16204 18.1119 3.88615C18.3887 3.60579 18.7185 3.38311 19.0821 3.231C19.4456 3.07889 19.8358 3.00038 20.2299 3H24.9954C25.7903 3.00643 26.5508 3.32489 27.1129 3.88669C27.6749 4.44848 27.9936 5.20859 28 6.00306ZM28 19.2337V23.9968C27.9936 24.7891 27.6767 25.5474 27.1173 26.1089C26.5578 26.6703 25.8004 26.9902 25.0077 26.9998H20.2299C19.4283 27.008 18.6552 26.7033 18.0749 26.1506C17.7952 25.8714 17.5738 25.5394 17.4237 25.1738C17.2736 24.8083 17.1978 24.4165 17.2006 24.0214V19.2584C17.1997 18.8642 17.2776 18.4739 17.4298 18.1103C17.5821 17.7468 17.8056 17.4173 18.0872 17.1414C18.3641 16.8611 18.6939 16.6384 19.0574 16.4863C19.421 16.3342 19.8111 16.2557 20.2053 16.2553H24.9708C25.7656 16.2617 26.5261 16.5802 27.0882 17.142C27.6503 17.7038 27.9689 18.4639 27.9754 19.2584L28 19.2337ZM14.7625 19.246V24.0091C14.7528 24.8035 14.4311 25.5623 13.8667 26.1218C13.3023 26.6813 12.5405 26.9967 11.7456 26.9998H6.99236C6.59895 27.0015 6.20911 26.9252 5.84533 26.7755C5.48156 26.6258 5.15104 26.4055 4.87286 26.1275C4.59467 25.8495 4.37432 25.5191 4.22452 25.1555C4.07472 24.7919 3.99844 24.4023 4.00006 24.0091V19.246C4.00324 18.4515 4.31874 17.6901 4.87852 17.126C5.43831 16.5619 6.1975 16.2404 6.99236 16.2307H11.7579C12.5561 16.2388 13.3199 16.5566 13.8882 17.1168C14.4498 17.6831 14.7642 18.4487 14.7625 19.246Z" fill="#121212"/>
</svg>
