<svg width="32" height="32" viewBox="0 0 32 32" fill="none" xmlns="http://www.w3.org/2000/svg">
<path d="M24.5556 6.4H23.3333V5.2C23.3333 4.54 22.7833 4 22.1111 4C21.4389 4 20.8889 4.54 20.8889 5.2V6.4H11.1111V5.2C11.1111 4.54 10.5611 4 9.88889 4C9.21667 4 8.66667 4.54 8.66667 5.2V6.4H7.44444C6.08778 6.4 5.01222 7.48 5.01222 8.8L5 25.6C5 26.2365 5.25754 26.847 5.71596 27.2971C6.17438 27.7471 6.79614 28 7.44444 28H24.5556C25.9 28 27 26.92 27 25.6V8.8C27 7.48 25.9 6.4 24.5556 6.4ZM24.5556 24.4C24.5556 25.06 24.0056 25.6 23.3333 25.6H8.66667C7.99444 25.6 7.44444 25.06 7.44444 24.4V12.4H24.5556V24.4ZM9.88889 14.8H12.3333V17.2H9.88889V14.8ZM14.7778 14.8H17.2222V17.2H14.7778V14.8ZM19.6667 14.8H22.1111V17.2H19.6667V14.8Z" fill="#121212"/>
</svg>
