<svg width="32" height="32" viewBox="0 0 32 32" fill="none" xmlns="http://www.w3.org/2000/svg">
<path fill-rule="evenodd" clip-rule="evenodd" d="M11.2407 4.6636C11.3421 4.4643 11.498 4.29667 11.691 4.17946C11.884 4.06226 12.1064 4.00012 12.3333 4H19.6667C19.8936 4.00012 20.116 4.06226 20.309 4.17946C20.502 4.29667 20.6579 4.4643 20.7593 4.6636L22.8664 8.8H25.7778C26.1019 8.8 26.4128 8.92643 26.642 9.15147C26.8712 9.37652 27 9.68174 27 10C27 10.3183 26.8712 10.6235 26.642 10.8485C26.4128 11.0736 26.1019 11.2 25.7778 11.2H24.5556V24.4C24.5556 25.3548 24.1692 26.2705 23.4816 26.9456C22.794 27.6207 21.8613 28 20.8889 28H11.1111C10.1387 28 9.20602 27.6207 8.51839 26.9456C7.83075 26.2705 7.44444 25.3548 7.44444 24.4V11.2H6.22222C5.89807 11.2 5.58719 11.0736 5.35798 10.8485C5.12877 10.6235 5 10.3183 5 10C5 9.68174 5.12877 9.37652 5.35798 9.15147C5.58719 8.92643 5.89807 8.8 6.22222 8.8H9.13356L11.2407 4.6636ZM18.9113 6.4L20.1336 8.8H11.8664L13.0887 6.4H18.9113ZM14.7778 14.8C14.7778 14.4817 14.649 14.1765 14.4198 13.9515C14.1906 13.7264 13.8797 13.6 13.5556 13.6C13.2314 13.6 12.9205 13.7264 12.6913 13.9515C12.4621 14.1765 12.3333 14.4817 12.3333 14.8V22C12.3333 22.3183 12.4621 22.6235 12.6913 22.8485C12.9205 23.0736 13.2314 23.2 13.5556 23.2C13.8797 23.2 14.1906 23.0736 14.4198 22.8485C14.649 22.6235 14.7778 22.3183 14.7778 22V14.8ZM19.6667 14.8C19.6667 14.4817 19.5379 14.1765 19.3087 13.9515C19.0795 13.7264 18.7686 13.6 18.4444 13.6C18.1203 13.6 17.8094 13.7264 17.5802 13.9515C17.351 14.1765 17.2222 14.4817 17.2222 14.8V22C17.2222 22.3183 17.351 22.6235 17.5802 22.8485C17.8094 23.0736 18.1203 23.2 18.4444 23.2C18.7686 23.2 19.0795 23.0736 19.3087 22.8485C19.5379 22.6235 19.6667 22.3183 19.6667 22V14.8Z" fill="#121212"/>
</svg>
