<svg width="32" height="32" viewBox="0 0 32 32" fill="none" xmlns="http://www.w3.org/2000/svg">
<path d="M18.3125 13.4075L16.5312 11.6378L12 16.1087C11.875 16.2329 11.7812 16.3728 11.7187 16.5284C11.6562 16.6841 11.625 16.8443 11.625 17.0091V17.6611C11.625 17.8266 11.6875 17.9715 11.8125 18.0957C11.9375 18.2199 12.0833 18.282 12.25 18.282H12.9062C13.0729 18.282 13.2346 18.251 13.3912 18.1889C13.5479 18.1268 13.6883 18.0336 13.8125 17.9094L18.3125 13.4075ZM19.2187 12.5071L20.0937 11.6378C20.1979 11.5343 20.25 11.4258 20.25 11.3124C20.25 11.199 20.1979 11.0901 20.0937 10.9858L18.9687 9.86805C18.8646 9.76455 18.7554 9.71281 18.6412 9.71281C18.5271 9.71281 18.4175 9.76455 18.3125 9.86805L17.4375 10.7374L19.2187 12.5071ZM16 28C15.7083 28 15.4167 27.9483 15.125 27.8448C14.8333 27.7413 14.5729 27.586 14.3437 27.379C12.9896 26.1371 11.7917 24.9263 10.75 23.7464C9.70833 22.5666 8.83875 21.4232 8.14125 20.3163C7.44375 19.2093 6.9125 18.1433 6.5475 17.1183C6.1825 16.0933 6 15.1151 6 14.1837C6 11.0789 7.00542 8.60543 9.01625 6.76326C11.0271 4.92109 13.355 4 16 4C18.645 4 20.9733 4.92109 22.985 6.76326C24.9967 8.60543 26.0017 11.0789 26 14.1837C26 15.1151 25.8179 16.0933 25.4537 17.1183C25.0896 18.1433 24.5583 19.2093 23.86 20.3163C23.1617 21.4232 22.2917 22.5666 21.25 23.7464C20.2083 24.9263 19.0104 26.1371 17.6562 27.379C17.4271 27.586 17.1667 27.7413 16.875 27.8448C16.5833 27.9483 16.2917 28 16 28Z" fill="#121212"/>
</svg>
