<svg width="32" height="32" viewBox="0 0 32 32" fill="none" xmlns="http://www.w3.org/2000/svg">
<path d="M14.8303 4C13.2346 4 11.7042 4.63242 10.5758 5.75813C9.4474 6.88385 8.81349 8.41064 8.81349 10.0026C8.81349 11.5946 9.4474 13.1214 10.5758 14.2472C11.7042 15.3729 13.2346 16.0053 14.8303 16.0053C16.4261 16.0053 17.9565 15.3729 19.0849 14.2472C20.2133 13.1214 20.8472 11.5946 20.8472 10.0026C20.8472 8.41064 20.2133 6.88385 19.0849 5.75813C17.9565 4.63242 16.4261 4 14.8303 4ZM14.8303 17.2058C15.5419 17.2074 16.2335 17.2554 16.905 17.3499C17.1308 17.3814 17.343 17.4762 17.5168 17.6233C17.6907 17.7705 17.8191 17.9639 17.8871 18.181C17.955 18.3981 17.9598 18.63 17.9007 18.8497C17.8417 19.0695 17.7213 19.2679 17.5536 19.422C16.5632 20.3271 15.8048 21.456 15.3421 22.7139C14.8793 23.9719 14.7257 25.3222 14.8941 26.6516C14.9154 26.8224 14.8996 26.9958 14.8478 27.16C14.796 27.3241 14.7094 27.4753 14.5939 27.6032C14.4784 27.731 14.3366 27.8326 14.1783 27.901C14.02 27.9695 13.8488 28.0031 13.6763 27.9998C11.2575 27.9517 8.9952 27.7405 7.30566 27.2242C6.4609 26.9661 5.66426 26.6036 5.06017 26.0693C4.42118 25.5051 4 24.7451 4 23.8087C4 22.8639 4.43081 21.9803 5.01565 21.2408C5.61011 20.4905 6.43201 19.8002 7.39591 19.2119C9.32492 18.0402 11.9483 17.2058 14.8303 17.2058ZM27.1192 18.4472C27.6832 19.01 28 19.7733 28 20.5691C28 21.3649 27.6832 22.1282 27.1192 22.691L23.0061 26.7944C22.73 27.0697 22.372 27.2483 21.9856 27.3035L19.207 27.6996C19.0218 27.7262 18.833 27.7093 18.6555 27.6503C18.478 27.5913 18.3167 27.4919 18.1845 27.3599C18.0522 27.2278 17.9527 27.0668 17.8937 26.8897C17.8348 26.7126 17.818 26.5242 17.8448 26.3394L18.2419 23.5686C18.2969 23.1827 18.476 22.8251 18.7521 22.5494L22.8653 18.446C23.4294 17.8833 24.1945 17.5672 24.9922 17.5672C25.7899 17.5672 26.555 17.8833 27.1192 18.446V18.4472Z" fill="#121212"/>
</svg>
