<svg width="32" height="32" viewBox="0 0 32 32" fill="none" xmlns="http://www.w3.org/2000/svg">
<path fill-rule="evenodd" clip-rule="evenodd" d="M16 4C22.6277 4 28 9.37231 28 16C28 22.6277 22.6277 28 16 28C9.37231 28 4 22.6277 4 16C4 9.37231 9.37231 4 16 4ZM16.5538 8.98461L18.3631 12.7785C18.4554 12.9723 18.6215 13.0923 18.8246 13.12L22.8677 13.7662C23.0985 13.8031 23.2738 13.96 23.3477 14.1815C23.4215 14.4031 23.3754 14.6338 23.2092 14.8092L20.2646 17.8646C20.1262 18.0031 20.0708 18.1877 20.0985 18.3908L20.7723 22.6462C20.8092 22.8862 20.7077 23.1077 20.5138 23.2462C20.32 23.3846 20.08 23.4031 19.8677 23.2831L16.2954 21.3446C16.1108 21.2431 15.8985 21.2431 15.7046 21.3446L12.1323 23.2831C11.92 23.4031 11.68 23.3846 11.4862 23.2462C11.2923 23.1077 11.1908 22.8862 11.2277 22.6462L11.9015 18.3908C11.9292 18.1877 11.8738 18.0123 11.7354 17.8646L8.79077 14.8092C8.62462 14.6338 8.57846 14.4031 8.65231 14.1815C8.72615 13.96 8.90154 13.8031 9.13231 13.7662L13.1754 13.1292C13.3785 13.0923 13.5446 12.9723 13.6369 12.7785L15.4462 8.98461C15.5477 8.77231 15.76 8.63385 16 8.63385C16.24 8.63385 16.4523 8.77231 16.5538 8.98461Z" fill="#121212"/>
</svg>
