<svg width="32" height="32" viewBox="0 0 32 32" fill="none" xmlns="http://www.w3.org/2000/svg">
<path d="M7.27273 11.1429C7.56205 11.1429 7.83953 11.2557 8.04412 11.4567C8.2487 11.6576 8.36364 11.9301 8.36364 12.2143V20.7857C8.36364 21.0699 8.2487 21.3424 8.04412 21.5433C7.83953 21.7443 7.56205 21.8571 7.27273 21.8571C6.9834 21.8571 6.70592 21.7443 6.50134 21.5433C6.29675 21.3424 6.18182 21.0699 6.18182 20.7857V17.5714H5.09091C4.80158 17.5714 4.5241 17.4585 4.31952 17.2576C4.11493 17.0567 4 16.7842 4 16.5C4 16.2158 4.11493 15.9433 4.31952 15.7424C4.5241 15.5415 4.80158 15.4286 5.09091 15.4286H6.18182V12.2143C6.18182 11.9301 6.29675 11.6576 6.50134 11.4567C6.70592 11.2557 6.9834 11.1429 7.27273 11.1429ZM24.7273 11.1429C25.0166 11.1429 25.2941 11.2557 25.4987 11.4567C25.7032 11.6576 25.8182 11.9301 25.8182 12.2143V15.4286H26.9091C27.1984 15.4286 27.4759 15.5415 27.6805 15.7424C27.8851 15.9433 28 16.2158 28 16.5C28 16.7842 27.8851 17.0567 27.6805 17.2576C27.4759 17.4585 27.1984 17.5714 26.9091 17.5714H25.8182V20.7857C25.8182 21.0699 25.7032 21.3424 25.4987 21.5433C25.2941 21.7443 25.0166 21.8571 24.7273 21.8571C24.4379 21.8571 24.1605 21.7443 23.9559 21.5433C23.7513 21.3424 23.6364 21.0699 23.6364 20.7857V12.2143C23.6364 11.9301 23.7513 11.6576 23.9559 11.4567C24.1605 11.2557 24.4379 11.1429 24.7273 11.1429ZM20.3636 9C20.9423 9 21.4972 9.22576 21.9064 9.62763C22.3156 10.0295 22.5455 10.5745 22.5455 11.1429V21.8571C22.5455 22.4255 22.3156 22.9705 21.9064 23.3724C21.4972 23.7742 20.9423 24 20.3636 24C19.785 24 19.23 23.7742 18.8209 23.3724C18.4117 22.9705 18.1818 22.4255 18.1818 21.8571V17.5714H13.8182V21.8571C13.8182 22.4255 13.5883 22.9705 13.1791 23.3724C12.77 23.7742 12.215 24 11.6364 24C11.0577 24 10.5028 23.7742 10.0936 23.3724C9.68441 22.9705 9.45455 22.4255 9.45455 21.8571V11.1429C9.45455 10.5745 9.68441 10.0295 10.0936 9.62763C10.5028 9.22576 11.0577 9 11.6364 9C12.215 9 12.77 9.22576 13.1791 9.62763C13.5883 10.0295 13.8182 10.5745 13.8182 11.1429V15.4286H18.1818V11.1429C18.1818 10.5745 18.4117 10.0295 18.8209 9.62763C19.23 9.22576 19.785 9 20.3636 9Z" fill="#121212"/>
</svg>
