<svg width="32" height="32" viewBox="0 0 32 32" fill="none" xmlns="http://www.w3.org/2000/svg">
<path d="M15.94 23.2C16.36 23.2 16.7152 23.0548 17.0056 22.7644C17.296 22.474 17.4408 22.1192 17.44 21.7C17.4392 21.2808 17.2944 20.9256 17.0056 20.6344C16.7168 20.3432 16.3616 20.1984 15.94 20.2C15.5184 20.2016 15.1636 20.3468 14.8756 20.6356C14.5876 20.9244 14.4424 21.2792 14.44 21.7C14.4376 22.1208 14.5828 22.476 14.8756 22.7656C15.1684 23.0552 15.5232 23.2 15.94 23.2ZM16 28C14.34 28 12.78 27.6848 11.32 27.0544C9.86 26.424 8.59 25.5692 7.51 24.49C6.43 23.4108 5.5752 22.1408 4.9456 20.68C4.316 19.2192 4.0008 17.6592 4 16C3.9992 14.3408 4.3144 12.7808 4.9456 11.32C5.5768 9.8592 6.4316 8.5892 7.51 7.51C8.5884 6.4308 9.8584 5.576 11.32 4.9456C12.7816 4.3152 14.3416 4 16 4C17.6584 4 19.2184 4.3152 20.68 4.9456C22.1416 5.576 23.4116 6.4308 24.49 7.51C25.5684 8.5892 26.4236 9.8592 27.0556 11.32C27.6876 12.7808 28.0024 14.3408 28 16C27.9976 17.6592 27.6824 19.2192 27.0544 20.68C26.4264 22.1408 25.5716 23.4108 24.49 24.49C23.4084 25.5692 22.1384 26.4244 20.68 27.0556C19.2216 27.6868 17.6616 28.0016 16 28ZM16.12 10.84C16.62 10.84 17.0552 11 17.4256 11.32C17.796 11.64 17.9808 12.04 17.98 12.52C17.98 12.96 17.8452 13.35 17.5756 13.69C17.306 14.03 17.0008 14.35 16.66 14.65C16.2 15.05 15.7952 15.49 15.4456 15.97C15.096 16.45 14.9208 16.99 14.92 17.59C14.92 17.87 15.0252 18.1052 15.2356 18.2956C15.446 18.486 15.6908 18.5808 15.97 18.58C16.27 18.58 16.5252 18.48 16.7356 18.28C16.946 18.08 17.0808 17.83 17.14 17.53C17.22 17.11 17.4 16.7352 17.68 16.4056C17.96 16.076 18.26 15.7608 18.58 15.46C19.04 15.02 19.4352 14.54 19.7656 14.02C20.096 13.5 20.2608 12.92 20.26 12.28C20.26 11.26 19.8452 10.4252 19.0156 9.7756C18.186 9.126 17.2208 8.8008 16.12 8.8C15.36 8.8 14.6352 8.96 13.9456 9.28C13.256 9.6 12.7308 10.09 12.37 10.75C12.23 10.99 12.1852 11.2452 12.2356 11.5156C12.286 11.786 12.4208 11.9908 12.64 12.13C12.92 12.29 13.21 12.34 13.51 12.28C13.81 12.22 14.06 12.05 14.26 11.77C14.48 11.47 14.7552 11.24 15.0856 11.08C15.416 10.92 15.7608 10.84 16.12 10.84Z" fill="#121212"/>
</svg>
