<svg width="32" height="32" viewBox="0 0 32 32" fill="none" xmlns="http://www.w3.org/2000/svg">
<path fill-rule="evenodd" clip-rule="evenodd" d="M22.6667 4C23.3739 4 24.0522 4.28095 24.5523 4.78105C25.0524 5.28115 25.3333 5.95942 25.3333 6.66667V8H26.6667C27.0203 8 27.3594 8.14048 27.6095 8.39052C27.8595 8.64057 28 8.97971 28 9.33333C28 9.68696 27.8595 10.0261 27.6095 10.2761C27.3594 10.5262 27.0203 10.6667 26.6667 10.6667V25.3333C27.0203 25.3333 27.3594 25.4738 27.6095 25.7239C27.8595 25.9739 28 26.313 28 26.6667C28 27.0203 27.8595 27.3594 27.6095 27.6095C27.3594 27.8595 27.0203 28 26.6667 28H18V22C18 21.4696 17.7893 20.9609 17.4142 20.5858C17.0391 20.2107 16.5304 20 16 20C15.4696 20 14.9609 20.2107 14.5858 20.5858C14.2107 20.9609 14 21.4696 14 22V28H5.33333C4.97971 28 4.64057 27.8595 4.39052 27.6095C4.14048 27.3594 4 27.0203 4 26.6667C4 26.313 4.14048 25.9739 4.39052 25.7239C4.64057 25.4738 4.97971 25.3333 5.33333 25.3333V10.6667C4.97971 10.6667 4.64057 10.5262 4.39052 10.2761C4.14048 10.0261 4 9.68696 4 9.33333C4 8.97971 4.14048 8.64057 4.39052 8.39052C4.64057 8.14048 4.97971 8 5.33333 8H6.66667V6.66667C6.66667 5.95942 6.94762 5.28115 7.44772 4.78105C7.94781 4.28095 8.62609 4 9.33333 4H22.6667ZM10.6667 17.3333C10.313 17.3333 9.97391 17.4738 9.72386 17.7239C9.47381 17.9739 9.33333 18.313 9.33333 18.6667V20C9.33333 20.3536 9.47381 20.6928 9.72386 20.9428C9.97391 21.1929 10.313 21.3333 10.6667 21.3333C11.0203 21.3333 11.3594 21.1929 11.6095 20.9428C11.8595 20.6928 12 20.3536 12 20V18.6667C12 18.313 11.8595 17.9739 11.6095 17.7239C11.3594 17.4738 11.0203 17.3333 10.6667 17.3333ZM21.3333 17.3333C21.0068 17.3334 20.6916 17.4533 20.4475 17.6703C20.2035 17.8873 20.0475 18.1863 20.0093 18.5107L20 18.6667V20C20.0004 20.3398 20.1305 20.6667 20.3638 20.9138C20.5971 21.1609 20.9159 21.3096 21.2552 21.3296C21.5944 21.3495 21.9285 21.2391 22.1891 21.021C22.4497 20.8029 22.6172 20.4935 22.6573 20.156L22.6667 20V18.6667C22.6667 18.313 22.5262 17.9739 22.2761 17.7239C22.0261 17.4738 21.687 17.3333 21.3333 17.3333ZM10.6667 12C10.3401 12 10.0249 12.1199 9.78084 12.337C9.53679 12.554 9.38088 12.853 9.34267 13.1773L9.33333 13.3333V14.6667C9.33371 15.0065 9.46384 15.3334 9.69713 15.5805C9.93042 15.8276 10.2493 15.9763 10.5885 15.9962C10.9278 16.0161 11.2618 15.9058 11.5224 15.6876C11.783 15.4695 11.9505 15.1601 11.9907 14.8227L12 14.6667V13.3333C12 12.9797 11.8595 12.6406 11.6095 12.3905C11.3594 12.1405 11.0203 12 10.6667 12ZM16 12C15.6734 12 15.3582 12.1199 15.1142 12.337C14.8701 12.554 14.7142 12.853 14.676 13.1773L14.6667 13.3333V14.6667C14.667 15.0065 14.7972 15.3334 15.0305 15.5805C15.2638 15.8276 15.5826 15.9763 15.9219 15.9962C16.2611 16.0161 16.5952 15.9058 16.8558 15.6876C17.1164 15.4695 17.2839 15.1601 17.324 14.8227L17.3333 14.6667V13.3333C17.3333 12.9797 17.1929 12.6406 16.9428 12.3905C16.6928 12.1405 16.3536 12 16 12ZM21.3333 12C20.9797 12 20.6406 12.1405 20.3905 12.3905C20.1405 12.6406 20 12.9797 20 13.3333V14.6667C20 15.0203 20.1405 15.3594 20.3905 15.6095C20.6406 15.8595 20.9797 16 21.3333 16C21.687 16 22.0261 15.8595 22.2761 15.6095C22.5262 15.3594 22.6667 15.0203 22.6667 14.6667V13.3333C22.6667 12.9797 22.5262 12.6406 22.2761 12.3905C22.0261 12.1405 21.687 12 21.3333 12ZM22.6667 6.66667H9.33333V8H22.6667V6.66667Z" fill="#121212"/>
</svg>
