<svg width="32" height="32" viewBox="0 0 32 32" fill="none" xmlns="http://www.w3.org/2000/svg">
<path d="M14.3535 4.71756L6.68278 12.788C6.35682 13.1307 6.13481 13.5675 6.04483 14.043C5.95486 14.5185 6.00096 15.0114 6.1773 15.4593L6.2565 15.637C6.45184 16.0387 6.74876 16.3758 7.11456 16.6113C7.48036 16.8467 7.90084 16.9714 8.32967 16.9715H11.3416V25.5492C11.3416 26.1992 11.587 26.8226 12.0238 27.2822C12.4607 27.7418 13.0532 28 13.671 28H18.3298L18.5045 27.9939C19.0905 27.9475 19.6382 27.6698 20.0378 27.2164C20.4374 26.763 20.6594 26.1675 20.6592 25.5492L20.658 16.9715H23.6711C24.1317 16.9714 24.582 16.8276 24.965 16.5583C25.348 16.289 25.6464 15.9063 25.8227 15.4585C25.999 15.0107 26.0451 14.518 25.9553 14.0427C25.8654 13.5674 25.6437 13.1307 25.318 12.788L17.6473 4.71756C17.2104 4.25811 16.6181 4 16.0004 4C15.3827 4 14.7903 4.25811 14.3535 4.71756Z" fill="#121212"/>
</svg>
