<svg width="32" height="32" viewBox="0 0 32 32" fill="none" xmlns="http://www.w3.org/2000/svg">
<path d="M22.5268 4H9.47323C8.02164 4 6.6295 4.57664 5.60307 5.60307C4.57664 6.6295 4 8.02164 4 9.47323V22.5268C4 23.9784 4.57664 25.3705 5.60307 26.3969C6.6295 27.4234 8.02164 28 9.47323 28H22.5268C23.9784 28 25.3705 27.4234 26.3969 26.3969C27.4234 25.3705 28 23.9784 28 22.5268V9.47323C28 8.02164 27.4234 6.6295 26.3969 5.60307C25.3705 4.57664 23.9784 4 22.5268 4ZM12.1145 23.3748C12.1183 23.4418 12.1084 23.5088 12.0854 23.5719C12.0624 23.6349 12.0268 23.6926 11.9807 23.7413C11.9346 23.7901 11.879 23.8289 11.8173 23.8554C11.7557 23.8819 11.6893 23.8955 11.6222 23.8954H9.43139C9.29927 23.8922 9.17369 23.8372 9.08164 23.7424C8.98958 23.6476 8.93839 23.5205 8.93908 23.3883V14.2769C8.93727 14.2111 8.94866 14.1457 8.97259 14.0844C8.99652 14.0231 9.0325 13.9672 9.0784 13.92C9.12429 13.8729 9.17918 13.8354 9.23981 13.8098C9.30044 13.7842 9.36558 13.7711 9.43139 13.7711H11.6222C11.688 13.7711 11.7531 13.7842 11.8137 13.8098C11.8744 13.8354 11.9292 13.8729 11.9751 13.92C12.021 13.9672 12.057 14.0231 12.0809 14.0844C12.1049 14.1457 12.1163 14.2111 12.1145 14.2769V23.3748ZM10.4862 11.8548C10.249 11.853 10.0145 11.8045 9.796 11.7121C9.57755 11.6197 9.37944 11.4852 9.21298 11.3162C9.04652 11.1472 8.91497 10.9471 8.82584 10.7273C8.73672 10.5075 8.69176 10.2723 8.69354 10.0351C8.69532 9.79789 8.74379 9.56337 8.8362 9.34492C8.92862 9.12647 9.06315 8.92836 9.23212 8.7619C9.4011 8.59544 9.6012 8.46389 9.82102 8.37477C10.0408 8.28564 10.276 8.24068 10.5132 8.24246C10.984 8.25777 11.4302 8.45646 11.7565 8.79613C12.0829 9.1358 12.2636 9.58956 12.26 10.0606C12.2565 10.5316 12.069 10.9826 11.7376 11.3174C11.4062 11.6521 10.9571 11.8441 10.4862 11.8523M23.7994 23.36C23.7988 23.4844 23.75 23.6036 23.6632 23.6927C23.5764 23.7818 23.4585 23.8337 23.3342 23.8375H21.0215C20.897 23.8337 20.7789 23.7816 20.6921 23.6923C20.6052 23.6029 20.5566 23.4833 20.5563 23.3588V19.1446C20.5563 18.5157 20.7483 16.4086 18.8874 16.4086C17.4363 16.4086 17.1495 17.8855 17.0942 18.5428V23.4548C17.0942 23.5796 17.0457 23.6995 16.9588 23.7891C16.872 23.8787 16.7536 23.9309 16.6289 23.9348H14.3852C14.2581 23.9344 14.1364 23.8837 14.0466 23.7937C13.9569 23.7038 13.9065 23.5819 13.9065 23.4548V14.2326C13.9103 14.1079 13.9626 13.9896 14.0522 13.9027C14.1418 13.8159 14.2617 13.7673 14.3865 13.7674H16.6289C16.7537 13.7673 16.8736 13.8159 16.9632 13.9027C17.0528 13.9896 17.1051 14.1079 17.1089 14.2326V15.0265C17.4363 14.5472 17.8884 14.1665 18.4163 13.9253C18.9442 13.6841 19.528 13.5916 20.1046 13.6578C23.84 13.6578 23.8265 17.1471 23.8265 19.1311L23.7994 23.36Z" fill="#121212"/>
</svg>
