<svg width="32" height="32" viewBox="0 0 32 32" fill="none" xmlns="http://www.w3.org/2000/svg">
<path d="M19.6664 11.2001V9.99949C19.6663 9.04487 19.2805 8.1292 18.593 7.45414C17.9483 6.82111 17.0878 6.44789 16.1814 6.40384L15.9997 6.39944C15.0273 6.39952 14.0948 6.77907 13.4073 7.45414C12.7197 8.12921 12.3331 9.0448 12.333 9.99949V11.2001C12.3329 11.8627 11.786 12.3998 11.1111 12.3998C10.4362 12.3998 9.88935 11.8627 9.88919 11.2001V9.99949C9.88927 8.40827 10.5327 6.88212 11.6787 5.75695C12.8246 4.63179 14.379 4.00008 15.9997 4L16.3032 4.00703C17.8136 4.08063 19.2472 4.70208 20.3216 5.75695C21.4675 6.8821 22.111 8.40834 22.1111 9.99949V11.2001C22.111 11.8626 21.564 12.3997 20.8892 12.3998C20.2143 12.3998 19.6665 11.8627 19.6664 11.2001Z" fill="#121212"/>
<path fill-rule="evenodd" clip-rule="evenodd" d="M5.71622 10.703C5 11.4062 5 12.5366 5 14.7998V18.3999C5 22.9251 5 25.1884 6.43244 26.5936C7.86489 27.9988 10.1688 28 14.7778 28H17.2222C21.8312 28 24.1363 28 25.5676 26.5936C26.9988 25.1872 27 22.9251 27 18.3999V14.7998C27 12.5366 27 11.4062 26.2838 10.703C25.5676 9.99978 24.4162 9.99949 22.1111 9.99949H9.88919C7.58408 9.99949 6.43244 9.99978 5.71622 10.703ZM13.5556 15.9999C13.5556 15.6816 13.4268 15.3764 13.1976 15.1513C12.9684 14.9263 12.6575 14.7998 12.3333 14.7998C12.0092 14.7998 11.6983 14.9263 11.4691 15.1513C11.2399 15.3764 11.1111 15.6816 11.1111 15.9999V18.3999C11.1111 18.7181 11.2399 19.0234 11.4691 19.2484C11.6983 19.4735 12.0092 19.5999 12.3333 19.5999C12.6575 19.5999 12.9684 19.4735 13.1976 19.2484C13.4268 19.0234 13.5556 18.7181 13.5556 18.3999V15.9999ZM20.8889 15.9999C20.8889 15.6816 20.7601 15.3764 20.5309 15.1513C20.3017 14.9263 19.9908 14.7998 19.6667 14.7998C19.3425 14.7998 19.0316 14.9263 18.8024 15.1513C18.5732 15.3764 18.4444 15.6816 18.4444 15.9999V18.3999C18.4444 18.7181 18.5732 19.0234 18.8024 19.2484C19.0316 19.4735 19.3425 19.5999 19.6667 19.5999C19.9908 19.5999 20.3017 19.4735 20.5309 19.2484C20.7601 19.0234 20.8889 18.7181 20.8889 18.3999V15.9999Z" fill="#121212"/>
</svg>
