<svg width="32" height="32" viewBox="0 0 32 32" fill="none" xmlns="http://www.w3.org/2000/svg">
<path d="M4 10.4155V23.5536C4 24.317 4.42083 25.0379 5.125 25.3051C8.75 26.6834 12.375 25.7419 16 24.8004C19.325 23.9396 22.65 23.0744 25.9708 23.9989C26.9292 24.2661 28 23.596 28 22.5825V9.44008C28 8.67673 27.5792 7.95578 26.875 7.68861C23.25 6.31881 19.625 7.26028 16 8.20175C12.675 9.06264 9.35 9.92354 6.02917 8.99903C5.06667 8.73186 4 9.40191 4 10.4155ZM16 20.5723C14.1583 20.5723 12.6667 18.7488 12.6667 16.5011C12.6667 14.2534 14.1583 12.4299 16 12.4299C17.8417 12.4299 19.3333 14.2534 19.3333 16.5011C19.3333 18.7488 17.8417 20.5723 16 20.5723ZM6.66667 20.5723C8.1375 20.5723 9.33333 21.7894 9.33333 23.2865H6.66667V20.5723ZM9.33333 11.7513C9.33333 13.2484 8.1375 14.4655 6.66667 14.4655V11.7513H9.33333ZM25.3333 18.5367V21.2509H22.6667C22.6667 19.7538 23.8625 18.5367 25.3333 18.5367ZM22.6667 9.71573H25.3333V12.4299C23.8625 12.4299 22.6667 11.2128 22.6667 9.71573Z" fill="#121212"/>
</svg>
