<svg width="32" height="32" viewBox="0 0 32 32" fill="none" xmlns="http://www.w3.org/2000/svg">
<path d="M10.95 13.4464C10.6 13.4464 10.3543 13.3776 10.213 13.2399C10.0717 13.1023 10.0007 12.8641 10 12.5255C10 11.8793 10.1583 11.2815 10.475 10.7321C10.7917 10.1828 11.2167 9.73044 11.75 9.375L14.875 7.33929C15.2083 7.1131 15.5833 7 16 7C16.4167 7 16.7917 7.1131 17.125 7.33929L20.25 9.375C20.7833 9.73044 21.2083 10.1828 21.525 10.7321C21.8417 11.2815 22 11.8793 22 12.5255C22 12.8648 21.929 13.1033 21.787 13.2409C21.645 13.3786 21.3993 13.4471 21.05 13.4464H10.95ZM5 24.0612V14.1008C4.7 13.923 4.45833 13.693 4.275 13.4106C4.09167 13.1281 4 12.8008 4 12.4286C4 12.0563 4.2 11.6039 4.6 11.0714C5 10.5389 5.46667 10.0219 6 9.52041C6.53333 10.0213 7 10.5383 7.4 11.0714C7.8 11.6046 8 12.057 8 12.4286C8 12.8002 7.90833 13.1275 7.725 13.4106C7.54167 13.6936 7.3 13.9234 7 14.0998V18.2449H9V16.3061C9 15.9022 9.13333 15.5145 9.4 15.1429C9.66667 14.7713 10.05 14.5289 10.55 14.4158H21.45C21.95 14.5289 22.3333 14.7713 22.6 15.1429C22.8667 15.5145 23 15.9022 23 16.3061V18.2449H25V14.1008C24.7 13.923 24.4583 13.693 24.275 13.4106C24.0917 13.1281 24 12.8008 24 12.4286C24 12.0563 24.2 11.6039 24.6 11.0714C25 10.5389 25.4667 10.0219 26 9.52041C26.5333 10.0213 27 10.5383 27.4 11.0714C27.8 11.6046 28 12.057 28 12.4286C28 12.8002 27.9083 13.1275 27.725 13.4106C27.5417 13.6936 27.3 13.9237 27 14.1008V24.0612C27 24.5944 26.8043 25.051 26.413 25.431C26.0217 25.811 25.5507 26.0006 25 26H19C18.7167 26 18.4793 25.9069 18.288 25.7208C18.0967 25.5347 18.0007 25.3046 18 25.0306V22.1224C18 21.5893 17.8043 21.133 17.413 20.7537C17.0217 20.3743 16.5507 20.1843 16 20.1837C15.4493 20.183 14.9787 20.373 14.588 20.7537C14.1973 21.1343 14.0013 21.5906 14 22.1224V25.0306C14 25.3053 13.904 25.5357 13.712 25.7218C13.52 25.9079 13.2827 26.0006 13 26H7C6.45 26 5.97933 25.8103 5.588 25.431C5.19667 25.0516 5.00067 24.595 5 24.0612Z" fill="#121212"/>
</svg>
