<svg width="32" height="32" viewBox="0 0 32 32" fill="none" xmlns="http://www.w3.org/2000/svg">
<path fill-rule="evenodd" clip-rule="evenodd" d="M14.5036 4.12405C14.1751 4.01388 13.8267 3.97645 13.4825 4.01433C13.1382 4.05221 12.8062 4.16449 12.5092 4.34348L7.5652 7.32391C7.20982 7.53815 6.91571 7.8412 6.71151 8.20356C6.50732 8.56592 6.4 8.97523 6.4 9.39164V25.5887H5.2C4.88174 25.5887 4.57652 25.7157 4.35147 25.9418C4.12643 26.1679 4 26.4746 4 26.7943C4 27.1141 4.12643 27.4208 4.35147 27.6469C4.57652 27.873 4.88174 28 5.2 28H26.8C27.1183 28 27.4235 27.873 27.6485 27.6469C27.8736 27.4208 28 27.1141 28 26.7943C28 26.4746 27.8736 26.1679 27.6485 25.9418C27.4235 25.7157 27.1183 25.5887 26.8 25.5887H25.6V9.57731C25.5997 9.07157 25.4412 8.57873 25.1468 8.1685C24.8524 7.75827 24.4371 7.45142 23.9596 7.29135L14.5036 4.12405ZM12.4 7.22263L8.8 9.39284V25.5887H12.4V7.22142V7.22263Z" fill="#121212"/>
</svg>
