<svg width="32" height="32" viewBox="0 0 32 32" fill="none" xmlns="http://www.w3.org/2000/svg">
<path d="M25.4286 4H6.57143C5.15179 4 4 5.15179 4 6.57143V25.4286C4 26.8482 5.15179 28 6.57143 28H25.4286C26.8482 28 28 26.8482 28 25.4286V6.57143C28 5.15179 26.8482 4 25.4286 4ZM16.8571 19.4286H14.2857V22C14.2857 22.4714 13.9 22.8571 13.4286 22.8571H11.7143C11.2429 22.8571 10.8571 22.4714 10.8571 22V10C10.8571 9.52857 11.2429 9.14286 11.7143 9.14286H16.8571C19.6911 9.14286 22 11.4518 22 14.2857C22 17.1196 19.6911 19.4286 16.8571 19.4286ZM16.8571 12.5714H14.2857V16H16.8571C17.8 16 18.5714 15.2286 18.5714 14.2857C18.5714 13.3429 17.8 12.5714 16.8571 12.5714Z" fill="#121212"/>
</svg>
