<svg width="32" height="32" viewBox="0 0 32 32" fill="none" xmlns="http://www.w3.org/2000/svg">
<path d="M15.5 22.2857C16.1299 22.2857 16.734 22.0449 17.1794 21.6162C17.6248 21.1876 17.875 20.6062 17.875 20C17.875 19.3938 17.6248 18.8124 17.1794 18.3838C16.734 17.9551 16.1299 17.7143 15.5 17.7143C14.8701 17.7143 14.266 17.9551 13.8206 18.3838C13.3752 18.8124 13.125 19.3938 13.125 20C13.125 20.6062 13.3752 21.1876 13.8206 21.6162C14.266 22.0449 14.8701 22.2857 15.5 22.2857ZM22.625 12C23.2549 12 23.859 12.2408 24.3044 12.6695C24.7498 13.0981 25 13.6795 25 14.2857V25.7143C25 26.3205 24.7498 26.9019 24.3044 27.3305C23.859 27.7592 23.2549 28 22.625 28H8.375C7.74511 28 7.14102 27.7592 6.69562 27.3305C6.25022 26.9019 6 26.3205 6 25.7143V14.2857C6 13.6795 6.25022 13.0981 6.69562 12.6695C7.14102 12.2408 7.74511 12 8.375 12H9.5625V9.71429C9.5625 8.19876 10.1881 6.74531 11.3016 5.67368C12.4151 4.60204 13.9253 4 15.5 4C16.2797 4 17.0518 4.1478 17.7722 4.43497C18.4926 4.72214 19.1471 5.14306 19.6984 5.67368C20.2498 6.2043 20.6871 6.83423 20.9855 7.52752C21.2839 8.22081 21.4375 8.96388 21.4375 9.71429V12H22.625ZM15.5 6.28571C14.5552 6.28571 13.649 6.64694 12.9809 7.28992C12.3128 7.9329 11.9375 8.80497 11.9375 9.71429V12H19.0625V9.71429C19.0625 8.80497 18.6872 7.9329 18.0191 7.28992C17.351 6.64694 16.4448 6.28571 15.5 6.28571Z" fill="#121212"/>
</svg>
