<svg width="32" height="32" viewBox="0 0 32 32" fill="none" xmlns="http://www.w3.org/2000/svg">
<path d="M7.25 7.28316C7.25011 7.04799 7.18042 6.8178 7.04934 6.62038C6.91826 6.42296 6.73138 6.26673 6.51125 6.17054C6.69125 6.03284 6.90875 5.939 7.14875 5.90488L20.6463 4.02452C21.0009 3.97511 21.3622 4.00056 21.7059 4.09916C22.0495 4.19776 22.3674 4.3672 22.638 4.59601C22.9086 4.82482 23.1256 5.10765 23.2743 5.42535C23.4231 5.74305 23.5 6.0882 23.5 6.43743V7.43671C23.0916 7.33435 22.6716 7.28276 22.25 7.28316H7.25ZM13.1875 17.0323C13.1875 16.3051 13.4838 15.6076 14.0113 15.0934C14.5387 14.5792 15.2541 14.2903 16 14.2903C16.7459 14.2903 17.4613 14.5792 17.9887 15.0934C18.5162 15.6076 18.8125 16.3051 18.8125 17.0323C18.8125 17.7595 18.5162 18.4569 17.9887 18.9711C17.4613 19.4853 16.7459 19.7742 16 19.7742C15.2541 19.7742 14.5387 19.4853 14.0113 18.9711C13.4838 18.4569 13.1875 17.7595 13.1875 17.0323Z" fill="#121212"/>
<path fill-rule="evenodd" clip-rule="evenodd" d="M23.5 8.70897C24.9563 9.21226 26 10.5662 26 12.1577V24.3441C26 25.3137 25.6049 26.2436 24.9017 26.9292C24.1984 27.6148 23.2446 28 22.25 28H9.75C8.75544 28 7.80161 27.6148 7.09835 26.9292C6.39509 26.2436 6 25.3137 6 24.3441V7.28316C6 7.60636 6.1317 7.91633 6.36612 8.14487C6.60054 8.37341 6.91848 8.5018 7.25 8.5018H22.25C22.6875 8.5018 23.1088 8.57492 23.5 8.70897ZM16 12.4624C14.7568 12.4624 13.5645 12.9438 12.6854 13.8009C11.8064 14.6579 11.3125 15.8203 11.3125 17.0323C11.3125 18.2443 11.8064 19.4066 12.6854 20.2637C13.5645 21.1207 14.7568 21.6022 16 21.6022C17.2432 21.6022 18.4355 21.1207 19.3146 20.2637C20.1936 19.4066 20.6875 18.2443 20.6875 17.0323C20.6875 15.8203 20.1936 14.6579 19.3146 13.8009C18.4355 12.9438 17.2432 12.4624 16 12.4624ZM13.5 23.4301C13.2514 23.4301 13.0129 23.5264 12.8371 23.6978C12.6613 23.8692 12.5625 24.1017 12.5625 24.3441C12.5625 24.5865 12.6613 24.819 12.8371 24.9904C13.0129 25.1618 13.2514 25.2581 13.5 25.2581H18.5C18.7486 25.2581 18.9871 25.1618 19.1629 24.9904C19.3387 24.819 19.4375 24.5865 19.4375 24.3441C19.4375 24.1017 19.3387 23.8692 19.1629 23.6978C18.9871 23.5264 18.7486 23.4301 18.5 23.4301H13.5Z" fill="#121212"/>
</svg>
