<svg width="32" height="32" viewBox="0 0 32 32" fill="none" xmlns="http://www.w3.org/2000/svg">
<path d="M16 28C15.8542 28 15.7187 27.9899 15.5937 27.9696C15.4687 27.9494 15.3437 27.919 15.2187 27.8785C12.4062 26.9671 10.1667 25.2812 8.5 22.8209C6.83333 20.3605 6 17.7122 6 14.8759V9.13418C6 8.62785 6.15125 8.17215 6.45375 7.76709C6.75625 7.36203 7.14667 7.06835 7.625 6.88608L15.125 4.1519C15.4167 4.05063 15.7083 4 16 4C16.2917 4 16.5833 4.05063 16.875 4.1519L24.375 6.88608C24.8542 7.06835 25.245 7.36203 25.5475 7.76709C25.85 8.17215 26.0008 8.62785 26 9.13418V14.8759C26 16.1519 25.8279 17.3926 25.4837 18.5981C25.1396 19.8035 24.645 20.9527 24 22.0456L20.3125 18.4608C20.5417 18.0759 20.7137 17.6762 20.8287 17.2614C20.9437 16.8466 21.0008 16.416 21 15.9696C21 14.6329 20.5104 13.4886 19.5312 12.5367C18.5521 11.5848 17.375 11.1089 16 11.1089C14.625 11.1089 13.4479 11.5848 12.4687 12.5367C11.4896 13.4886 11 14.6329 11 15.9696C11 17.3063 11.4896 18.4506 12.4687 19.4025C13.4479 20.3544 14.625 20.8304 16 20.8304C16.4375 20.8304 16.87 20.7749 17.2975 20.6639C17.725 20.5529 18.1258 20.3856 18.5 20.162L22.5312 24.0506C21.7396 24.962 20.87 25.7369 19.9225 26.3753C18.975 27.0137 17.9279 27.5147 16.7812 27.8785C16.6562 27.919 16.5312 27.9494 16.4062 27.9696C16.2812 27.9899 16.1458 28 16 28ZM16 18.4C15.3125 18.4 14.7242 18.1618 14.235 17.6855C13.7458 17.2091 13.5008 16.6372 13.5 15.9696C13.4992 15.3021 13.7442 14.7301 14.235 14.2538C14.7258 13.7774 15.3142 13.5392 16 13.5392C16.6858 13.5392 17.2746 13.7774 17.7662 14.2538C18.2579 14.7301 18.5025 15.3021 18.5 15.9696C18.4975 16.6372 18.2529 17.2095 17.7662 17.6867C17.2796 18.1638 16.6908 18.4016 16 18.4Z" fill="#121212"/>
</svg>
