<svg width="32" height="32" viewBox="0 0 32 32" fill="none" xmlns="http://www.w3.org/2000/svg">
<path fill-rule="evenodd" clip-rule="evenodd" d="M25.273 9.15008C26.779 9.15035 28 10.3253 28 11.7749V18.075C28 19.5247 26.779 20.6996 25.273 20.6998H13.2727C11.7665 20.6998 10.5457 19.5248 10.5457 18.075V11.7749C10.5457 10.3251 11.7665 9.15008 13.2727 9.15008H25.273ZM15.9997 12.3002C15.3972 12.3002 14.9091 12.77 14.9091 13.3499V16.5C14.9091 17.0799 15.3972 17.5498 15.9997 17.5498C16.6022 17.5498 17.0904 17.0799 17.0904 16.5V13.3499C17.0904 12.77 16.6022 12.3002 15.9997 12.3002ZM22.5452 12.3002C21.9427 12.3002 21.4545 12.77 21.4545 13.3499V16.5C21.4545 17.0799 21.9427 17.5498 22.5452 17.5498C23.1477 17.5498 23.6358 17.0799 23.6358 16.5V13.3499C23.6358 12.77 23.1477 12.3002 22.5452 12.3002Z" fill="#121212"/>
<path d="M7.27273 21.7504V9.67458H5.09064C4.48815 9.67458 4 9.20472 4 8.62481C4 8.04489 4.48815 7.57504 5.09064 7.57504H7.27273C7.85129 7.57511 8.4065 7.79574 8.81561 8.18952C9.22471 8.58329 9.45394 9.1177 9.45401 9.67458V21.7504H26.9091L27.0202 21.7558C27.5703 21.8095 27.9997 22.2564 27.9997 22.8002C27.9997 23.3439 27.5703 23.7908 27.0202 23.8445L26.9091 23.8499H9.45401C8.87546 23.8499 8.32024 23.6292 7.91113 23.2354C7.50203 22.8417 7.2728 22.3073 7.27273 21.7504ZM21.4543 10.1998V8.09954H17.0909V10.1998C17.0909 10.7798 16.602 11.2496 15.9995 11.2496C15.3971 11.2495 14.9088 10.7797 14.9088 10.1998V7.04977L14.9144 6.9421C14.9704 6.41285 15.4349 6.00013 15.9995 6H22.5449L22.6568 6.00538C23.2068 6.05919 23.6364 6.50613 23.6364 7.04977V10.1998C23.6364 10.7798 23.1474 11.2496 22.5449 11.2496C21.9426 11.2495 21.4543 10.7797 21.4543 10.1998Z" fill="#121212"/>
<path d="M13.2725 25.9502C12.8385 25.9502 12.4223 25.7843 12.1154 25.4889C11.8085 25.1935 11.6361 24.7929 11.6361 24.3752V22.8002H14.9088V24.3752C14.9088 24.7929 14.7364 25.1935 14.4295 25.4889C14.1227 25.7843 13.7065 25.9502 13.2725 25.9502ZM23.0906 25.9502C22.6567 25.9502 22.2404 25.7843 21.9336 25.4889C21.6267 25.1935 21.4543 24.7929 21.4543 24.3752V22.8002H24.727V24.3752C24.727 24.7929 24.5546 25.1935 24.2477 25.4889C23.9408 25.7843 23.5246 25.9502 23.0906 25.9502Z" fill="#121212"/>
<path d="M13.8182 23.8499H12.7267V24.3752L12.7379 24.4782C12.7589 24.5791 12.8099 24.6729 12.8865 24.7466C12.9888 24.8451 13.1278 24.9005 13.2725 24.9005C13.4171 24.9005 13.5561 24.8451 13.6584 24.7466C13.7607 24.6482 13.8182 24.5144 13.8182 24.3752V23.8499ZM23.6364 23.8499H22.5449V24.3752C22.5449 24.5144 22.6024 24.6482 22.7047 24.7466C22.807 24.8451 22.946 24.9005 23.0906 24.9005C23.2353 24.9005 23.3743 24.8451 23.4766 24.7466C23.5789 24.6482 23.6364 24.5144 23.6364 24.3752V23.8499ZM15.9963 24.5052C15.9629 25.1541 15.6808 25.7701 15.2013 26.2317C14.6898 26.724 13.9958 27 13.2725 27C12.5491 27 11.8551 26.724 11.3437 26.2317C10.8641 25.7701 10.582 25.1541 10.5487 24.5052L10.5455 24.3752V22.8002L10.551 22.6925C10.6071 22.1632 11.0714 21.7504 11.6361 21.7504H14.9088L15.0207 21.7558C15.5706 21.8097 15.9995 22.2566 15.9995 22.8002V24.3752L15.9963 24.5052ZM25.8176 24.3752C25.8176 25.0714 25.5309 25.7394 25.0194 26.2317C24.508 26.724 23.814 27 23.0906 27C22.3673 27 21.6733 26.724 21.1618 26.2317C20.6504 25.7394 20.3636 25.0714 20.3636 24.3752V22.8002L20.3692 22.6925C20.4253 22.1632 20.8896 21.7504 21.4543 21.7504H24.727L24.8389 21.7558C25.3888 21.8097 25.8176 22.2566 25.8176 22.8002V24.3752Z" fill="#121212"/>
</svg>
