<svg width="32" height="32" viewBox="0 0 32 32" fill="none" xmlns="http://www.w3.org/2000/svg">
<path d="M16 22.0456C16.3542 22.0456 16.6512 21.9289 16.8912 21.6956C17.1312 21.4623 17.2508 21.1739 17.25 20.8304V15.9696C17.25 15.6253 17.13 15.3369 16.89 15.1044C16.65 14.8719 16.3533 14.7552 16 14.7544C15.6467 14.7536 15.35 14.8703 15.11 15.1044C14.87 15.3385 14.75 15.6269 14.75 15.9696V20.8304C14.75 21.1747 14.87 21.4635 15.11 21.6968C15.35 21.9301 15.6467 22.0464 16 22.0456ZM16 12.324C16.3542 12.324 16.6512 12.2074 16.8912 11.9741C17.1312 11.7408 17.2508 11.4524 17.25 11.1089C17.2492 10.7654 17.1292 10.477 16.89 10.2436C16.6508 10.0103 16.3542 9.89367 16 9.89367C15.6458 9.89367 15.3492 10.0103 15.11 10.2436C14.8708 10.477 14.7508 10.7654 14.75 11.1089C14.7492 11.4524 14.8692 11.7412 15.11 11.9753C15.3508 12.2094 15.6475 12.3257 16 12.324ZM16 28C15.8542 28 15.7187 27.9899 15.5937 27.9696C15.4687 27.9494 15.3437 27.919 15.2187 27.8785C12.4062 26.9671 10.1667 25.2808 8.5 22.8196C6.83333 20.3585 6 17.7106 6 14.8759V9.13418C6 8.62785 6.15125 8.17215 6.45375 7.76709C6.75625 7.36203 7.14667 7.06835 7.625 6.88608L15.125 4.1519C15.4167 4.05063 15.7083 4 16 4C16.2917 4 16.5833 4.05063 16.875 4.1519L24.375 6.88608C24.8542 7.06835 25.245 7.36203 25.5475 7.76709C25.85 8.17215 26.0008 8.62785 26 9.13418V14.8759C26 17.7114 25.1667 20.3597 23.5 22.8209C21.8333 25.282 19.5937 26.9679 16.7812 27.8785C16.6562 27.919 16.5312 27.9494 16.4062 27.9696C16.2812 27.9899 16.1458 28 16 28Z" fill="#121212"/>
</svg>
