<svg width="32" height="32" viewBox="0 0 32 32" fill="none" xmlns="http://www.w3.org/2000/svg">
<path d="M16 10.2609C16.4151 10.2609 16.8132 10.096 17.1068 9.80243C17.4003 9.50889 17.5652 9.11077 17.5652 8.69565V5.56522C17.5652 5.1501 17.4003 4.75198 17.1068 4.45844C16.8132 4.16491 16.4151 4 16 4C15.5849 4 15.1868 4.16491 14.8932 4.45844C14.5997 4.75198 14.4348 5.1501 14.4348 5.56522V8.69565C14.4348 9.11077 14.5997 9.50889 14.8932 9.80243C15.1868 10.096 15.5849 10.2609 16 10.2609ZM12.1078 9.85391L9.89565 7.65217C9.59685 7.35713 9.19383 7.19169 8.77391 7.19169C8.35399 7.19169 7.95098 7.35713 7.65217 7.65217C7.50585 7.79668 7.38987 7.96896 7.31103 8.1589C7.23218 8.34884 7.19207 8.55261 7.19304 8.75826C7.19837 9.16917 7.36297 9.56196 7.65217 9.85391L9.89565 12.0661C10.1889 12.3597 10.5868 12.5249 11.0017 12.5252C11.3111 12.5249 11.6135 12.433 11.8706 12.261C12.1278 12.089 12.3282 11.8446 12.4465 11.5588C12.5649 11.273 12.5959 10.9585 12.5356 10.655C12.4753 10.3516 12.3264 10.0728 12.1078 9.85391ZM4 16C4 16.4151 4.16491 16.8132 4.45844 17.1068C4.75198 17.4003 5.1501 17.5652 5.56522 17.5652H8.69565C9.11077 17.5652 9.50889 17.4003 9.80243 17.1068C10.096 16.8132 10.2609 16.4151 10.2609 16C10.2609 15.5849 10.096 15.1868 9.80243 14.8932C9.50889 14.5997 9.11077 14.4348 8.69565 14.4348H5.56522C5.1501 14.4348 4.75198 14.5997 4.45844 14.8932C4.16491 15.1868 4 15.5849 4 16ZM10.7826 19.673C10.5669 19.6717 10.3533 19.7156 10.1556 19.8019C9.95795 19.8882 9.78052 20.0149 9.63478 20.1739L7.41217 22.3443C7.12159 22.6392 6.95869 23.0365 6.95869 23.4504C6.95869 23.8644 7.12159 24.2617 7.41217 24.5565C7.70743 24.8503 8.10698 25.0152 8.52348 25.0152C8.93997 25.0152 9.33953 24.8503 9.63478 24.5565L11.8261 22.3443C12.0414 22.1293 12.1893 21.8561 12.2518 21.5583C12.3142 21.2605 12.2885 20.9509 12.1778 20.6675C12.0671 20.3841 11.8762 20.139 11.6284 19.9624C11.3806 19.7858 11.0867 19.6852 10.7826 19.673ZM14.4348 26.4348C14.4348 26.8499 14.5997 27.248 14.8932 27.5416C15.1868 27.8351 15.5849 28 16 28C16.4151 28 16.8132 27.8351 17.1068 27.5416C17.4003 27.248 17.5652 26.8499 17.5652 26.4348V23.3043C17.5652 22.8892 17.4003 22.4911 17.1068 22.1976C16.8132 21.904 16.4151 21.7391 16 21.7391C15.5849 21.7391 15.1868 21.904 14.8932 22.1976C14.5997 22.4911 14.4348 22.8892 14.4348 23.3043V26.4348ZM20.2261 20.1739C19.933 20.4674 19.7683 20.8652 19.7683 21.28C19.7683 21.6948 19.933 22.0926 20.2261 22.3861L22.4383 24.5983C22.7328 24.89 23.1298 25.0548 23.5443 25.0574C23.962 25.0553 24.3625 24.8906 24.6609 24.5983C24.9507 24.3033 25.112 23.9057 25.1096 23.4922C25.1119 23.2848 25.0725 23.079 24.9936 22.8872C24.9147 22.6954 24.798 22.5214 24.6504 22.3757L22.4383 20.1739C22.1448 19.8808 21.747 19.7162 21.3322 19.7162C20.9174 19.7162 20.5196 19.8808 20.2261 20.1739ZM28 16C28 15.5849 27.8351 15.1868 27.5416 14.8932C27.248 14.5997 26.8499 14.4348 26.4348 14.4348H23.3043C22.8892 14.4348 22.4911 14.5997 22.1976 14.8932C21.904 15.1868 21.7391 15.5849 21.7391 16C21.7391 16.4151 21.904 16.8132 22.1976 17.1068C22.4911 17.4003 22.8892 17.5652 23.3043 17.5652H26.4348C26.8499 17.5652 27.248 17.4003 27.5416 17.1068C27.8351 16.8132 28 16.4151 28 16ZM23.3043 7.03652C22.9116 7.05495 22.5398 7.21858 22.2609 7.49565L20.0278 9.73913C19.7347 10.0326 19.5701 10.4304 19.5701 10.8452C19.5701 11.26 19.7347 11.6578 20.0278 11.9513C20.3231 12.2451 20.7226 12.41 21.1391 12.41C21.5556 12.41 21.9552 12.2451 22.2504 11.9513L24.4626 9.73913C24.6963 9.51919 24.8567 9.23275 24.9221 8.9186C24.9876 8.60445 24.9549 8.27778 24.8285 7.98284C24.7021 7.68789 24.488 7.43892 24.2154 7.26966C23.9428 7.10039 23.6248 7.019 23.3043 7.03652Z" fill="#121212"/>
</svg>
