<svg width="32" height="32" viewBox="0 0 32 32" fill="none" xmlns="http://www.w3.org/2000/svg">
<path d="M11.9043 11.9437L4.93546 12.9571L4.81203 12.9823C4.62518 13.0321 4.45485 13.1307 4.31842 13.2681C4.18198 13.4054 4.08435 13.5767 4.03548 13.7643C3.98661 13.9519 3.98825 14.1491 4.04025 14.3359C4.09224 14.5226 4.19272 14.6922 4.33142 14.8273L9.38001 19.7563L8.18941 26.7186L8.17521 26.8392C8.16377 27.033 8.2039 27.2264 8.29148 27.3995C8.37907 27.5727 8.51096 27.7194 8.67366 27.8246C8.83636 27.9299 9.02402 27.9898 9.21742 27.9984C9.41082 28.007 9.60302 27.9638 9.77433 27.8734L16.007 24.5867L22.2254 27.8734L22.3346 27.9238C22.5149 27.995 22.7109 28.0168 22.9024 27.9871C23.0938 27.9573 23.274 27.8769 23.4243 27.7543C23.5746 27.6316 23.6897 27.471 23.7577 27.289C23.8257 27.107 23.8443 26.9102 23.8114 26.7186L22.6197 19.7563L27.6705 14.8262L27.7557 14.7331C27.8774 14.5827 27.9572 14.4027 27.9869 14.2113C28.0167 14.02 27.9954 13.8241 27.9251 13.6438C27.8548 13.4634 27.7381 13.3049 27.5869 13.1845C27.4357 13.064 27.2554 12.986 27.0643 12.9582L20.0954 11.9437L16.9802 5.6113C16.8901 5.42783 16.7505 5.27333 16.5773 5.16529C16.4042 5.05726 16.2043 5 16.0004 5C15.7965 5 15.5966 5.05726 15.4235 5.16529C15.2503 5.27333 15.1108 5.42783 15.0206 5.6113L11.9043 11.9437Z" fill="#121212"/>
</svg>
