<svg width="32" height="32" viewBox="0 0 32 32" fill="none" xmlns="http://www.w3.org/2000/svg">
<path d="M4.32413 9.26258C4.70566 8.91292 5.2855 8.91515 5.66398 9.25184L5.73722 9.32411L9.86222 13.8241C10.486 14.5046 10.8944 14.9476 11.2343 15.2391C11.5601 15.5186 11.7096 15.5562 11.79 15.5643C11.8477 15.5697 11.9041 15.5698 11.9618 15.5643L12.036 15.5497C12.1262 15.5229 12.271 15.45 12.5155 15.2401C12.8556 14.9483 13.2635 14.5049 13.8876 13.8241C14.4777 13.1803 14.9798 12.6303 15.4325 12.2421C15.8992 11.8419 16.4255 11.5121 17.0888 11.4452H17.0907C17.1851 11.4359 17.2803 11.4315 17.3749 11.4315L17.6591 11.4452L17.9023 11.4823C18.4547 11.5951 18.9092 11.8919 19.3173 12.2421C19.7699 12.6305 20.2723 13.1806 20.8622 13.8241L25.9999 19.4286V14.4999C26 13.9477 26.4477 13.4999 26.9999 13.4999C27.5522 13.4999 27.9998 13.9477 27.9999 14.4999V21.9999C27.9999 22.048 27.9948 22.0952 27.9882 22.1415C27.986 22.1571 27.9843 22.1728 27.9814 22.1884C27.9788 22.2018 27.9757 22.2151 27.9726 22.2284C27.9681 22.2477 27.9636 22.267 27.9579 22.286C27.9541 22.2989 27.9496 22.3115 27.9452 22.3241C27.9402 22.3389 27.9344 22.3534 27.9286 22.3681C27.9227 22.3829 27.9166 22.3975 27.9101 22.412C27.8883 22.4602 27.8627 22.5068 27.8329 22.5516C27.8301 22.5559 27.827 22.5601 27.8241 22.5643C27.8089 22.5865 27.7925 22.6077 27.7753 22.6288C27.7715 22.6335 27.7675 22.6379 27.7636 22.6425C27.7501 22.6584 27.7362 22.6741 27.7216 22.6893C27.7124 22.699 27.7029 22.7084 27.6933 22.7177C27.687 22.7237 27.6822 22.7313 27.6757 22.7372C27.6654 22.7466 27.654 22.7547 27.6435 22.7636C27.6385 22.7677 27.6338 22.7722 27.6288 22.7763C27.6095 22.7919 27.5894 22.8062 27.5693 22.8202C27.5626 22.8248 27.5565 22.8304 27.5497 22.8348C27.5302 22.8477 27.5103 22.8596 27.4901 22.871C27.4818 22.8757 27.4733 22.8802 27.4648 22.8847C27.4487 22.8931 27.4323 22.9006 27.4159 22.9081C27.3989 22.9159 27.3818 22.9237 27.3642 22.9306C27.3583 22.9328 27.3525 22.9352 27.3466 22.9374C27.3273 22.9445 27.3078 22.951 27.288 22.9569C27.2615 22.9649 27.2349 22.9717 27.2079 22.9774C27.2047 22.9781 27.2014 22.9787 27.1982 22.9794C27.1693 22.9852 27.1404 22.9898 27.1112 22.9931C27.1076 22.9935 27.1041 22.9946 27.1005 22.995C27.0677 22.9983 27.0348 22.9989 27.0019 22.9989L26.9999 22.9999H20.1249C19.5727 22.9998 19.1249 22.5521 19.1249 21.9999C19.125 21.4477 19.5727 20.9999 20.1249 20.9999H24.7265L19.3876 15.1757C18.7636 14.4949 18.3555 14.0515 18.0155 13.7597C17.6896 13.4799 17.5406 13.4432 17.4618 13.4354C17.4044 13.4298 17.3464 13.4289 17.289 13.4345C17.2085 13.4427 17.0594 13.4818 16.7343 13.7606C16.3943 14.0522 15.9861 14.4951 15.3622 15.1757C14.7723 15.8192 14.2699 16.3693 13.8173 16.7577C13.3508 17.158 12.824 17.4888 12.1591 17.5546H12.1571C11.9692 17.5728 11.7806 17.5728 11.5927 17.5546H11.5888C10.9255 17.4876 10.3992 17.1579 9.93253 16.7577C9.47986 16.3694 8.97771 15.8194 8.38761 15.1757L4.26261 10.6757L4.19718 10.5966C3.89452 10.1903 3.94258 9.61234 4.32413 9.26258Z" fill="#121212"/>
</svg>
