<svg width="32" height="32" viewBox="0 0 32 32" fill="none" xmlns="http://www.w3.org/2000/svg">
<path fill-rule="evenodd" clip-rule="evenodd" d="M10.5 4C9.30653 4 8.16193 4.47411 7.31802 5.31802C6.47411 6.16193 6 7.30653 6 8.5V26.5C5.99977 26.7751 6.07521 27.045 6.21804 27.2801C6.36088 27.5152 6.56563 27.7065 6.80989 27.8331C7.05414 27.9596 7.3285 28.0166 7.60295 27.9977C7.8774 27.9788 8.14138 27.8848 8.366 27.726L11.75 25.336L15.134 27.726C15.3873 27.9051 15.6898 28.0012 16 28.0012C16.3102 28.0012 16.6127 27.9051 16.866 27.726L20.25 25.336L23.636 27.726C23.8606 27.8843 24.1244 27.9778 24.3985 27.9964C24.6727 28.015 24.9467 27.9579 25.1906 27.8314C25.4345 27.7049 25.639 27.5138 25.7817 27.279C25.9245 27.0443 26 26.7748 26 26.5V8.5C26 7.30653 25.5259 6.16193 24.682 5.31802C23.8381 4.47411 22.6935 4 21.5 4H10.5ZM16.56 10.56C16.825 10.2757 16.9692 9.89956 16.9624 9.51095C16.9555 9.12235 16.7981 8.75158 16.5232 8.47676C16.2484 8.20193 15.8776 8.04451 15.489 8.03765C15.1004 8.03079 14.7243 8.17504 14.44 8.44L9.94 12.94C9.6591 13.2213 9.50132 13.6025 9.50132 14C9.50132 14.3975 9.6591 14.7787 9.94 15.06L14.44 19.56C14.7243 19.825 15.1004 19.9692 15.489 19.9624C15.8776 19.9555 16.2484 19.7981 16.5232 19.5232C16.7981 19.2484 16.9555 18.8776 16.9624 18.489C16.9692 18.1004 16.825 17.7243 16.56 17.44L14.62 15.5H17.25C18.77 15.5 20 16.732 20 18.25C20 18.6478 20.158 19.0294 20.4393 19.3107C20.7206 19.592 21.1022 19.75 21.5 19.75C21.8978 19.75 22.2794 19.592 22.5607 19.3107C22.842 19.0294 23 18.6478 23 18.25C23 16.725 22.3942 15.2625 21.3159 14.1841C20.2375 13.1058 18.775 12.5 17.25 12.5H14.622L16.56 10.56Z" fill="#121212"/>
</svg>
