<svg width="32" height="32" viewBox="0 0 32 32" fill="none" xmlns="http://www.w3.org/2000/svg">
<path d="M14.0789 18.4C14.4219 18.4 14.7096 18.2848 14.9421 18.0544C15.1745 17.824 15.2903 17.5392 15.2895 17.2V13.6C15.2895 13.26 15.1733 12.9752 14.9408 12.7456C14.7084 12.516 14.4211 12.4008 14.0789 12.4C13.7368 12.3992 13.4495 12.5144 13.2171 12.7456C12.9846 12.9768 12.8684 13.2616 12.8684 13.6V17.2C12.8684 17.54 12.9846 17.8252 13.2171 18.0556C13.4495 18.286 13.7368 18.4008 14.0789 18.4ZM8.02632 20.8V16.6C7.09825 16.14 6.36184 15.4752 5.81711 14.6056C5.27237 13.736 5 12.7908 5 11.77C5 10.27 5.51972 9 6.55916 7.96C7.5986 6.92 8.87449 6.4 10.3868 6.4C10.6289 6.4 10.8763 6.42 11.1289 6.46C11.3815 6.5 11.6284 6.55 11.8697 6.61C12.3741 5.79 13.0298 5.15 13.8368 4.69C14.6439 4.23 15.5316 4 16.5 4C17.4684 4 18.3561 4.23 19.1632 4.69C19.9702 5.15 20.6259 5.79 21.1303 6.61C21.3724 6.55 21.6145 6.5 21.8566 6.46C22.0987 6.42 22.3509 6.4 22.6132 6.4C24.1263 6.4 25.4026 6.92 26.4421 7.96C27.4815 9 28.0008 10.27 28 11.77C28 12.79 27.7276 13.7352 27.1829 14.6056C26.6382 15.476 25.9018 16.1408 24.9737 16.6V20.8H8.02632ZM18.9211 18.4C19.264 18.4 19.5517 18.2848 19.7842 18.0544C20.0166 17.824 20.1324 17.5392 20.1316 17.2V13.6C20.1316 13.26 20.0154 12.9752 19.7829 12.7456C19.5505 12.516 19.2632 12.4008 18.9211 12.4C18.5789 12.3992 18.2916 12.5144 18.0592 12.7456C17.8267 12.9768 17.7105 13.2616 17.7105 13.6V17.2C17.7105 17.54 17.8267 17.8252 18.0592 18.0556C18.2916 18.286 18.5789 18.4008 18.9211 18.4ZM10.4474 28C9.78158 28 9.21182 27.7652 8.73811 27.2956C8.26439 26.826 8.02712 26.2608 8.02632 25.6V23.2H24.9737V25.6C24.9737 26.26 24.7368 26.8252 24.2631 27.2956C23.7894 27.766 23.2192 28.0008 22.5526 28H10.4474Z" fill="#121212"/>
</svg>
