<svg width="32" height="32" viewBox="0 0 32 32" fill="none" xmlns="http://www.w3.org/2000/svg">
<path d="M5.33333 28C4.95555 28 4.63911 27.872 4.384 27.616C4.12889 27.36 4.00089 27.0436 4 26.6667C3.99911 26.2898 4.12711 25.9733 4.384 25.7173C4.64089 25.4613 4.95733 25.3333 5.33333 25.3333H6.66666V5.33333C6.66666 4.95556 6.79466 4.63911 7.05066 4.384C7.30666 4.12889 7.62311 4.00089 8 4H17.3333C17.7111 4 18.028 4.128 18.284 4.384C18.54 4.64 18.6676 4.95644 18.6667 5.33333H24C24.3778 5.33333 24.6947 5.46133 24.9507 5.71733C25.2067 5.97333 25.3342 6.28978 25.3333 6.66667V25.3333H26.6667C27.0444 25.3333 27.3613 25.4613 27.6173 25.7173C27.8733 25.9733 28.0009 26.2898 28 26.6667C27.9991 27.0436 27.8711 27.3604 27.616 27.6173C27.3609 27.8742 27.0444 28.0018 26.6667 28H24C23.6222 28 23.3058 27.872 23.0507 27.616C22.7956 27.36 22.6676 27.0436 22.6667 26.6667V8H18.6667V26.6667C18.6667 27.0444 18.5387 27.3613 18.2827 27.6173C18.0267 27.8733 17.7102 28.0009 17.3333 28H5.33333ZM16 16C16 15.6222 15.872 15.3058 15.616 15.0507C15.36 14.7956 15.0436 14.6676 14.6667 14.6667C14.2898 14.6658 13.9733 14.7938 13.7173 15.0507C13.4613 15.3076 13.3333 15.624 13.3333 16C13.3333 16.376 13.4613 16.6929 13.7173 16.9507C13.9733 17.2084 14.2898 17.336 14.6667 17.3333C15.0436 17.3307 15.3604 17.2027 15.6173 16.9493C15.8742 16.696 16.0018 16.3796 16 16Z" fill="#121212"/>
</svg>
