<svg width="32" height="32" viewBox="0 0 32 32" fill="none" xmlns="http://www.w3.org/2000/svg">
<path d="M18.369 14.1151C18.1596 13.8993 17.8755 13.778 17.5794 13.778C17.2832 13.778 16.9991 13.8993 16.7897 14.1151L16 14.9279C15.5787 15.3474 15.0144 15.5794 14.4287 15.5742C13.843 15.5689 13.2827 15.3268 12.8685 14.8999C12.4543 14.4729 12.2194 13.8954 12.2143 13.2917C12.2092 12.6879 12.4344 12.1063 12.8413 11.672L19.1297 5.18788C20.6185 4.83883 22.1761 4.98248 23.5812 5.5984C24.9862 6.21433 26.1671 7.27116 26.956 8.61864C27.7448 9.96612 28.1014 11.5356 27.9751 13.1041C27.8488 14.6725 27.246 16.1599 26.2524 17.3549L23.8979 19.8129L18.369 14.1151ZM6.12734 7.19345C7.2828 6.00174 8.79459 5.2468 10.418 5.05081C12.0415 4.85483 13.6816 5.22927 15.0729 6.11353L11.2608 10.0441C10.4352 10.8934 9.96452 12.0419 9.94945 13.2442C9.93438 14.4465 10.3761 15.6071 11.1801 16.4782C11.9842 17.3492 13.0869 17.8616 14.2526 17.9058C15.4183 17.95 16.5545 17.5225 17.4185 16.7147L17.5794 16.557L22.3185 21.4408L17.5794 26.3258C17.1604 26.7575 16.5923 27 16 27C15.4077 27 14.8396 26.7575 14.4206 26.3258L6.12623 17.7762C4.76482 16.3728 4 14.4695 4 12.4848C4 10.5002 4.76594 8.59686 6.12734 7.19345Z" fill="#121212"/>
</svg>
