<svg width="32" height="32" viewBox="0 0 32 32" fill="none" xmlns="http://www.w3.org/2000/svg">
<path d="M24.2102 5.92H21.627L19.9935 4.2808C19.9048 4.19168 19.7995 4.12101 19.6836 4.07283C19.5678 4.02465 19.4436 3.9999 19.3182 4H11.6818C11.5564 3.9999 11.4322 4.02465 11.3164 4.07283C11.2005 4.12101 11.0952 4.19168 11.0065 4.2808L9.37301 5.92H6.78977C6.3151 5.92 5.85986 6.10964 5.52421 6.44721C5.18856 6.78477 5 7.24261 5 7.72V26.2C5 26.6774 5.18856 27.1352 5.52421 27.4728C5.85986 27.8104 6.3151 28 6.78977 28H14.0682C14.1948 28 14.3162 27.9494 14.4057 27.8594C14.4952 27.7694 14.5455 27.6473 14.5455 27.52V13.6324C14.5418 13.3843 14.6317 13.1441 14.7971 12.9599C14.9624 12.7758 15.191 12.6615 15.4368 12.64C15.5673 12.6313 15.6983 12.6497 15.8215 12.694C15.9447 12.7383 16.0575 12.8076 16.153 12.8977C16.2484 12.9877 16.3245 13.0965 16.3763 13.2173C16.4282 13.3381 16.4548 13.4684 16.4545 13.6V27.52C16.4545 27.6473 16.5048 27.7694 16.5943 27.8594C16.6838 27.9494 16.8052 28 16.9318 28H24.2102C24.6849 28 25.1401 27.8104 25.4758 27.4728C25.8114 27.1352 26 26.6774 26 26.2V7.72C26 7.24261 25.8114 6.78477 25.4758 6.44721C25.1401 6.10964 24.6849 5.92 24.2102 5.92ZM10.5531 13.9696C10.4833 14.0273 10.3986 14.0639 10.309 14.0751C10.2194 14.0863 10.1284 14.0718 10.0466 14.033C9.96492 13.9943 9.89579 13.9331 9.8473 13.8564C9.79882 13.7798 9.77295 13.6909 9.77273 13.6V8.2372L11.5911 6.4084L14.3915 10.6336L10.5531 13.9696ZM21.2273 13.6C21.2275 13.6913 21.2018 13.7809 21.1532 13.858C21.1045 13.9352 21.0351 13.9968 20.9528 14.0356C20.8721 14.0748 20.7818 14.0898 20.6928 14.079C20.6037 14.0681 20.5197 14.0318 20.4505 13.9744L16.6085 10.636L19.4089 6.4108L21.2273 8.2372V13.6Z" fill="#121212"/>
</svg>
