<svg width="32" height="32" viewBox="0 0 32 32" fill="none" xmlns="http://www.w3.org/2000/svg">
<path d="M26.9091 8.36364H22.6342V5.09091C22.6342 4.49091 22.1409 4 21.538 4C20.9352 4 20.4419 4.49091 20.4419 5.09091V8.36364H16.167C15.5203 8.36364 15.0161 8.92 15.0709 9.56364L15.2024 10.8836C19.2362 11.8109 22.6342 14.6582 22.6342 19.2727L22.6561 28H24.5195C25.4402 28 26.1966 27.2909 26.3062 26.3964L27.9942 9.56364C28.06 8.92 27.5558 8.36364 26.9091 8.36364ZM19.3458 25.8182H5.09613C4.49326 25.8182 4 26.3091 4 26.9091C4 27.5091 4.49326 28 5.09613 28H19.3458C19.9487 28 20.4419 27.5091 20.4419 26.9091C20.4419 26.3091 19.9487 25.8182 19.3458 25.8182ZM5.20574 19.2727H19.2362C19.9158 19.2727 20.4529 18.6618 20.3213 18.0073C19.6089 14.4836 15.9149 12.7164 12.221 12.7164C8.52701 12.7164 4.84402 14.4836 4.12057 18.0073C3.98904 18.6618 4.5371 19.2727 5.20574 19.2727ZM19.3458 21.4545H5.09613C4.49326 21.4545 4 21.9455 4 22.5455C4 23.1455 4.49326 23.6364 5.09613 23.6364H19.3458C19.9487 23.6364 20.4419 23.1455 20.4419 22.5455C20.4419 21.9455 19.9487 21.4545 19.3458 21.4545Z" fill="#121212"/>
</svg>
