<svg width="32" height="32" viewBox="0 0 32 32" fill="none" xmlns="http://www.w3.org/2000/svg">
<path fill-rule="evenodd" clip-rule="evenodd" d="M10 4C8.4087 4 6.88258 4.63214 5.75736 5.75736C4.63214 6.88258 4 8.4087 4 10V22C4 23.5913 4.63214 25.1174 5.75736 26.2426C6.88258 27.3679 8.4087 28 10 28H22C23.5913 28 25.1174 27.3679 26.2426 26.2426C27.3679 25.1174 28 23.5913 28 22V10C28 8.4087 27.3679 6.88258 26.2426 5.75736C25.1174 4.63214 23.5913 4 22 4H10ZM20.476 14.4208C20.5838 14.3058 20.6679 14.1706 20.7234 14.0231C20.779 13.8756 20.8049 13.7185 20.7998 13.561C20.7947 13.4034 20.7586 13.2484 20.6936 13.1048C20.6285 12.9612 20.5358 12.8318 20.4208 12.724C20.3058 12.6162 20.1706 12.5321 20.0231 12.4766C19.8756 12.421 19.7185 12.3951 19.561 12.4002C19.4034 12.4053 19.2484 12.4414 19.1048 12.5064C18.9612 12.5715 18.8318 12.6642 18.724 12.7792L15.0244 16.7272L13.1968 15.1036C12.9574 14.9045 12.6499 14.8064 12.3394 14.8298C12.0289 14.8532 11.7397 14.9964 11.5328 15.2291C11.3259 15.4619 11.2176 15.7659 11.2307 16.077C11.2439 16.3881 11.3774 16.6819 11.6032 16.8964L14.3032 19.2964C14.5368 19.5039 14.8422 19.6121 15.1544 19.598C15.4665 19.5839 15.7609 19.4486 15.9748 19.2208L20.476 14.4208Z" fill="#121212"/>
</svg>
