<svg width="32" height="32" viewBox="0 0 32 32" fill="none" xmlns="http://www.w3.org/2000/svg">
<path d="M16.0284 4.0204C17.3483 4 18.6573 4.0096 19.9663 4C20.0473 5.53003 20.6008 7.09005 21.7298 8.17007C22.8574 9.28009 24.4493 9.7901 26 9.9605V13.9902C24.5496 13.9398 23.0895 13.6398 21.7696 13.0206C21.1955 12.7601 20.6613 12.4301 20.1379 12.0905C20.1283 15.0102 20.1476 17.9298 20.1174 20.8399C20.0407 22.2529 19.57 23.6169 18.7576 24.7796C17.439 26.6996 15.1521 27.95 12.8061 27.9896C11.3654 28.07 9.92461 27.68 8.6966 26.96C6.66119 25.7696 5.23133 23.5903 5.01981 21.2503C4.99716 20.7538 4.99393 20.2566 5.01014 19.7599C5.19144 17.8602 6.13783 16.0398 7.60879 14.8002C9.28039 13.3602 11.6168 12.6701 13.8033 13.0806C13.8226 14.5602 13.7622 16.0398 13.7622 17.5206C12.765 17.2002 11.5974 17.2902 10.7211 17.8902C10.0844 18.3095 9.60309 18.9239 9.35049 19.6399C9.13897 20.1499 9.19941 20.7103 9.21029 21.2503C9.45202 22.8895 11.0426 24.2695 12.7348 24.1207C13.8637 24.1099 14.9406 23.4607 15.5256 22.5103C15.7166 22.1803 15.9281 21.8395 15.9378 21.4495C16.0393 19.6603 15.9982 17.8794 16.0091 16.0902C16.0188 12.0605 15.9982 8.04047 16.0284 4.0204Z" fill="#121212"/>
</svg>
