<svg width="32" height="32" viewBox="0 0 32 32" fill="none" xmlns="http://www.w3.org/2000/svg">
<path d="M21.4545 7C25.1636 7 28 11.0951 28 16.0002V21.6253C28 21.9237 27.8851 22.2099 27.6805 22.4209C27.4759 22.6318 27.1984 22.7504 26.9091 22.7504H25.6316C25.4058 23.4083 24.9878 23.9779 24.4351 24.3808C23.8824 24.7837 23.2223 25 22.5455 25C21.8687 25 21.2085 24.7837 20.6558 24.3808C20.1031 23.9779 19.6851 23.4083 19.4593 22.7504H12.5407C12.3149 23.4083 11.8969 23.9779 11.3442 24.3808C10.7915 24.7837 10.1313 25 9.45455 25C8.77774 25 8.11758 24.7837 7.5649 24.3808C7.01222 23.9779 6.5942 23.4083 6.36836 22.7504H5.09091C4.80158 22.7504 4.5241 22.6318 4.31952 22.4209C4.11493 22.2099 4 21.9237 4 21.6253V9.25005C4 8.6533 4.22987 8.08099 4.63904 7.65903C5.04821 7.23706 5.60316 7 6.18182 7H21.4545ZM9.45455 20.5003C9.16522 20.5003 8.88774 20.6188 8.68316 20.8298C8.47857 21.0408 8.36364 21.327 8.36364 21.6253C8.36364 21.9237 8.47857 22.2099 8.68316 22.4209C8.88774 22.6318 9.16522 22.7504 9.45455 22.7504C9.74387 22.7504 10.0213 22.6318 10.2259 22.4209C10.4305 22.2099 10.5455 21.9237 10.5455 21.6253C10.5455 21.327 10.4305 21.0408 10.2259 20.8298C10.0213 20.6188 9.74387 20.5003 9.45455 20.5003ZM22.5455 20.5003C22.2561 20.5003 21.9787 20.6188 21.7741 20.8298C21.5695 21.0408 21.4545 21.327 21.4545 21.6253C21.4545 21.9237 21.5695 22.2099 21.7741 22.4209C21.9787 22.6318 22.2561 22.7504 22.5455 22.7504C22.8348 22.7504 23.1123 22.6318 23.3168 22.4209C23.5214 22.2099 23.6364 21.9237 23.6364 21.6253C23.6364 21.327 23.5214 21.0408 23.3168 20.8298C23.1123 20.6188 22.8348 20.5003 22.5455 20.5003ZM21.7164 9.26243L22.8815 14.8752H25.7571C25.4156 11.7746 23.6898 9.45256 21.7164 9.26243ZM9.45455 9.25005H6.18182V12.6251H9.45455V9.25005ZM14.9091 9.25005H11.6364V12.6251H14.9091V9.25005ZM19.4811 9.25005H17.0909V12.6251H20.1825L19.4811 9.25005Z" fill="#121212"/>
</svg>
