<svg width="32" height="32" viewBox="0 0 32 32" fill="none" xmlns="http://www.w3.org/2000/svg">
<path d="M16.0006 16C17.5463 16 19.0286 15.3679 20.1216 14.2426C21.2145 13.1174 21.8285 11.5913 21.8285 10C21.8285 8.4087 21.2145 6.88258 20.1216 5.75736C19.0286 4.63214 17.5463 4 16.0006 4C14.455 4 12.9726 4.63214 11.8797 5.75736C10.7867 6.88258 10.1727 8.4087 10.1727 10C10.1727 11.5913 10.7867 13.1174 11.8797 14.2426C12.9726 15.3679 14.455 16 16.0006 16ZM25.199 28C26.3996 28 27.3223 26.878 26.893 25.722C26.0508 23.4501 24.5583 21.4952 22.6131 20.1159C20.6678 18.7367 18.3616 17.9982 15.9997 17.9982C13.6377 17.9982 11.3315 18.7367 9.38624 20.1159C7.441 21.4952 5.9485 23.4501 5.10633 25.722C4.67895 26.878 5.59975 28 6.8003 28H25.199Z" fill="#121212"/>
</svg>
