<svg width="32" height="32" viewBox="0 0 32 32" fill="none" xmlns="http://www.w3.org/2000/svg">
<path d="M25.4667 29.2L20.8 24.6C20.0222 24.8444 19.2333 25.028 18.4333 25.1507C17.6333 25.2733 16.8222 25.3342 16 25.3333C13.0222 25.3333 10.3 24.5333 7.83333 22.9333C5.36667 21.3333 3.43333 19.2222 2.03333 16.6C1.92222 16.4 1.83911 16.1947 1.784 15.984C1.72889 15.7733 1.70089 15.5564 1.7 15.3333C1.69911 15.1102 1.72711 14.8933 1.784 14.6827C1.84089 14.472 1.924 14.2667 2.03333 14.0667C2.52222 13.2 3.04444 12.3556 3.6 11.5333C4.15556 10.7111 4.8 9.97778 5.53333 9.33334L2.76667 6.53334C2.52222 6.28889 2.4 5.98356 2.4 5.61734C2.4 5.25111 2.53333 4.93423 2.8 4.66667C3.04444 4.42223 3.35556 4.3 3.73333 4.3C4.11111 4.3 4.42222 4.42223 4.66667 4.66667L27.3333 27.3333C27.5778 27.5778 27.7058 27.8836 27.7173 28.2507C27.7289 28.6178 27.6009 28.9342 27.3333 29.2C27.0889 29.4444 26.7778 29.5667 26.4 29.5667C26.0222 29.5667 25.7111 29.4444 25.4667 29.2ZM16 21.3333C16.2444 21.3333 16.4778 21.3222 16.7 21.3C16.9222 21.2778 17.1444 21.2333 17.3667 21.1667L10.1667 13.9667C10.1 14.1889 10.0556 14.4111 10.0333 14.6333C10.0111 14.8556 10 15.0889 10 15.3333C10 17 10.5836 18.4169 11.7507 19.584C12.9178 20.7511 14.3342 21.3342 16 21.3333ZM16 5.33334C18.9778 5.33334 21.7058 6.13911 24.184 7.75067C26.6622 9.36223 28.6009 11.4787 30 14.1C30.1111 14.2778 30.1947 14.4724 30.2507 14.684C30.3067 14.8956 30.3342 15.112 30.3333 15.3333C30.3324 15.5547 30.3102 15.7716 30.2667 15.984C30.2231 16.1964 30.1453 16.3907 30.0333 16.5667C29.6111 17.3889 29.1391 18.1667 28.6173 18.9C28.0956 19.6333 27.512 20.3222 26.8667 20.9667C26.5556 21.2778 26.1889 21.4222 25.7667 21.4C25.3444 21.3778 24.9778 21.2111 24.6667 20.9L22 18.2333C21.8444 18.0778 21.7444 17.8942 21.7 17.6827C21.6556 17.4711 21.6667 17.2547 21.7333 17.0333C21.8222 16.7444 21.8889 16.4667 21.9333 16.2C21.9778 15.9333 22 15.6444 22 15.3333C22 13.6667 21.4169 12.2502 20.2507 11.084C19.0844 9.91778 17.6676 9.33423 16 9.33334C15.6889 9.33334 15.4 9.35556 15.1333 9.4C14.8667 9.44445 14.5889 9.51111 14.3 9.6C14.0778 9.66667 13.8556 9.67778 13.6333 9.63334C13.4111 9.58889 13.2222 9.48889 13.0667 9.33334L11.9667 8.23334C11.5444 7.81111 11.4058 7.32223 11.5507 6.76667C11.6956 6.21111 12.0453 5.85556 12.6 5.7C13.1556 5.58889 13.7169 5.5 14.284 5.43334C14.8511 5.36667 15.4231 5.33334 16 5.33334ZM18.6333 12.8667C18.8778 13.1556 19.0831 13.4724 19.2493 13.8173C19.4156 14.1622 19.5213 14.5231 19.5667 14.9C19.5889 15.0778 19.5222 15.2 19.3667 15.2667C19.2111 15.3333 19.0667 15.3 18.9333 15.1667L16.2 12.4333C16.0667 12.3 16.0391 12.1556 16.1173 12C16.1956 11.8444 16.3231 11.7667 16.5 11.7667C16.9222 11.8111 17.3111 11.928 17.6667 12.1173C18.0222 12.3067 18.3444 12.5564 18.6333 12.8667Z" fill="#121212"/>
</svg>
