<svg width="32" height="32" viewBox="0 0 32 32" fill="none" xmlns="http://www.w3.org/2000/svg">
<path fill-rule="evenodd" clip-rule="evenodd" d="M16.0002 4C22.6275 4 28 9.37265 28 16C28 22.6273 22.6275 28 16.0002 28C13.924 28 11.9706 27.472 10.266 26.5433L4.97499 27.4307C4.84457 27.4525 4.71086 27.443 4.5848 27.4032C4.45873 27.3633 4.3439 27.2942 4.24971 27.2014C4.15551 27.1086 4.08463 26.9948 4.04286 26.8694C4.0011 26.7439 3.98964 26.6104 4.00943 26.4796L4.90243 20.5745C4.3042 19.1237 3.99772 17.5693 4.0005 16C4.0005 9.37265 9.37304 4 16.0002 4ZM11.4716 10.0837C10.6511 10.0837 9.97135 10.7758 10.0986 11.6309C10.3397 13.2339 11.0519 16.1875 13.1705 18.3219C15.3852 20.5533 18.5542 21.5077 20.2699 21.8839C21.1585 22.0793 21.9164 21.376 21.9164 20.5087V18.4726C21.9164 18.4049 21.896 18.3388 21.8577 18.283C21.8195 18.2273 21.7652 18.1844 21.7021 18.16L19.5142 17.3194C19.4552 17.2968 19.3909 17.2914 19.3289 17.3038L17.1221 17.7347C15.6989 16.998 14.8371 16.1719 14.3203 14.9273L14.7355 12.678C14.7466 12.6181 14.7412 12.5564 14.7199 12.4993L13.8995 10.3014C13.8756 10.2377 13.833 10.1827 13.7771 10.1438C13.7213 10.1049 13.6549 10.084 13.5869 10.0837H11.4716Z" fill="#121212"/>
</svg>
