<svg width="32" height="32" viewBox="0 0 32 32" fill="none" xmlns="http://www.w3.org/2000/svg">
<path d="M24.9238 16C24.9238 16.2631 24.8744 16.5183 24.7758 16.7656C24.6771 17.0129 24.5456 17.2181 24.3812 17.3812L15.3049 26.4574C14.9432 26.8191 14.4828 27 13.9238 27C13.3647 27 12.9043 26.8191 12.5426 26.4574C12.1809 26.0957 12 25.6353 12 25.0762C12 24.5172 12.1809 24.0568 12.5426 23.6951L20.2377 16L12.5426 8.30493C12.1809 7.9432 12 7.48281 12 6.92377C12 6.36472 12.1809 5.90434 12.5426 5.5426C12.9043 5.18087 13.3647 5 13.9238 5C14.4828 5 14.9432 5.18087 15.3049 5.5426L24.3812 14.6188C24.5785 14.8161 24.7186 15.0299 24.8014 15.2601C24.8843 15.4903 24.9251 15.7369 24.9238 16Z" fill="#121212"/>
</svg>
