<svg width="32" height="32" viewBox="0 0 32 32" fill="none" xmlns="http://www.w3.org/2000/svg">
<path d="M7.07623 16C7.07623 15.7369 7.12556 15.4817 7.22422 15.2344C7.32287 14.9871 7.45441 14.7819 7.61883 14.6188L16.6951 5.5426C17.0568 5.18087 17.5172 5 18.0762 5C18.6353 5 19.0957 5.18087 19.4574 5.5426C19.8191 5.90433 20 6.36472 20 6.92377C20 7.48281 19.8191 7.9432 19.4574 8.30493L11.7623 16L19.4574 23.6951C19.8191 24.0568 20 24.5172 20 25.0762C20 25.6353 19.8191 26.0957 19.4574 26.4574C19.0957 26.8191 18.6353 27 18.0762 27C17.5172 27 17.0568 26.8191 16.6951 26.4574L7.61883 17.3812C7.42153 17.1839 7.28144 16.9701 7.19856 16.7399C7.11569 16.5097 7.07492 16.2631 7.07623 16Z" fill="#121212"/>
</svg>
