<svg width="32" height="32" viewBox="0 0 32 32" fill="none" xmlns="http://www.w3.org/2000/svg">
<path d="M13.9238 16C13.9238 15.7369 13.9732 15.4817 14.0718 15.2344C14.1705 14.9871 14.302 14.7819 14.4664 14.6188L23.5427 5.5426C23.9044 5.18087 24.3648 5 24.9238 5C25.4829 5 25.9433 5.18087 26.305 5.5426C26.6667 5.90433 26.8476 6.36472 26.8476 6.92377C26.8476 7.48281 26.6667 7.9432 26.305 8.30493L18.6099 16L26.305 23.6951C26.6667 24.0568 26.8476 24.5172 26.8476 25.0762C26.8476 25.6353 26.6667 26.0957 26.305 26.4574C25.9433 26.8191 25.4829 27 24.9238 27C24.3648 27 23.9044 26.8191 23.5427 26.4574L14.4664 17.3812C14.2691 17.1839 14.129 16.9701 14.0462 16.7399C13.9633 16.5097 13.9225 16.2631 13.9238 16Z" fill="#121212"/>
<path d="M5.00003 16C5.00003 15.7369 5.04936 15.4817 5.14801 15.2344C5.24667 14.9871 5.37821 14.7819 5.54263 14.6188L14.6189 5.5426C14.9806 5.18087 15.441 5 16 5C16.5591 5 17.0195 5.18087 17.3812 5.5426C17.7429 5.90433 17.9238 6.36472 17.9238 6.92377C17.9238 7.48281 17.7429 7.9432 17.3812 8.30493L9.68613 16L17.3812 23.6951C17.7429 24.0568 17.9238 24.5172 17.9238 25.0762C17.9238 25.6353 17.7429 26.0957 17.3812 26.4574C17.0195 26.8191 16.5591 27 16 27C15.441 27 14.9806 26.8191 14.6189 26.4574L5.54263 17.3812C5.34532 17.1839 5.20523 16.9701 5.12236 16.7399C5.03949 16.5097 4.99872 16.2631 5.00003 16Z" fill="#121212"/>
</svg>
