<svg width="32" height="32" viewBox="0 0 32 32" fill="none" xmlns="http://www.w3.org/2000/svg">
<path d="M17.9238 16C17.9238 15.7369 17.8744 15.4817 17.7758 15.2344C17.6771 14.9871 17.5456 14.7819 17.3812 14.6188L8.30493 5.5426C7.9432 5.18087 7.48281 5 6.92377 5C6.36472 5 5.90433 5.18087 5.5426 5.5426C5.18087 5.90433 5 6.36472 5 6.92377C5 7.48281 5.18087 7.9432 5.5426 8.30493L13.2377 16L5.5426 23.6951C5.18087 24.0568 5 24.5172 5 25.0762C5 25.6353 5.18087 26.0957 5.5426 26.4574C5.90433 26.8191 6.36472 27 6.92377 27C7.48281 27 7.9432 26.8191 8.30493 26.4574L17.3812 17.3812C17.5785 17.1839 17.7186 16.9701 17.8014 16.7399C17.8843 16.5097 17.9251 16.2631 17.9238 16Z" fill="#121212"/>
<path d="M26.8476 16C26.8476 15.7369 26.7982 15.4817 26.6996 15.2344C26.6009 14.9871 26.4694 14.7819 26.305 14.6188L17.2287 5.5426C16.867 5.18087 16.4066 5 15.8476 5C15.2885 5 14.8281 5.18087 14.4664 5.5426C14.1047 5.90433 13.9238 6.36472 13.9238 6.92377C13.9238 7.48281 14.1047 7.9432 14.4664 8.30493L22.1615 16L14.4664 23.6951C14.1047 24.0568 13.9238 24.5172 13.9238 25.0762C13.9238 25.6353 14.1047 26.0957 14.4664 26.4574C14.8281 26.8191 15.2885 27 15.8476 27C16.4066 27 16.867 26.8191 17.2287 26.4574L26.305 17.3812C26.5023 17.1839 26.6424 16.9701 26.7252 16.7399C26.8081 16.5097 26.8489 16.2631 26.8476 16Z" fill="#121212"/>
</svg>
