<svg width="32" height="32" viewBox="0 0 32 32" fill="none" xmlns="http://www.w3.org/2000/svg">
<path d="M16 22.9238C15.7369 22.9238 15.4817 22.8744 15.2344 22.7758C14.9871 22.6771 14.7819 22.5456 14.6188 22.3812L5.5426 13.3049C5.18087 12.9432 5 12.4828 5 11.9238C5 11.3647 5.18087 10.9043 5.5426 10.5426C5.90433 10.1809 6.36472 10 6.92377 10C7.48281 10 7.9432 10.1809 8.30493 10.5426L16 18.2377L23.6951 10.5426C24.0568 10.1809 24.5172 10 25.0762 10C25.6353 10 26.0957 10.1809 26.4574 10.5426C26.8191 10.9043 27 11.3647 27 11.9238C27 12.4828 26.8191 12.9432 26.4574 13.3049L17.3812 22.3812C17.1839 22.5785 16.9701 22.7186 16.7399 22.8014C16.5097 22.8843 16.2631 22.9251 16 22.9238Z" fill="#121212"/>
</svg>
