<svg width="32" height="32" viewBox="0 0 32 32" fill="none" xmlns="http://www.w3.org/2000/svg">
<path d="M4 21.8333C4 21.6123 4.09031 21.4004 4.25105 21.2441C4.4118 21.0878 4.62981 21 4.85714 21H5.71429V19.3333C5.71741 16.8264 6.68775 14.4118 8.43353 12.5667C10.1793 10.7217 12.5735 9.58053 15.1429 9.36875V7.66667H13.4286C13.2012 7.66667 12.9832 7.57887 12.8225 7.42259C12.6617 7.26631 12.5714 7.05435 12.5714 6.83333C12.5714 6.61232 12.6617 6.40036 12.8225 6.24408C12.9832 6.0878 13.2012 6 13.4286 6H18.5714C18.7988 6 19.0168 6.0878 19.1775 6.24408C19.3383 6.40036 19.4286 6.61232 19.4286 6.83333C19.4286 7.05435 19.3383 7.26631 19.1775 7.42259C19.0168 7.57887 18.7988 7.66667 18.5714 7.66667H16.8571V9.36875C19.4265 9.58053 21.8207 10.7217 23.5665 12.5667C25.3123 14.4118 26.2826 16.8264 26.2857 19.3333V21H27.1429C27.3702 21 27.5882 21.0878 27.7489 21.2441C27.9097 21.4004 28 21.6123 28 21.8333C28 22.0543 27.9097 22.2663 27.7489 22.4226C27.5882 22.5789 27.3702 22.6667 27.1429 22.6667H4.85714C4.62981 22.6667 4.4118 22.5789 4.25105 22.4226C4.09031 22.2663 4 22.0543 4 21.8333ZM27.1429 24.3333H4.85714C4.62981 24.3333 4.4118 24.4211 4.25105 24.5774C4.09031 24.7337 4 24.9457 4 25.1667C4 25.3877 4.09031 25.5996 4.25105 25.7559C4.4118 25.9122 4.62981 26 4.85714 26H27.1429C27.3702 26 27.5882 25.9122 27.7489 25.7559C27.9097 25.5996 28 25.3877 28 25.1667C28 24.9457 27.9097 24.7337 27.7489 24.5774C27.5882 24.4211 27.3702 24.3333 27.1429 24.3333Z" fill="#121212"/>
</svg>
