<svg width="32" height="32" viewBox="0 0 32 32" fill="none" xmlns="http://www.w3.org/2000/svg">
<path d="M25.6 4H10C6.6916 4 4 6.6916 4 10V22C4 25.3084 6.6916 28 10 28H24.4C26.3848 28 28 26.3848 28 24.4C28 22.4152 26.3848 20.8 24.4 20.8H8.8V23.2H24.4C24.7183 23.2 25.0235 23.3264 25.2485 23.5515C25.4736 23.7765 25.6 24.0817 25.6 24.4C25.6 24.7183 25.4736 25.0235 25.2485 25.2485C25.0235 25.4736 24.7183 25.6 24.4 25.6H10C8.0152 25.6 6.4 23.9848 6.4 22C6.4 20.0152 8.0152 18.4 10 18.4H25.6C26.9236 18.4 28 17.3236 28 16V6.4C28 5.0764 26.9236 4 25.6 4ZM6.4 17.2H6.4036L6.4 17.2024V17.2Z" fill="#121212"/>
</svg>
