<svg width="32" height="32" viewBox="0 0 32 32" fill="none" xmlns="http://www.w3.org/2000/svg">
<path d="M9.88889 4C8.59227 4 7.34877 4.50571 6.43192 5.40589C5.51508 6.30606 5 7.52696 5 8.8V23.2C5 24.473 5.51508 25.6939 6.43192 26.5941C7.34877 27.4943 8.59227 28 9.88889 28H27V4H9.88889ZM22.1111 13.3L19.0556 10.8256L16 13.3V6.4H22.1111V13.3ZM7.44444 23.2C7.44444 22.5635 7.70198 21.953 8.16041 21.5029C8.61883 21.0529 9.24058 20.8 9.88889 20.8H24.5556V25.6H9.88889C9.24058 25.6 8.61883 25.3471 8.16041 24.8971C7.70198 24.447 7.44444 23.8365 7.44444 23.2Z" fill="#121212"/>
</svg>
