<svg width="32" height="32" viewBox="0 0 32 32" fill="none" xmlns="http://www.w3.org/2000/svg">
<path d="M19.5 7C19.6326 7 19.7598 6.94732 19.8536 6.85355C19.9473 6.75979 20 6.63261 20 6.5V5C20 4.73478 19.8946 4.48043 19.7071 4.29289C19.5196 4.10536 19.2652 4 19 4H13C12.7348 4 12.4804 4.10536 12.2929 4.29289C12.1054 4.48043 12 4.73478 12 5V6.5C12 6.63261 12.0527 6.75979 12.1464 6.85355C12.2402 6.94732 12.3674 7 12.5 7H19.5ZM20.69 10.15C20.4602 9.72274 20.2565 9.28193 20.08 8.83C20.0445 8.73174 19.9791 8.64707 19.893 8.58788C19.8069 8.5287 19.7045 8.49796 19.6 8.5H12.4C12.2955 8.49796 12.1931 8.5287 12.107 8.58788C12.0209 8.64707 11.9555 8.73174 11.92 8.83C11.7435 9.28193 11.5398 9.72274 11.31 10.15C10.5947 11.321 10.1473 12.6357 10 14V25.5C10 25.8283 10.0647 26.1534 10.1903 26.4567C10.3159 26.76 10.5001 27.0356 10.7322 27.2678C10.9644 27.4999 11.24 27.6841 11.5433 27.8097C11.8466 27.9353 12.1717 28 12.5 28H19.5C19.8283 28 20.1534 27.9353 20.4567 27.8097C20.76 27.6841 21.0356 27.4999 21.2678 27.2678C21.4999 27.0356 21.6841 26.76 21.8097 26.4567C21.9353 26.1534 22 25.8283 22 25.5V14C21.8527 12.6357 21.4053 11.321 20.69 10.15Z" fill="#121212"/>
</svg>
