<svg width="32" height="32" viewBox="0 0 32 32" fill="none" xmlns="http://www.w3.org/2000/svg">
<path d="M4 22.1364C4 22.8958 4.31607 23.6242 4.87868 24.1613C5.44129 24.6983 6.20435 25 7 25H25C25.7957 25 26.5587 24.6983 27.1213 24.1613C27.6839 23.6242 28 22.8958 28 22.1364V14.2614H4V22.1364ZM7.53571 18.25C7.53571 17.8431 7.70504 17.4529 8.00644 17.1652C8.30783 16.8775 8.71662 16.7159 9.14286 16.7159H11.7143C12.1405 16.7159 12.5493 16.8775 12.8507 17.1652C13.1521 17.4529 13.3214 17.8431 13.3214 18.25V19.2727C13.3214 19.6796 13.1521 20.0698 12.8507 20.3575C12.5493 20.6452 12.1405 20.8068 11.7143 20.8068H9.14286C8.71662 20.8068 8.30783 20.6452 8.00644 20.3575C7.70504 20.0698 7.53571 19.6796 7.53571 19.2727V18.25ZM25 7H7C6.20435 7 5.44129 7.3017 4.87868 7.83874C4.31607 8.37578 4 9.10415 4 9.86364V11.1932H28V9.86364C28 9.10415 27.6839 8.37578 27.1213 7.83874C26.5587 7.3017 25.7957 7 25 7Z" fill="#121212"/>
</svg>
