<svg width="32" height="32" viewBox="0 0 32 32" fill="none" xmlns="http://www.w3.org/2000/svg">
<path d="M11.2067 28C10.5461 28 9.98073 27.7652 9.51069 27.2956C9.04066 26.826 8.80524 26.2608 8.80444 25.6C8.80364 24.9392 9.03906 24.3744 9.51069 23.9056C9.98233 23.4368 10.5477 23.2016 11.2067 23.2C11.8657 23.1984 12.4314 23.4336 12.9038 23.9056C13.3763 24.3776 13.6113 24.9424 13.6089 25.6C13.6065 26.2576 13.3715 26.8228 12.9038 27.2956C12.4362 27.7684 11.8705 28.0032 11.2067 28ZM23.2178 28C22.5571 28 21.9918 27.7652 21.5218 27.2956C21.0518 26.826 20.8163 26.2608 20.8155 25.6C20.8147 24.9392 21.0502 24.3744 21.5218 23.9056C21.9934 23.4368 22.5587 23.2016 23.2178 23.2C23.8768 23.1984 24.4425 23.4336 24.9149 23.9056C25.3874 24.3776 25.6224 24.9424 25.62 25.6C25.6176 26.2576 25.3826 26.8228 24.9149 27.2956C24.4473 27.7684 23.8816 28.0032 23.2178 28ZM9.04466 6.4H26.761C27.2215 6.4 27.5718 6.6052 27.812 7.0156C28.0522 7.426 28.0622 7.8408 27.842 8.25999L23.5781 15.94C23.3579 16.34 23.0628 16.65 22.6929 16.87C22.3229 17.09 21.9174 17.2 21.4761 17.2H12.5279L11.2067 19.6H24.4189C24.7592 19.6 25.0446 19.7152 25.2753 19.9456C25.5059 20.176 25.6208 20.4608 25.62 20.8C25.6192 21.1392 25.5039 21.4244 25.2741 21.6556C25.0442 21.8868 24.7592 22.0016 24.4189 22H11.2067C10.3058 22 9.6252 21.6052 9.16478 20.8156C8.70435 20.026 8.68433 19.2408 9.10472 18.46L10.7262 15.52L6.40222 6.4H5.20111C4.8608 6.4 4.57574 6.2848 4.34592 6.0544C4.11611 5.824 4.0008 5.5392 4 5.2C3.9992 4.8608 4.11451 4.576 4.34592 4.3456C4.57734 4.1152 4.8624 4 5.20111 4H7.15292C7.37312 4 7.58331 4.06 7.7835 4.18C7.98368 4.3 8.13382 4.47 8.23392 4.69L9.04466 6.4Z" fill="#121212"/>
</svg>
