<svg width="32" height="32" viewBox="0 0 32 32" fill="none" xmlns="http://www.w3.org/2000/svg">
<path fill-rule="evenodd" clip-rule="evenodd" d="M23.6366 5C24.8414 5.00014 25.8177 5.98039 25.8179 7.18994V25.8093H26.9093L27.0204 25.8149C27.5705 25.8709 27.9999 26.3372 28 26.9042C28 27.4714 27.5706 27.9376 27.0204 27.9936L26.9093 27.9992H23.6526C23.6472 27.9992 23.6419 28 23.6366 28H12.7268C12.7215 28 12.7162 27.9992 12.7109 27.9992H10.5615C10.5562 27.9992 10.5509 28 10.5455 28H8.36342C8.35817 28 8.35267 27.9992 8.34744 27.9992H5.09065C4.48816 27.9992 4 27.5091 4 26.9042C4.00015 26.2995 4.48825 25.8093 5.09065 25.8093H6.18211V19.2378C6.18225 18.0283 7.15863 17.048 8.36342 17.0479H10.5455V7.18994C10.5457 5.98039 11.522 5.00014 12.7268 5H23.6366ZM8.36342 21.4286V23.6185H11.0905V21.4286H8.36342ZM19.2724 20.8807V23.0714H21.4545V20.8807H19.2724ZM19.2724 17.0471V19.2378H21.4545V17.0471H19.2724ZM14.9089 13.2143V15.4042H17.0911V13.2143H14.9089ZM19.2724 13.2143V15.4042H21.4545V13.2143H19.2724ZM14.9089 9.38069V11.5714H17.0911V9.38069H14.9089ZM19.2724 9.38069V11.5714H21.4545V9.38069H19.2724Z" fill="#121212"/>
</svg>
