<svg width="32" height="32" viewBox="0 0 32 32" fill="none" xmlns="http://www.w3.org/2000/svg">
<path d="M22.0002 5.60787C23.8102 6.6529 25.3158 8.1525 26.3681 9.95823C27.4203 11.764 27.9827 13.8132 27.9996 15.9031C28.0165 17.993 27.4873 20.051 26.4643 21.8735C25.4413 23.696 23.9601 25.2197 22.1673 26.2939C20.3745 27.368 18.3322 27.9553 16.2427 27.9975C14.1531 28.0398 12.0888 27.5357 10.2539 26.535C8.41913 25.5343 6.87748 24.0717 5.78162 22.2921C4.68576 20.5125 4.07369 18.4775 4.006 16.3887L4 15.9999L4.006 15.6111C4.0732 13.5387 4.67627 11.519 5.75639 9.74906C6.83651 7.9791 8.35684 6.51921 10.1691 5.51173C11.9815 4.50425 14.0239 3.98355 16.0974 4.0004C18.1708 4.01725 20.2045 4.57107 22.0002 5.60787ZM16.0001 8.79987C15.7062 8.79991 15.4225 8.90782 15.2029 9.10313C14.9832 9.29844 14.8429 9.56757 14.8085 9.85947L14.8001 9.99987V15.9999L14.8109 16.1571C14.8383 16.3653 14.9198 16.5626 15.0473 16.7295L15.1517 16.8495L18.7518 20.4495L18.8646 20.5479C19.075 20.7111 19.3338 20.7998 19.6002 20.7998C19.8666 20.7998 20.1254 20.7111 20.3358 20.5479L20.4486 20.4483L20.5482 20.3355C20.7115 20.125 20.8001 19.8662 20.8001 19.5999C20.8001 19.3335 20.7115 19.0747 20.5482 18.8643L20.4486 18.7515L17.2002 15.5019V9.99987L17.1918 9.85947C17.1574 9.56757 17.017 9.29844 16.7974 9.10313C16.5778 8.90782 16.2941 8.79991 16.0001 8.79987Z" fill="#121212"/>
</svg>
