<svg width="32" height="32" viewBox="0 0 32 32" fill="none" xmlns="http://www.w3.org/2000/svg">
<path d="M16 4C22.6276 4 28 9.3724 28 16C28 22.6276 22.6276 28 16 28C9.3724 28 4 22.6276 4 16C4 9.3724 9.3724 4 16 4ZM16 6.4C13.4539 6.4 11.0121 7.41143 9.21178 9.21178C7.41143 11.0121 6.4 13.4539 6.4 16C6.4 18.5461 7.41143 20.9879 9.21178 22.7882C11.0121 24.5886 13.4539 25.6 16 25.6C18.5461 25.6 20.9879 24.5886 22.7882 22.7882C24.5886 20.9879 25.6 18.5461 25.6 16C25.6 13.4539 24.5886 11.0121 22.7882 9.21178C20.9879 7.41143 18.5461 6.4 16 6.4ZM16 10C16.8512 9.99988 17.6926 10.1809 18.4685 10.5309C19.2444 10.881 19.9369 11.3921 20.5 12.0304C20.7107 12.2691 20.8179 12.5817 20.7981 12.8995C20.7783 13.2172 20.6331 13.5141 20.3944 13.7248C20.1557 13.9355 19.8431 14.0427 19.5253 14.0229C19.2076 14.0031 18.9107 13.8579 18.7 13.6192C18.2164 13.0707 17.5772 12.6824 16.8675 12.5062C16.1577 12.3299 15.4112 12.3739 14.7271 12.6324C14.043 12.8909 13.4539 13.3516 13.0381 13.9532C12.6224 14.5548 12.3997 15.2687 12.3997 16C12.3997 16.7313 12.6224 17.4452 13.0381 18.0468C13.4539 18.6484 14.043 19.1091 14.7271 19.3676C15.4112 19.6261 16.1577 19.6701 16.8675 19.4938C17.5772 19.3176 18.2164 18.9293 18.7 18.3808C18.9107 18.1421 19.2076 17.9969 19.5253 17.9771C19.8431 17.9573 20.1557 18.0645 20.3944 18.2752C20.6331 18.4859 20.7783 18.7828 20.7981 19.1005C20.8179 19.4183 20.7107 19.7309 20.5 19.9696C19.8367 20.7213 18.9957 21.2949 18.0536 21.6379C17.1116 21.9809 16.0987 22.0824 15.1073 21.9331C14.116 21.7838 13.1778 21.3885 12.3786 20.7832C11.5794 20.178 10.9446 19.3822 10.5321 18.4684C10.1197 17.5547 9.94279 16.5521 10.0176 15.5524C10.0924 14.5527 10.4165 13.5876 10.9603 12.7454C11.5041 11.9032 12.2502 11.2107 13.1306 10.7311C14.011 10.2515 14.9975 10.0001 16 10Z" fill="#121212"/>
</svg>
