<svg width="32" height="32" viewBox="0 0 32 32" fill="none" xmlns="http://www.w3.org/2000/svg">
<path d="M18.4 11.2H6.4C5.0764 11.2 4 12.2764 4 13.6V25.6C4 26.9236 5.0764 28 6.4 28H18.4C19.7236 28 20.8 26.9236 20.8 25.6V13.6C20.8 12.2764 19.7236 11.2 18.4 11.2Z" fill="#121212"/>
<path d="M25.6 4H13.6C12.9635 4 12.353 4.25286 11.9029 4.70294C11.4529 5.15303 11.2 5.76348 11.2 6.4V8.8H20.8C21.4365 8.8 22.047 9.05286 22.4971 9.50294C22.9471 9.95303 23.2 10.5635 23.2 11.2V20.8H25.6C26.2365 20.8 26.847 20.5471 27.2971 20.0971C27.7471 19.647 28 19.0365 28 18.4V6.4C28 5.76348 27.7471 5.15303 27.2971 4.70294C26.847 4.25286 26.2365 4 25.6 4Z" fill="#121212"/>
</svg>
