<svg width="32" height="32" viewBox="0 0 32 32" fill="none" xmlns="http://www.w3.org/2000/svg">
<path fill-rule="evenodd" clip-rule="evenodd" d="M16.0137 19.2305L24.096 27.3036C24.5249 27.732 25.1066 27.9727 25.7131 27.9727C26.3196 27.9727 26.9013 27.732 27.3302 27.3036C27.7591 26.8752 28 26.2942 28 25.6884C28 25.0825 27.7591 24.5015 27.3302 24.0731L19.2448 16L27.3287 7.92686C27.5409 7.71474 27.7093 7.46294 27.8241 7.18584C27.9389 6.90874 27.998 6.61175 27.9979 6.31185C27.9979 6.01194 27.9387 5.71498 27.8237 5.43793C27.7087 5.16088 27.5403 4.90916 27.3279 4.69715C27.1155 4.48513 26.8635 4.31697 26.586 4.20227C26.3086 4.08756 26.0113 4.02856 25.711 4.02863C25.4108 4.0287 25.1135 4.08784 24.8361 4.20268C24.5588 4.31751 24.3068 4.48579 24.0945 4.69791L16.0137 12.771L7.93131 4.69791C7.72053 4.47971 7.46834 4.30562 7.18948 4.18582C6.91061 4.06601 6.61065 4.00287 6.3071 4.0001C6.00355 3.99732 5.70248 4.05496 5.42147 4.16964C5.14045 4.28433 4.88512 4.45377 4.67036 4.66808C4.45561 4.88239 4.28574 5.13727 4.17065 5.41785C4.05557 5.69844 3.99758 5.99911 4.00008 6.30232C4.00257 6.60553 4.06549 6.9052 4.18518 7.18386C4.30486 7.46252 4.4789 7.71458 4.69715 7.92534L12.7826 16L4.69868 24.0747C4.48043 24.2854 4.30638 24.5375 4.1867 24.8161C4.06702 25.0948 4.00409 25.3945 4.0016 25.6977C3.99911 26.0009 4.05709 26.3016 4.17218 26.5821C4.28726 26.8627 4.45713 27.1176 4.67189 27.3319C4.88664 27.5462 5.14198 27.7157 5.42299 27.8304C5.704 27.945 6.00507 28.0027 6.30862 27.9999C6.61218 27.9971 6.91214 27.934 7.191 27.8142C7.46986 27.6944 7.72205 27.5203 7.93284 27.3021L16.0137 19.2305Z" fill="#121212"/>
</svg>
