<svg width="32" height="32" viewBox="0 0 32 32" fill="none" xmlns="http://www.w3.org/2000/svg">
<path d="M13.4615 4H18.5385V10.0009C18.5385 10.6829 18.8059 11.3371 19.282 11.8194C19.758 12.3017 20.4037 12.5727 21.0769 12.5727H27V24.5675C27 25.477 26.6434 26.3491 26.0087 26.9922C25.3739 27.6353 24.513 27.9966 23.6154 27.9966H17.9732C19.7732 26.7159 21.0673 24.8308 21.6261 22.6756C22.185 20.5204 21.9725 18.2344 21.0263 16.2228C20.0801 14.2112 18.4613 12.6041 16.457 11.6864C14.4527 10.7688 12.1924 10.5998 10.0769 11.2096V7.42906C10.0769 6.51962 10.4335 5.64742 11.0683 5.00435C11.703 4.36128 12.5639 4 13.4615 4ZM21.0769 10.8581H26.9949L20.2443 4H20.2308V10.0009C20.2308 10.2282 20.3199 10.4463 20.4786 10.607C20.6373 10.7678 20.8525 10.8581 21.0769 10.8581ZM20.2308 20.2846C20.2308 22.3309 19.4284 24.2933 18.0003 25.7402C16.5721 27.1871 14.6351 28 12.6154 28C10.5957 28 8.65866 27.1871 7.23049 25.7402C5.80233 24.2933 5 22.3309 5 20.2846C5 18.2384 5.80233 16.2759 7.23049 14.829C8.65866 13.3821 10.5957 12.5692 12.6154 12.5692C14.6351 12.5692 16.5721 13.3821 18.0003 14.829C19.4284 16.2759 20.2308 18.2384 20.2308 20.2846ZM12.6154 15.9983C12.391 15.9983 12.1757 16.0886 12.0171 16.2494C11.8584 16.4101 11.7692 16.6282 11.7692 16.8556V20.2846C11.7692 20.512 11.8584 20.73 12.0171 20.8908C12.1757 21.0516 12.391 21.1419 12.6154 21.1419C12.8398 21.1419 13.055 21.0516 13.2137 20.8908C13.3724 20.73 13.4615 20.512 13.4615 20.2846V16.8556C13.4615 16.6282 13.3724 16.4101 13.2137 16.2494C13.055 16.0886 12.8398 15.9983 12.6154 15.9983ZM12.6154 24.7853C12.8959 24.7853 13.1649 24.6724 13.3633 24.4714C13.5616 24.2704 13.6731 23.9979 13.6731 23.7137C13.6731 23.4295 13.5616 23.1569 13.3633 22.9559C13.1649 22.755 12.8959 22.6421 12.6154 22.6421C12.3349 22.6421 12.0658 22.755 11.8675 22.9559C11.6691 23.1569 11.5577 23.4295 11.5577 23.7137C11.5577 23.9979 11.6691 24.2704 11.8675 24.4714C12.0658 24.6724 12.3349 24.7853 12.6154 24.7853Z" fill="#121212"/>
</svg>
