<svg width="32" height="32" viewBox="0 0 32 32" fill="none" xmlns="http://www.w3.org/2000/svg">
<path d="M21.7293 12.4706H19.5714V5.41176C19.5714 4.63529 18.9607 4 18.2143 4H12.7857C12.0393 4 11.4286 4.63529 11.4286 5.41176V12.4706H9.27071C8.06286 12.4706 7.45214 13.9953 8.30714 14.8847L14.5364 21.3647C15.0657 21.9153 15.9207 21.9153 16.45 21.3647L22.6793 14.8847C23.5343 13.9953 22.9371 12.4706 21.7293 12.4706ZM6 26.5882C6 27.3647 6.61071 28 7.35714 28H23.6429C24.3893 28 25 27.3647 25 26.5882C25 25.8118 24.3893 25.1765 23.6429 25.1765H7.35714C6.61071 25.1765 6 25.8118 6 26.5882Z" fill="#121212"/>
</svg>
