<svg width="32" height="32" viewBox="0 0 32 32" fill="none" xmlns="http://www.w3.org/2000/svg">
<path d="M15.4286 7.27273C15.4286 9.0802 13.9895 10.5455 12.2143 10.5455C10.4391 10.5455 9 9.0802 9 7.27273C9 5.46525 10.4391 4 12.2143 4C13.9895 4 15.4286 5.46525 15.4286 7.27273Z" fill="#121212"/>
<path d="M24 7.27273C24 9.0802 22.5609 10.5455 20.7857 10.5455C19.0105 10.5455 17.5714 9.0802 17.5714 7.27273C17.5714 5.46525 19.0105 4 20.7857 4C22.5609 4 24 5.46525 24 7.27273Z" fill="#121212"/>
<path d="M15.4286 16C15.4286 17.8075 13.9895 19.2727 12.2143 19.2727C10.4391 19.2727 9 17.8075 9 16C9 14.1925 10.4391 12.7273 12.2143 12.7273C13.9895 12.7273 15.4286 14.1925 15.4286 16Z" fill="#121212"/>
<path d="M24 16C24 17.8075 22.5609 19.2727 20.7857 19.2727C19.0105 19.2727 17.5714 17.8075 17.5714 16C17.5714 14.1925 19.0105 12.7273 20.7857 12.7273C22.5609 12.7273 24 14.1925 24 16Z" fill="#121212"/>
<path d="M15.4286 24.7273C15.4286 26.5347 13.9895 28 12.2143 28C10.4391 28 9 26.5347 9 24.7273C9 22.9198 10.4391 21.4545 12.2143 21.4545C13.9895 21.4545 15.4286 22.9198 15.4286 24.7273Z" fill="#121212"/>
<path d="M24 24.7273C24 26.5347 22.5609 28 20.7857 28C19.0105 28 17.5714 26.5347 17.5714 24.7273C17.5714 22.9198 19.0105 21.4545 20.7857 21.4545C22.5609 21.4545 24 22.9198 24 24.7273Z" fill="#121212"/>
</svg>
