<svg width="32" height="32" viewBox="0 0 32 32" fill="none" xmlns="http://www.w3.org/2000/svg">
<path d="M25.6 6H6.4C5.08 6 4.012 7.125 4.012 8.5L4 23.5C4 24.875 5.08 26 6.4 26H25.6C26.92 26 28 24.875 28 23.5V8.5C28 7.125 26.92 6 25.6 6ZM25.12 11.3125L16.636 16.8375C16.252 17.0875 15.748 17.0875 15.364 16.8375L6.88 11.3125C6.75967 11.2421 6.6543 11.1471 6.57027 11.0331C6.48623 10.9191 6.42527 10.7885 6.39109 10.6492C6.35691 10.51 6.3502 10.3649 6.37139 10.2229C6.39257 10.0808 6.4412 9.94477 6.51434 9.82288C6.58747 9.70099 6.68359 9.59582 6.79687 9.51374C6.91015 9.43167 7.03825 9.37439 7.17339 9.34537C7.30854 9.31636 7.44794 9.31621 7.58315 9.34494C7.71835 9.37366 7.84656 9.43067 7.96 9.5125L16 14.75L24.04 9.5125C24.1534 9.43067 24.2817 9.37366 24.4169 9.34494C24.5521 9.31621 24.6915 9.31636 24.8266 9.34537C24.9618 9.37439 25.0898 9.43167 25.2031 9.51374C25.3164 9.59582 25.4125 9.70099 25.4857 9.82288C25.5588 9.94477 25.6074 10.0808 25.6286 10.2229C25.6498 10.3649 25.6431 10.51 25.6089 10.6492C25.5747 10.7885 25.5138 10.9191 25.4297 11.0331C25.3457 11.1471 25.2403 11.2421 25.12 11.3125Z" fill="#121212"/>
</svg>
