<svg width="32" height="32" viewBox="0 0 32 32" fill="none" xmlns="http://www.w3.org/2000/svg">
<path d="M18.5263 22.2C19.0129 22.2002 19.4807 22.3882 19.8329 22.7249C20.1851 23.0616 20.3945 23.5213 20.4179 24.0087C20.4413 24.4961 20.2768 24.9738 19.9585 25.3429C19.6402 25.7119 19.1925 25.944 18.7082 25.9911L18.5263 26H13.4737C12.9871 25.9998 12.5192 25.8118 12.1671 25.4751C11.8149 25.1384 11.6055 24.6787 11.5821 24.1913C11.5587 23.7039 11.7232 23.2262 12.0415 22.8571C12.3598 22.4881 12.8075 22.2559 13.2918 22.2089L13.4737 22.2H18.5263ZM22.3158 14.6C22.8183 14.6 23.3002 14.8002 23.6556 15.1565C24.0109 15.5128 24.2105 15.9961 24.2105 16.5C24.2105 17.0039 24.0109 17.4872 23.6556 17.8435C23.3002 18.1998 22.8183 18.4 22.3158 18.4H9.68421C9.18169 18.4 8.69976 18.1998 8.34443 17.8435C7.98909 17.4872 7.78947 17.0039 7.78947 16.5C7.78947 15.9961 7.98909 15.5128 8.34443 15.1565C8.69976 14.8002 9.18169 14.6 9.68421 14.6H22.3158ZM26.1053 7C26.6078 7 27.0897 7.20018 27.445 7.5565C27.8004 7.91282 28 8.39609 28 8.9C28 9.40391 27.8004 9.88718 27.445 10.2435C27.0897 10.5998 26.6078 10.8 26.1053 10.8H5.89473C5.39222 10.8 4.91028 10.5998 4.55495 10.2435C4.19962 9.88718 4 9.40391 4 8.9C4 8.39609 4.19962 7.91282 4.55495 7.5565C4.91028 7.20018 5.39222 7 5.89473 7H26.1053Z" fill="#121212"/>
</svg>
