<svg width="32" height="32" viewBox="0 0 32 32" fill="none" xmlns="http://www.w3.org/2000/svg">
<path d="M27.3607 4.62893C28.2131 5.48196 28.2131 6.85548 27.3607 7.69405L22.143 12.9157C21.8928 13.1661 21.7891 13.5279 21.8686 13.8729L24.6763 26.053C24.7555 26.3968 24.6529 26.7572 24.4044 27.0076L23.756 27.6611C23.2663 28.1546 22.4382 28.0292 22.1165 27.4127L17.8086 19.157C17.4876 18.5419 16.662 18.4153 16.1717 18.9061L11.8908 23.1901C11.6616 23.4195 11.5542 23.7437 11.6009 24.0646L11.972 26.6128C12.019 26.9354 11.9101 27.2612 11.6787 27.4907L11.4653 27.7022C10.9815 28.1819 10.1733 28.0661 9.84357 27.4698L8.10082 24.3186C8.00761 24.15 7.86892 24.0111 7.70057 23.9176L4.52873 22.1564C3.93555 21.827 3.81891 21.023 4.29404 20.5385L4.51468 20.3136C4.74479 20.0789 5.07325 19.9686 5.3983 20.0167L7.98133 20.3993C8.30304 20.447 8.62829 20.3394 8.8582 20.1093L13.0985 15.8658C13.5877 15.3762 13.4628 14.5527 12.8506 14.2303L4.58732 9.87849C3.97372 9.55534 3.84998 8.72932 4.34195 8.24045L4.99874 7.58779C5.24913 7.33898 5.60968 7.23619 5.95357 7.31558L18.1231 10.1251C18.4683 10.2047 18.8301 10.1009 19.0805 9.85028L24.2979 4.62893C25.107 3.79036 26.5517 3.79036 27.3607 4.62893Z" fill="#121212"/>
</svg>
