<svg width="32" height="32" viewBox="0 0 32 32" fill="none" xmlns="http://www.w3.org/2000/svg">
<path d="M6.27982 4.97935C6.30119 4.7085 6.42192 4.45666 6.61689 4.27621C6.81185 4.09576 7.06606 4.00058 7.32663 4.01048C7.5872 4.02037 7.83408 4.13457 8.01594 4.32933C8.19779 4.52408 8.30062 4.78441 8.30303 5.05616V10.4498C8.30303 10.6487 8.37886 10.8395 8.51382 10.9802C8.64879 11.1209 8.83185 11.1999 9.02273 11.1999C9.2136 11.1999 9.39666 11.1209 9.53163 10.9802C9.6666 10.8395 9.74242 10.6487 9.74242 10.4498V4.90014C9.74242 4.6614 9.83341 4.43245 9.99538 4.26364C10.1573 4.09484 10.377 4 10.6061 4C10.8351 4 11.0548 4.09484 11.2167 4.26364C11.3787 4.43245 11.4697 4.6614 11.4697 4.90014V10.4498C11.4697 10.6487 11.5455 10.8395 11.6805 10.9802C11.8155 11.1209 11.9985 11.1999 12.1894 11.1999C12.3803 11.1999 12.5633 11.1209 12.6983 10.9802C12.8333 10.8395 12.9091 10.6487 12.9091 10.4498V5.05616C12.9115 4.78441 13.0143 4.52408 13.1962 4.32933C13.378 4.13457 13.6249 4.02037 13.8855 4.01048C14.1461 4.00058 14.4003 4.09576 14.5952 4.27621C14.7902 4.45666 14.9109 4.7085 14.9323 4.97935C14.9818 5.71386 15.2121 9.24479 15.2121 11.2011C15.2121 12.8213 14.4406 14.2543 13.2638 15.1221C13.015 15.3057 12.9552 15.5001 12.9609 15.5985C13.1025 17.8525 13.4848 24.0214 13.4848 24.9995C13.4848 25.7953 13.1815 26.5585 12.6417 27.1212C12.1018 27.6839 11.3696 28 10.6061 28C9.84256 28 9.11033 27.6839 8.57045 27.1212C8.03057 26.5585 7.72727 25.7953 7.72727 24.9995C7.72727 24.0202 8.10958 17.8525 8.25121 15.5985C8.25697 15.5001 8.19709 15.3057 7.94836 15.1221C7.34624 14.6787 6.85503 14.0912 6.51599 13.4089C6.17695 12.7266 6 11.9695 6 11.2011C6 9.24479 6.2303 5.71386 6.27982 4.97935ZM16.9394 10.901C16.9394 9.07077 17.637 7.31546 18.8787 6.02127C20.1204 4.72707 21.8046 4 23.5606 4C23.7897 4 24.0093 4.09484 24.1713 4.26364C24.3333 4.43245 24.4242 4.6614 24.4242 4.90014V15.1017C24.4242 15.4833 24.5463 17.376 24.6833 19.4727L24.6891 19.5723C24.8388 21.8623 25 24.3527 25 24.9995C25 25.7953 24.6967 26.5585 24.1568 27.1212C23.6169 27.6839 22.8847 28 22.1212 28C21.3577 28 20.6255 27.6839 20.0856 27.1212C19.5457 26.5585 19.2424 25.7953 19.2424 24.9995C19.2424 24.3827 19.3898 21.8659 19.5326 19.5579C19.604 18.3926 19.6765 17.2632 19.7307 16.4255L19.7572 16.0018H18.9545C18.6899 16.0018 18.4279 15.9475 18.1834 15.8419C17.9389 15.7364 17.7167 15.5817 17.5296 15.3866C17.3425 15.1916 17.1941 14.9601 17.0928 14.7052C16.9915 14.4504 16.9394 14.1773 16.9394 13.9015V10.901Z" fill="#121212"/>
</svg>
