<svg width="32" height="32" viewBox="0 0 32 32" fill="none" xmlns="http://www.w3.org/2000/svg">
<path d="M16 17.0588C18.0433 17.0588 19.8945 17.7518 21.2527 18.7208C22.5433 19.6428 23.6364 21.0131 23.6364 22.4872C23.6364 23.2964 23.2993 23.967 22.768 24.4655C22.2684 24.936 21.616 25.2411 20.944 25.449C19.6011 25.8659 17.8327 26 16 26C14.1673 26 12.3989 25.8659 11.056 25.449C10.384 25.2411 9.73164 24.936 9.23091 24.4655C8.70182 23.9681 8.36364 23.2975 8.36364 22.4884C8.36364 21.0142 9.45673 19.6439 10.7473 18.7219C12.1055 17.7518 13.9567 17.0588 16 17.0588ZM23.6364 18.1765C24.7753 18.1765 25.8095 18.5621 26.5742 19.1075C27.2724 19.6071 28 20.4375 28 21.4501C28 22.0279 27.7545 22.5074 27.3891 22.8505C27.0553 23.1645 26.6429 23.3489 26.2665 23.4652C25.7538 23.6239 25.1484 23.7055 24.52 23.7412C24.6531 23.3556 24.7273 22.9365 24.7273 22.4872C24.7273 20.7716 23.6811 19.3142 22.5105 18.3028C22.8803 18.2191 23.2577 18.1767 23.6364 18.1765ZM8.36364 18.1765C8.75418 18.178 9.12945 18.2201 9.48945 18.3028C8.32 19.3142 7.27273 20.7716 7.27273 22.4872C7.27273 22.9365 7.34691 23.3556 7.48 23.7412C6.85164 23.7055 6.24727 23.6239 5.73345 23.4652C5.35709 23.3489 4.94473 23.1645 4.60982 22.8505C4.41785 22.6743 4.26431 22.4586 4.15923 22.2175C4.05415 21.9763 3.99989 21.7152 4 21.4512C4 20.4397 4.72655 19.6082 5.42582 19.1086C6.29076 18.5011 7.31496 18.1761 8.36364 18.1765ZM23.0909 11.4706C23.8142 11.4706 24.5079 11.765 25.0194 12.289C25.5308 12.813 25.8182 13.5237 25.8182 14.2647C25.8182 15.0058 25.5308 15.7164 25.0194 16.2404C24.5079 16.7644 23.8142 17.0588 23.0909 17.0588C22.3676 17.0588 21.6739 16.7644 21.1624 16.2404C20.651 15.7164 20.3636 15.0058 20.3636 14.2647C20.3636 13.5237 20.651 12.813 21.1624 12.289C21.6739 11.765 22.3676 11.4706 23.0909 11.4706ZM8.90909 11.4706C9.63241 11.4706 10.3261 11.765 10.8376 12.289C11.349 12.813 11.6364 13.5237 11.6364 14.2647C11.6364 15.0058 11.349 15.7164 10.8376 16.2404C10.3261 16.7644 9.63241 17.0588 8.90909 17.0588C8.18577 17.0588 7.49208 16.7644 6.98062 16.2404C6.46916 15.7164 6.18182 15.0058 6.18182 14.2647C6.18182 13.5237 6.46916 12.813 6.98062 12.289C7.49208 11.765 8.18577 11.4706 8.90909 11.4706ZM16 7C17.1573 7 18.2672 7.47101 19.0856 8.3094C19.9039 9.1478 20.3636 10.2849 20.3636 11.4706C20.3636 12.6563 19.9039 13.7934 19.0856 14.6318C18.2672 15.4702 17.1573 15.9412 16 15.9412C14.8427 15.9412 13.7328 15.4702 12.9144 14.6318C12.0961 13.7934 11.6364 12.6563 11.6364 11.4706C11.6364 10.2849 12.0961 9.1478 12.9144 8.3094C13.7328 7.47101 14.8427 7 16 7Z" fill="#121212"/>
</svg>
