<svg width="32" height="32" viewBox="0 0 32 32" fill="none" xmlns="http://www.w3.org/2000/svg">
<path d="M15.9995 12.0057C13.7881 12.0057 12.0054 13.8057 12.0054 16C12.0054 18.1943 13.8053 19.9943 15.9995 19.9943C18.1937 19.9943 19.9936 18.1943 19.9936 16C19.9936 13.8057 18.1937 12.0057 15.9995 12.0057ZM27.9989 16C27.9989 14.3371 27.9989 12.7086 27.9132 11.0457C27.8275 9.12571 27.3818 7.41143 25.9762 6.02286C24.5705 4.61714 22.8734 4.17143 20.9535 4.08571C19.2907 4 17.6622 4 15.9995 4C14.3367 4 12.7082 4 11.0454 4.08571C9.12549 4.17143 7.41128 4.61714 6.02277 6.02286C4.61712 7.42857 4.17142 9.12571 4.08571 11.0457C4 12.7086 4 14.3371 4 16C4 17.6629 4 19.2914 4.08571 20.9543C4.17142 22.8743 4.61712 24.5886 6.02277 25.9771C7.42842 27.3829 9.12549 27.8286 11.0454 27.9143C12.7082 28 14.3367 28 15.9995 28C17.6622 28 19.2907 28 20.9535 27.9143C22.8734 27.8286 24.5877 27.3829 25.9762 25.9771C27.3818 24.5714 27.8275 22.8743 27.9132 20.9543C28.0161 19.3086 27.9989 17.6629 27.9989 16ZM15.9995 22.1543C12.5882 22.1543 9.84545 19.4114 9.84545 16C9.84545 12.5886 12.5882 9.84571 15.9995 9.84571C19.4107 9.84571 22.1535 12.5886 22.1535 16C22.1535 19.4114 19.4107 22.1543 15.9995 22.1543ZM22.4106 11.0286C21.6221 11.0286 20.9707 10.3943 20.9707 9.58857C20.9707 8.78286 21.6049 8.14857 22.4106 8.14857C23.2163 8.14857 23.8505 8.78286 23.8505 9.58857C23.8549 9.77635 23.8206 9.96301 23.7498 10.137C23.6791 10.311 23.5733 10.4686 23.4391 10.6C23.3077 10.7342 23.1501 10.8399 22.9762 10.9107C22.8022 10.9815 22.6155 11.0158 22.4277 11.0114L22.4106 11.0286Z" fill="#121212"/>
</svg>
