<svg width="32" height="32" viewBox="0 0 32 32" fill="none" xmlns="http://www.w3.org/2000/svg">
<path fill-rule="evenodd" clip-rule="evenodd" d="M5 6.57143C5 5.88944 5.27656 5.23539 5.76884 4.75315C6.26113 4.27092 6.92881 4 7.625 4H23.375C24.0712 4 24.7389 4.27092 25.2312 4.75315C25.7234 5.23539 26 5.88944 26 6.57143V8.25314H5V6.57143ZM5 10.396V25.4286C5 26.1106 5.27656 26.7646 5.76884 27.2468C6.26113 27.7291 6.92881 28 7.625 28H23.375C24.0712 28 24.7389 27.7291 25.2312 27.2468C25.7234 26.7646 26 26.1106 26 25.4286V10.396H5ZM9.186 18.5714C9.18567 17.8695 9.30758 17.1726 9.5465 16.5109C10.0734 15.0493 11.1413 13.8347 12.5387 13.1075C13.936 12.3803 15.5612 12.1934 17.0925 12.5838C18.6239 12.9742 19.9498 13.9135 20.808 15.2158C21.6661 16.5181 21.994 18.0885 21.7267 19.6163C21.4595 21.144 20.6165 22.5179 19.3646 23.4659C18.1127 24.414 16.5432 24.8672 14.9665 24.7358C13.3899 24.6044 11.921 23.8981 10.8505 22.7566C9.78009 21.615 9.18606 20.1215 9.186 18.5714ZM11.1285 18.0571C11.1628 17.8573 11.2683 17.6759 11.4263 17.545C11.5842 17.4141 11.7844 17.3423 11.9913 17.3423H12.6108C13.9495 17.3423 14.7335 17.6629 15.4388 17.9491L15.5437 17.992C16.2035 18.2611 16.8703 18.5131 18.188 18.5131H19.0577C19.1848 18.5132 19.3102 18.5403 19.4255 18.5927C19.5407 18.645 19.6429 18.7213 19.725 18.8163C19.8071 18.9112 19.8671 19.0225 19.9009 19.1425C19.9346 19.2624 19.9413 19.3881 19.9205 19.5109C19.7041 20.635 19.0461 21.6311 18.088 22.2852C17.1299 22.9392 15.9481 23.1989 14.7966 23.0085C13.6451 22.8181 12.6158 22.1928 11.9299 21.267C11.244 20.3411 10.9562 19.1886 11.1285 18.0571Z" fill="#121212"/>
</svg>
