<svg width="32" height="32" viewBox="0 0 32 32" fill="none" xmlns="http://www.w3.org/2000/svg">
<path fill-rule="evenodd" clip-rule="evenodd" d="M10.0926 10.9612C11.0158 10.9612 11.9012 10.5945 12.554 9.94177C13.2068 9.28903 13.5735 8.40372 13.5735 7.48061C13.5735 6.55749 13.2068 5.67219 12.554 5.01945C11.9012 4.36671 11.0158 4 10.0926 4C9.16943 4 8.28405 4.36671 7.63126 5.01945C6.97847 5.67219 6.61173 6.55749 6.61173 7.48061C6.61173 8.40372 6.97847 9.28903 7.63126 9.94177C8.28405 10.5945 9.16943 10.9612 10.0926 10.9612ZM23.8876 9.30191C23.7268 9.14123 23.5089 9.05096 23.2816 9.05096C23.0543 9.05096 22.8363 9.14123 22.6756 9.30191L18.815 13.1622C18.6954 13.2822 18.614 13.4349 18.5811 13.601C18.5483 13.7672 18.5654 13.9394 18.6303 14.0958C18.6953 14.2523 18.8051 14.386 18.946 14.48C19.0868 14.5741 19.2524 14.6243 19.4218 14.6244H27.143C27.3124 14.6243 27.478 14.5741 27.6189 14.48C27.7598 14.386 27.8696 14.2523 27.9345 14.0958C27.9995 13.9394 28.0166 13.7672 27.9837 13.601C27.9509 13.4349 27.8695 13.2822 27.7499 13.1622L23.8876 9.30191ZM18.6298 19.616C18.6949 19.4596 18.8048 19.326 18.9458 19.232C19.0868 19.138 19.2524 19.088 19.4218 19.0881H27.143C27.3124 19.0881 27.478 19.1383 27.6189 19.2324C27.7598 19.3265 27.8696 19.4602 27.9345 19.6166C27.9995 19.7731 28.0166 19.9452 27.9837 20.1114C27.9509 20.2776 27.8695 20.4303 27.7499 20.5502L23.8859 24.4105C23.7251 24.5712 23.5071 24.6615 23.2799 24.6615C23.0526 24.6615 22.8346 24.5712 22.6739 24.4105L18.815 20.5502C18.6952 20.4303 18.6136 20.2775 18.5807 20.1112C18.5477 19.9449 18.5648 19.7726 18.6298 19.616ZM14.4007 14.1187C14.9662 14.6841 15.4148 15.3554 15.7207 16.0943C16.0266 16.8331 16.1839 17.625 16.1835 18.4247V20.1817C16.1835 20.409 16.0932 20.627 15.9325 20.7877C15.7717 20.9485 15.5537 21.0388 15.3264 21.0388H13.5744L12.7995 27.2492C12.7736 27.4567 12.6726 27.6476 12.5157 27.7859C12.3588 27.9242 12.1567 28.0004 11.9475 28H8.23775C8.02887 27.9999 7.82719 27.9236 7.67062 27.7854C7.51405 27.6471 7.41336 27.4564 7.38745 27.2492L6.61088 21.0388H4.85715C4.62982 21.0388 4.4118 20.9485 4.25105 20.7877C4.09031 20.627 4 20.409 4 20.1817V18.4247C4.00038 17.2199 4.35797 16.0424 5.02757 15.0408C5.69717 14.0393 6.64871 13.2587 7.76189 12.7979C8.87508 12.337 10.0999 12.2165 11.2816 12.4516C12.4633 12.6867 13.5487 13.2668 14.4007 14.1187Z" fill="#121212"/>
</svg>
