<svg width="32" height="32" viewBox="0 0 32 32" fill="none" xmlns="http://www.w3.org/2000/svg">
<path d="M23.4262 21.9323C25.3956 19.9619 26.5019 17.29 26.5019 14.5041C26.5019 11.7182 25.3956 9.04629 23.4262 7.07585C22.4511 6.10069 21.2935 5.32715 20.0195 4.79939C18.7455 4.27163 17.38 4 16.001 4C14.622 4 13.2565 4.27163 11.9824 4.79939C10.7084 5.32715 9.55081 6.10069 8.57575 7.07585C6.60632 9.04629 5.5 11.7182 5.5 14.5041C5.5 17.29 6.60632 19.9619 8.57575 21.9323L10.8573 24.1809L13.9219 27.1585L14.1214 27.3355C15.284 28.2775 16.9865 28.2175 18.0815 27.1585L21.7341 23.6034L23.4262 21.9323ZM16.001 18.9997C14.8075 18.9997 13.6628 18.5256 12.8189 17.6817C11.975 16.8377 11.5008 15.6931 11.5008 14.4996C11.5008 13.3061 11.975 12.1614 12.8189 11.3175C13.6628 10.4736 14.8075 9.99944 16.001 9.99944C17.1945 9.99944 18.3391 10.4736 19.1831 11.3175C20.027 12.1614 20.5011 13.3061 20.5011 14.4996C20.5011 15.6931 20.027 16.8377 19.1831 17.6817C18.3391 18.5256 17.1945 18.9997 16.001 18.9997Z" fill="#121212"/>
</svg>
