<svg width="32" height="32" viewBox="0 0 32 32" fill="none" xmlns="http://www.w3.org/2000/svg">
<path d="M16.5455 9.25C16.5455 8.00125 17.5164 7 18.7273 7H22.5455C23.7455 7 24.7273 8.0125 24.7273 9.25V11.68C23.4618 12.1412 22.5455 13.3788 22.5455 14.8413V17.125H16.5455V9.25ZM9.45455 14.83V17.125H15.4545V9.25C15.4545 8.00125 14.4836 7 13.2727 7H9.45455C8.25455 7 7.27273 8.0125 7.27273 9.25V11.6687C8.53818 12.13 9.45455 13.3787 9.45455 14.83ZM25.4473 12.6587C24.3782 12.8387 23.6364 13.885 23.6364 15.01V18.25H8.36364V14.875C8.36364 14.2783 8.13377 13.706 7.7246 13.284C7.31543 12.8621 6.76047 12.625 6.18182 12.625C5.60316 12.625 5.04821 12.8621 4.63904 13.284C4.22987 13.706 4 14.2783 4 14.875V20.5C4 21.7375 4.98182 22.75 6.18182 22.75V25H8.36364V22.75H23.6364V25H25.8182V22.75C27.0182 22.75 28 21.7375 28 20.5V14.875C28 13.5138 26.8109 12.4225 25.4473 12.6587Z" fill="#121212"/>
</svg>
