<svg width="32" height="32" viewBox="0 0 32 32" fill="none" xmlns="http://www.w3.org/2000/svg">
<path d="M19.4286 7.27273C19.4286 9.0802 17.9895 10.5455 16.2143 10.5455C14.4391 10.5455 13 9.0802 13 7.27273C13 5.46525 14.4391 4 16.2143 4C17.9895 4 19.4286 5.46525 19.4286 7.27273Z" fill="#121212"/>
<path d="M19.4286 16C19.4286 17.8075 17.9895 19.2727 16.2143 19.2727C14.4391 19.2727 13 17.8075 13 16C13 14.1925 14.4391 12.7273 16.2143 12.7273C17.9895 12.7273 19.4286 14.1925 19.4286 16Z" fill="#121212"/>
<path d="M19.4286 24.7273C19.4286 26.5348 17.9895 28 16.2143 28C14.4391 28 13 26.5348 13 24.7273C13 22.9198 14.4391 21.4545 16.2143 21.4545C17.9895 21.4545 19.4286 22.9198 19.4286 24.7273Z" fill="#121212"/>
</svg>
