<svg width="32" height="32" viewBox="0 0 32 32" fill="none" xmlns="http://www.w3.org/2000/svg">
<path d="M27.895 23.7918L22.7803 14.5839C22.6484 14.3441 22.4597 14.1454 22.2331 14.0078C22.0066 13.8702 21.7501 13.7985 21.4894 13.7999C21.2288 13.7985 20.9725 13.8702 20.7461 14.0078C20.5197 14.1454 20.3312 14.3441 20.1995 14.5839L18.7333 17.2229C18.6992 17.2845 18.6812 17.3548 18.6812 17.4264C18.6812 17.498 18.6992 17.5683 18.7333 17.6299L21.2457 22.1768C21.3411 22.3457 21.3757 22.5458 21.3431 22.7399C21.3105 22.934 21.2129 23.1088 21.0685 23.2318C20.9843 23.3016 20.8872 23.3513 20.7835 23.3779C20.6799 23.4044 20.5722 23.407 20.4675 23.3857C20.3628 23.3643 20.2636 23.3193 20.1765 23.2538C20.0894 23.1884 20.0164 23.1038 19.9623 23.0058L13.5436 11.388C13.4112 11.1478 13.2222 10.9487 12.9955 10.8104C12.7688 10.6721 12.5121 10.5994 12.2509 10.5994C11.9897 10.5994 11.733 10.6721 11.5063 10.8104C11.2796 10.9487 11.0906 11.1478 10.9582 11.388L4.10544 23.7938C4.02276 23.9421 3.98721 24.1149 4.0041 24.2864C4.021 24.458 4.08943 24.6191 4.19918 24.7458C4.27309 24.8283 4.36226 24.8934 4.46102 24.9371C4.55978 24.9809 4.66599 25.0022 4.7729 24.9998H27.2284C27.3349 25.0012 27.4405 24.9793 27.5387 24.9355C27.6369 24.8916 27.7256 24.8267 27.7993 24.7448C27.9096 24.6183 27.9785 24.4571 27.9957 24.2853C28.013 24.1135 27.9776 23.9404 27.895 23.7918ZM10.0413 16.1999L12.2509 12.1999L14.4604 16.1999H10.0413ZM17.1256 9.39998C17.1256 8.92531 17.2576 8.4613 17.5048 8.06662C17.752 7.67195 18.1034 7.36434 18.5145 7.18269C18.9256 7.00104 19.378 6.95351 19.8144 7.04612C20.2508 7.13872 20.6517 7.3673 20.9664 7.70294C21.281 8.03858 21.4953 8.46622 21.5821 8.93176C21.6689 9.39731 21.6244 9.87987 21.4541 10.3184C21.2838 10.7569 20.9954 11.1318 20.6254 11.3955C20.2554 11.6592 19.8204 11.8 19.3755 11.8C18.7788 11.8 18.2065 11.5471 17.7846 11.097C17.3626 10.6469 17.1256 10.0365 17.1256 9.39998Z" fill="#121212"/>
</svg>
