<svg width="32" height="32" viewBox="0 0 32 32" fill="none" xmlns="http://www.w3.org/2000/svg">
<path d="M16 4C13.7152 4 11.524 4.93158 9.90845 6.58979C8.29288 8.24801 7.38525 10.497 7.38525 12.8421V17.2985C7.38543 17.4945 7.34119 17.6878 7.25603 17.8632L5.14296 22.1996C5.03974 22.4114 4.991 22.6469 5.00137 22.8835C5.01174 23.1201 5.08087 23.3501 5.20221 23.5516C5.32355 23.7531 5.49305 23.9194 5.69463 24.0347C5.89621 24.15 6.12317 24.2106 6.35395 24.2105H25.6461C25.8768 24.2106 26.1038 24.15 26.3054 24.0347C26.5069 23.9194 26.6765 23.7531 26.7978 23.5516C26.9191 23.3501 26.9883 23.1201 26.9986 22.8835C27.009 22.6469 26.9603 22.4114 26.857 22.1996L24.7452 17.8632C24.6596 17.6879 24.615 17.4946 24.6147 17.2985V12.8421C24.6147 10.497 23.7071 8.24801 22.0915 6.58979C20.476 4.93158 18.2848 4 16 4ZM16 28C15.2362 28.0004 14.491 27.7577 13.8673 27.3052C13.2435 26.8527 12.7718 26.2128 12.5172 25.4737H19.4828C19.2282 26.2128 18.7565 26.8527 18.1327 27.3052C17.509 27.7577 16.7638 28.0004 16 28Z" fill="#121212"/>
</svg>
