<svg width="32" height="32" viewBox="0 0 32 32" fill="none" xmlns="http://www.w3.org/2000/svg">
<path d="M17.6344 8.84875L4.30532 22.1997C4.20756 22.2905 4.1299 22.4009 4.07733 22.5235C4.02476 22.6462 3.99844 22.7785 4.00007 22.912V26.9824C4.00007 27.5523 4.44776 28 5.01755 28H9.08749C9.35204 28 9.61658 27.8982 9.79973 27.6947L23.1491 14.3642L17.6344 8.84875ZM27.4022 7.22059L24.7771 4.59518C24.5888 4.40651 24.3652 4.25683 24.119 4.1547C23.8729 4.05257 23.609 4 23.3424 4C23.0759 4 22.812 4.05257 22.5658 4.1547C22.3197 4.25683 22.0961 4.40651 21.9078 4.59518L19.4658 7.03742L24.9806 12.5528L27.4226 10.1106C28.1958 9.31685 28.1958 8.01432 27.4022 7.22059Z" fill="#121212"/>
</svg>
