<svg width="32" height="32" viewBox="0 0 32 32" fill="none" xmlns="http://www.w3.org/2000/svg">
<path d="M27.0205 9.00098C27.0403 9.00137 27.0602 9.00136 27.08 9.00293C27.0945 9.00407 27.1088 9.00607 27.123 9.00781C27.1429 9.01026 27.1628 9.01295 27.1826 9.0166C27.1934 9.0186 27.2041 9.0211 27.2148 9.02344C27.2354 9.02795 27.2559 9.03322 27.2763 9.03906C27.2898 9.04294 27.3031 9.04734 27.3164 9.05176C27.3304 9.05643 27.3445 9.06109 27.3584 9.06641C27.3745 9.0726 27.3905 9.07895 27.4062 9.08594C27.4261 9.09478 27.4454 9.10502 27.4648 9.11523C27.4714 9.1187 27.4778 9.12237 27.4843 9.12598C27.5025 9.13608 27.5204 9.14687 27.538 9.1582C27.5509 9.16645 27.5637 9.17478 27.5761 9.18359C27.5911 9.19416 27.6056 9.20531 27.6201 9.2168C27.6299 9.22457 27.6399 9.2321 27.6494 9.24023C27.6581 9.24771 27.6672 9.25486 27.6757 9.2627C27.682 9.26845 27.6872 9.27538 27.6933 9.28125C27.7029 9.29053 27.7124 9.29991 27.7216 9.30957C27.7364 9.32499 27.751 9.34032 27.7646 9.35645C27.7715 9.36461 27.7775 9.37345 27.7841 9.38184C27.7959 9.39669 27.8075 9.4114 27.8183 9.42676C27.831 9.44486 27.8429 9.46346 27.8544 9.48242C27.8586 9.48931 27.8631 9.49596 27.8671 9.50293C27.8779 9.52173 27.8878 9.54101 27.8974 9.56055C27.903 9.57195 27.9089 9.58315 27.914 9.59473C27.9341 9.63985 27.9496 9.687 27.9628 9.73535C27.9674 9.75192 27.9719 9.76841 27.9755 9.78516C27.9788 9.80003 27.9817 9.81496 27.9843 9.83008C27.9868 9.84471 27.9893 9.8593 27.9912 9.87402C27.9935 9.89275 27.9947 9.91163 27.996 9.93066C27.9972 9.94695 27.9986 9.96317 27.999 9.97949C27.9991 9.98632 28 9.99314 28 10V17.5C28 18.0523 27.5522 18.5 27 18.5C26.4477 18.4999 26 18.0522 26 17.5V12.5703L20.8623 18.1758C20.2724 18.8193 19.77 19.3694 19.3173 19.7578C18.8508 20.1581 18.324 20.4889 17.6591 20.5547H17.6572C17.4693 20.5729 17.2806 20.5729 17.0927 20.5547H17.0888C16.4255 20.4877 15.8992 20.158 15.4326 19.7578C14.9799 19.3695 14.4778 18.8196 13.8877 18.1758C13.2636 17.495 12.8556 17.0516 12.5156 16.7598C12.1896 16.48 12.0407 16.4433 11.9619 16.4355C11.9045 16.4299 11.8464 16.429 11.789 16.4346C11.7086 16.4428 11.5593 16.482 11.2343 16.7607C10.8944 17.0523 10.4861 17.4952 9.86226 18.1758L5.73726 22.6758C5.36407 23.0828 4.73127 23.1104 4.32417 22.7373C3.91715 22.3641 3.8896 21.7313 4.26265 21.3242L8.38765 16.8242C8.97776 16.1805 9.47989 15.6305 9.93257 15.2422C10.3992 14.842 10.9255 14.5123 11.5888 14.4453H11.5908C11.6851 14.436 11.7803 14.4316 11.875 14.4316L12.1591 14.4453L12.4023 14.4824C12.9548 14.5953 13.4092 14.892 13.8173 15.2422C14.27 15.6306 14.7724 16.1807 15.3623 16.8242C15.9861 17.5048 16.3944 17.9477 16.7343 18.2393C17.0601 18.5186 17.2097 18.5563 17.29 18.5645C17.3477 18.5699 17.4042 18.5699 17.4619 18.5645L17.5361 18.5498C17.6263 18.5231 17.7711 18.45 18.0156 18.2402C18.3556 17.9484 18.7636 17.505 19.3877 16.8242L24.7265 11H20.125C19.5727 10.9999 19.125 10.5522 19.125 10C19.125 9.44776 19.5727 9.00007 20.125 9H27C27.0068 9 27.0137 9.00084 27.0205 9.00098Z" fill="#121212"/>
</svg>
