<svg width="32" height="32" viewBox="0 0 32 32" fill="none" xmlns="http://www.w3.org/2000/svg">
<path d="M13.9991 10.7498V4H7.24977C6.6531 4 6.08086 4.23705 5.65894 4.65899C5.23703 5.08094 5 5.65322 5 6.24994V25.7494C5 26.3462 5.23703 26.9184 5.65894 27.3404C6.08086 27.7623 6.6531 27.9994 7.24977 27.9994H11.3309C11.0159 27.4144 10.9034 26.7094 11.0849 25.9789L11.6473 23.732C11.858 22.8892 12.2934 22.1193 12.9072 21.5045L20.1515 14.2597C20.9101 13.5003 21.9258 13.0528 22.9982 13.0058V12.9998H16.2489C15.6522 12.9998 15.0799 12.7627 14.658 12.3408C14.2361 11.9188 13.9991 11.3465 13.9991 10.7498ZM15.4989 10.7498V4.37499L22.6232 11.4998H16.2489C16.05 11.4998 15.8592 11.4208 15.7186 11.2801C15.5779 11.1395 15.4989 10.9487 15.4989 10.7498ZM25.179 15.3217C24.9185 15.0612 24.6093 14.8545 24.2689 14.7134C23.9286 14.5724 23.5638 14.4998 23.1954 14.4998C22.827 14.4998 22.4622 14.5724 22.1219 14.7134C21.7815 14.8545 21.4723 15.0612 21.2119 15.3217L13.9676 22.5665C13.5461 22.9889 13.247 23.5176 13.1022 24.0965L12.5397 26.3434C12.4843 26.5669 12.4875 26.8009 12.5492 27.0228C12.6109 27.2446 12.729 27.4467 12.8918 27.6094C13.0547 27.7722 13.2569 27.89 13.4788 27.9515C13.7007 28.013 13.9347 28.0161 14.1581 27.9604L16.4048 27.3994C16.9838 27.2541 17.5125 26.9545 17.9347 26.5324L25.179 19.2876C25.7047 18.7616 26 18.0484 26 17.3047C26 16.561 25.7047 15.8477 25.179 15.3217Z" fill="#121212"/>
</svg>
