<svg width="32" height="32" viewBox="0 0 32 32" fill="none" xmlns="http://www.w3.org/2000/svg">
<path d="M11.8497 4C10.8092 4.00057 9.81147 4.41608 9.07584 5.15521L5.14926 9.09791C4.41339 9.83728 4 10.8399 4 11.8854C4 12.9309 4.41339 13.9335 5.14926 14.6729L7.0661 16.5982C7.31147 16.8446 7.64421 16.983 7.99115 16.983C8.3381 16.983 8.67084 16.8446 8.91621 16.5982L14.1499 11.3413C14.3952 11.0949 14.533 10.7606 14.533 10.4121C14.533 10.0637 14.3952 9.72943 14.1499 9.48298L11.3917 6.71258C11.5382 6.65727 11.6933 6.62878 11.8497 6.62847H20.1503C20.3067 6.62878 20.4618 6.65727 20.6083 6.71258L11.1484 16.2132C10.6795 16.6837 10.3084 17.2433 10.0568 17.8592C9.80525 18.4752 9.67815 19.1353 9.68294 19.801C9.68466 20.4571 9.81508 21.1065 10.0668 21.712C10.3184 22.3174 10.6864 22.8672 11.1497 23.3297C11.676 23.8592 12.3135 24.2637 13.0155 24.5138C13.7175 24.764 14.4663 24.8533 15.2071 24.7754L17.0376 26.6153C17.2831 26.8617 17.616 27.0001 17.9631 27C18.3102 26.9999 18.643 26.8613 18.8883 26.6147C19.1337 26.3681 19.2714 26.0337 19.2713 25.685C19.2712 25.3364 19.1332 25.0021 18.8877 24.7557L17.8292 23.6925C17.9687 23.5794 18.1039 23.4581 18.2348 23.3284L18.6168 22.9434L20.3086 24.6427C20.5554 24.8821 20.8859 25.0145 21.229 25.0115C21.572 25.0085 21.9002 24.8703 22.1428 24.6266C22.3854 24.383 22.523 24.0534 22.526 23.7088C22.529 23.3642 22.3971 23.0322 22.1587 22.7843L20.4669 21.085L21.2337 20.3149L23.5797 22.6713C23.8265 22.9107 24.157 23.0432 24.5 23.0402C24.8431 23.0372 25.1713 22.899 25.4139 22.6553C25.6564 22.4116 25.7941 22.082 25.797 21.7374C25.8 21.3928 25.6681 21.0609 25.4298 20.813L23.0838 18.4566L26.8507 14.6729C27.5866 13.9335 28 12.9309 28 11.8854C28 10.8399 27.5866 9.83728 26.8507 9.09791L22.9255 5.15521C22.1895 4.41576 21.1913 4.00022 20.1503 4H11.8497Z" fill="#121212"/>
</svg>
