<svg width="32" height="32" viewBox="0 0 32 32" fill="none" xmlns="http://www.w3.org/2000/svg">
<path d="M21.7783 14.8887C21.7783 13.9842 21.6 13.0886 21.2539 12.2529C20.9077 11.4172 20.4004 10.6573 19.7607 10.0176C19.1211 9.37789 18.3612 8.87062 17.5254 8.52441C16.794 8.22146 16.0166 8.04761 15.2275 8.00879L14.8887 8C13.9842 8.00005 13.0886 8.1783 12.2529 8.52441C11.5215 8.82739 10.8481 9.25365 10.2627 9.78418L10.0176 10.0176C8.72572 11.3094 8.00009 13.0617 8 14.8887C8 16.7158 8.72564 18.4688 10.0176 19.7607C11.3094 21.0525 13.0618 21.7782 14.8887 21.7783C16.7158 21.7783 18.4688 21.0527 19.7607 19.7607L19.9941 19.5146C20.5245 18.9294 20.951 18.2566 21.2539 17.5254C21.6001 16.6896 21.7783 15.7933 21.7783 14.8887ZM25.7783 14.8887C25.7783 16.3185 25.4963 17.7347 24.9492 19.0557C24.6594 19.7553 24.2961 20.4202 23.8701 21.042L27.4141 24.5859L27.5518 24.7373C28.1926 25.5229 28.1463 26.6818 27.4141 27.4141C26.6818 28.1463 25.5229 28.1926 24.7373 27.5518L24.5859 27.4141L21.041 23.8691C19.2416 25.1019 17.1007 25.7783 14.8887 25.7783C12.0009 25.7782 9.23144 24.6308 7.18945 22.5889C5.14737 20.5468 4 17.7766 4 14.8887C4.00009 12.0008 5.14745 9.23146 7.18945 7.18945L7.57715 6.82031C8.50231 5.98192 9.56575 5.30795 10.7217 4.8291C12.0427 4.28192 13.4588 4.00005 14.8887 4L15.4248 4.0127C16.6716 4.07412 17.8999 4.35039 19.0557 4.8291C20.3768 5.37633 21.5777 6.17831 22.5889 7.18945C23.5999 8.2005 24.402 9.40071 24.9492 10.7217C25.4964 12.0427 25.7783 13.4588 25.7783 14.8887Z" fill="#121212"/>
</svg>
