<svg width="32" height="32" viewBox="0 0 32 32" fill="none" xmlns="http://www.w3.org/2000/svg">
<path fill-rule="evenodd" clip-rule="evenodd" d="M16 4C22.6277 4 28 9.37231 28 16C28 22.6277 22.6277 28 16 28C9.37231 28 4 22.6277 4 16C4 9.37231 9.37231 4 16 4ZM16.6646 9.10462L18.0215 13.5169C18.0862 13.7477 18.2523 13.9046 18.4831 13.9785L22.8954 15.3354C23.1908 15.4277 23.3846 15.6862 23.3846 16C23.3846 16.3138 23.1908 16.5723 22.8954 16.6646L18.4831 18.0215C18.2523 18.0954 18.0862 18.2523 18.0215 18.4831L16.6646 22.8954C16.5723 23.1908 16.3138 23.3846 16 23.3846C15.6862 23.3846 15.4277 23.1908 15.3354 22.8954L13.9785 18.4831C13.9046 18.2523 13.7477 18.0954 13.5169 18.0215L9.10462 16.6646C8.80923 16.5723 8.61538 16.3138 8.61538 16C8.61538 15.6862 8.80923 15.4277 9.10462 15.3354L13.5169 13.9785C13.7477 13.9046 13.9046 13.7477 13.9785 13.5169L15.3354 9.10462C15.4277 8.80923 15.6862 8.61538 16 8.61538C16.3046 8.61538 16.5723 8.80923 16.6646 9.10462Z" fill="#121212"/>
</svg>
