<svg width="32" height="32" viewBox="0 0 32 32" fill="none" xmlns="http://www.w3.org/2000/svg">
<path fill-rule="evenodd" clip-rule="evenodd" d="M17.25 6C17.5562 6.00004 17.8517 6.11244 18.0805 6.31589C18.3093 6.51934 18.4554 6.79969 18.4913 7.10375L18.5 7.25C18.5004 7.5686 18.6223 7.87504 18.8411 8.10671C19.0598 8.33838 19.3587 8.47779 19.6767 8.49646C19.9948 8.51514 20.308 8.41166 20.5523 8.20717C20.7966 8.00268 20.9536 7.71262 20.9912 7.39625L21 7.25C21 6.91848 21.1317 6.60054 21.3661 6.36612C21.6005 6.1317 21.9185 6 22.25 6H24.75C25.7446 6 26.6984 6.39509 27.4017 7.09835C28.1049 7.80161 28.5 8.75544 28.5 9.75V22.25C28.5 23.2446 28.1049 24.1984 27.4017 24.9017C26.6984 25.6049 25.7446 26 24.75 26H22.25C21.9438 26 21.6483 25.8876 21.4195 25.6841C21.1907 25.4807 21.0446 25.2003 21.0088 24.8963L21 24.75C20.9996 24.4314 20.8777 24.125 20.6589 23.8933C20.4402 23.6616 20.1413 23.5222 19.8233 23.5035C19.5052 23.4849 19.192 23.5883 18.9477 23.7928C18.7034 23.9973 18.5464 24.2874 18.5087 24.6037L18.5 24.75C18.5 25.0815 18.3683 25.3995 18.1339 25.6339C17.8995 25.8683 17.5815 26 17.25 26H7.25C6.25544 26 5.30161 25.6049 4.59835 24.9017C3.89509 24.1984 3.5 23.2446 3.5 22.25V9.75C3.5 8.75544 3.89509 7.80161 4.59835 7.09835C5.30161 6.39509 6.25544 6 7.25 6H17.25ZM19.75 17.25C19.4185 17.25 19.1005 17.3817 18.8661 17.6161C18.6317 17.8505 18.5 18.1685 18.5 18.5V19.75C18.5 20.0815 18.6317 20.3995 18.8661 20.6339C19.1005 20.8683 19.4185 21 19.75 21C20.0815 21 20.3995 20.8683 20.6339 20.6339C20.8683 20.3995 21 20.0815 21 19.75V18.5C21 18.1685 20.8683 17.8505 20.6339 17.6161C20.3995 17.3817 20.0815 17.25 19.75 17.25ZM19.75 11C19.4438 11 19.1483 11.1124 18.9195 11.3159C18.6907 11.5193 18.5446 11.7997 18.5087 12.1038L18.5 12.25V13.5C18.5004 13.8186 18.6223 14.125 18.8411 14.3567C19.0598 14.5884 19.3587 14.7278 19.6767 14.7465C19.9948 14.7651 20.308 14.6617 20.5523 14.4572C20.7966 14.2527 20.9536 13.9626 20.9912 13.6462L21 13.5V12.25C21 11.9185 20.8683 11.6005 20.6339 11.3661C20.3995 11.1317 20.0815 11 19.75 11Z" fill="#121212"/>
</svg>
