<svg width="32" height="32" viewBox="0 0 32 32" fill="none" xmlns="http://www.w3.org/2000/svg">
<path fill-rule="evenodd" clip-rule="evenodd" d="M25.8182 21.8667C26.1075 21.8667 26.385 21.979 26.5896 22.1791C26.7942 22.3791 26.9091 22.6504 26.9091 22.9333C26.9091 23.2162 26.7942 23.4875 26.5896 23.6876C26.385 23.8876 26.1075 24 25.8182 24H5.09092C4.80159 24 4.52411 23.8876 4.31953 23.6876C4.11494 23.4875 4.00001 23.2162 4.00001 22.9333C4.00001 22.6504 4.11494 22.3791 4.31953 22.1791C4.52411 21.979 4.80159 21.8667 5.09092 21.8667H25.8182ZM16 8C19.5171 8 22.4822 9.14667 24.5833 10.7616C26.6462 12.3467 28 14.4907 28 16.5333C28 17.4315 27.7185 18.1973 27.2222 18.816C26.7389 19.4197 26.0942 19.8293 25.4375 20.1109C24.1436 20.6635 22.6044 20.8 21.4545 20.8H6.17528C5.88911 20.7999 5.60577 20.7445 5.34149 20.6372C5.07722 20.5299 4.83718 20.3726 4.63513 20.1745C4.43308 19.9763 4.27298 19.7411 4.164 19.4824C4.05502 19.2237 3.99929 18.9465 4.00001 18.6667V10.1333C4.00001 8.95893 4.97092 8 6.17964 8H16ZM10.5455 10.1333H6.18182V13.3333H10.5455V10.1333ZM16 10.1333H12.7273V13.3333H17.0909V10.176C16.8506 10.1571 16.6098 10.1446 16.3687 10.1387L16 10.1333ZM19.2727 10.5419V13.3333H24.2375C23.9275 13.01 23.5923 12.7108 23.2349 12.4384C22.1855 11.632 20.8458 10.9504 19.2727 10.5419Z" fill="#121212"/>
</svg>
