<svg width="32" height="32" viewBox="0 0 32 32" fill="none" xmlns="http://www.w3.org/2000/svg">
<path d="M16 21.3333C17.6667 21.3333 19.0836 20.7502 20.2507 19.584C21.4178 18.4178 22.0009 17.0009 22 15.3333C21.9991 13.6658 21.416 12.2493 20.2507 11.084C19.0853 9.91867 17.6684 9.33511 16 9.33334C14.3316 9.33156 12.9151 9.91511 11.7507 11.084C10.5862 12.2529 10.0027 13.6693 10 15.3333C9.99733 16.9973 10.5809 18.4142 11.7507 19.584C12.9204 20.7538 14.3369 21.3369 16 21.3333ZM16 18.9333C15 18.9333 14.1502 18.5831 13.4507 17.8827C12.7511 17.1822 12.4009 16.3324 12.4 15.3333C12.3991 14.3342 12.7493 13.4844 13.4507 12.784C14.152 12.0836 15.0018 11.7333 16 11.7333C16.9982 11.7333 17.8484 12.0836 18.5507 12.784C19.2529 13.4844 19.6027 14.3342 19.6 15.3333C19.5973 16.3324 19.2476 17.1827 18.5507 17.884C17.8538 18.5853 17.0036 18.9351 16 18.9333ZM16 25.3333C12.7556 25.3333 9.8 24.428 7.13333 22.6173C4.46667 20.8067 2.53333 18.3787 1.33333 15.3333C2.53333 12.2889 4.46667 9.86134 7.13333 8.05067C9.8 6.24 12.7556 5.33423 16 5.33334C19.2444 5.33245 22.2 6.23823 24.8667 8.05067C27.5333 9.86311 29.4667 12.2907 30.6667 15.3333C29.4667 18.3778 27.5333 20.8058 24.8667 22.6173C22.2 24.4289 19.2444 25.3342 16 25.3333Z" fill="#121212"/>
</svg>
