<svg width="32" height="32" viewBox="0 0 32 32" fill="none" xmlns="http://www.w3.org/2000/svg">
<path d="M20.4535 6.39991C20.4535 7.0364 20.1944 7.64683 19.7334 8.0969C19.2723 8.54697 18.6469 8.79982 17.9949 8.79982C17.3428 8.79982 16.7174 8.54697 16.2564 8.0969C15.7953 7.64683 15.5363 7.0364 15.5363 6.39991C15.5363 5.76341 15.7953 5.15299 16.2564 4.70292C16.7174 4.25285 17.3428 4 17.9949 4C18.6469 4 19.2723 4.25285 19.7334 4.70292C20.1944 5.15299 20.4535 5.76341 20.4535 6.39991ZM17.0379 18.6376L20.2297 21.7119C20.3521 21.8298 20.4478 21.9715 20.5106 22.1277L22.2126 26.3605C22.3318 26.6568 22.3255 26.9872 22.1951 27.2789C22.0647 27.5707 21.821 27.8 21.5174 27.9163C21.2139 28.0326 20.8755 28.0265 20.5766 27.8992C20.2777 27.7719 20.0428 27.534 19.9236 27.2377L18.3169 23.2413L12.8293 17.9555C12.6967 17.8278 12.5956 17.6724 12.5335 17.501C12.4714 17.3297 12.45 17.1467 12.471 16.9661L12.9105 13.1742C11.8508 14.2026 11.0333 15.648 10.407 17.5637C10.3602 17.7164 10.2826 17.8585 10.1789 17.9816C10.0752 18.1047 9.94741 18.2065 9.80297 18.2809C9.65854 18.3553 9.50036 18.4008 9.33769 18.4149C9.17502 18.4289 9.01111 18.4112 8.85553 18.3627C8.69996 18.3143 8.55584 18.236 8.43158 18.1326C8.30733 18.0291 8.20544 17.9026 8.13185 17.7603C8.05827 17.6179 8.01448 17.4627 8.00303 17.3037C7.99157 17.1447 8.0127 16.9851 8.06516 16.8341C9.21456 13.3182 11.1231 10.6867 14.3254 9.48019L14.3395 9.47479C15.1552 9.179 16.0034 9.203 16.7594 9.58399C17.4853 9.95057 18.0022 10.5835 18.3409 11.2927L18.7392 12.1327C19.0392 12.7675 19.2912 13.3026 19.534 13.7718C19.8739 14.4318 20.1474 14.8698 20.4178 15.177C20.6686 15.4614 20.9175 15.6366 21.2353 15.7577C21.5771 15.8879 22.0559 15.9779 22.7953 15.9995C22.9577 16.0027 23.1179 16.0373 23.2666 16.1013C23.4152 16.1652 23.5494 16.2573 23.6614 16.3722C23.7734 16.4872 23.8609 16.6226 23.9189 16.7707C23.977 16.9188 24.0043 17.0767 23.9994 17.2353C23.9946 17.3938 23.9576 17.5498 23.8905 17.6942C23.8235 17.8387 23.7278 17.9688 23.609 18.0769C23.4902 18.1851 23.3505 18.2691 23.1982 18.3243C23.0459 18.3795 22.8839 18.4046 22.7215 18.3982C21.8334 18.3724 21.0448 18.2615 20.341 17.9933C19.6139 17.7161 19.0404 17.2943 18.5524 16.7393C18.245 16.3901 17.9746 15.9911 17.7226 15.5574L17.0379 18.6376Z" fill="#121212"/>
<path d="M12.471 19.7314L14.5086 21.6393L13.5706 24.7274C13.4981 24.9663 13.3511 25.1773 13.1502 25.331L9.99455 27.7447C9.86742 27.8419 9.72193 27.9137 9.56637 27.956C9.41082 27.9983 9.24825 28.0103 9.08795 27.9912C8.92766 27.9722 8.77277 27.9225 8.63213 27.8451C8.4915 27.7676 8.36787 27.6639 8.2683 27.5398C8.16874 27.4157 8.09519 27.2737 8.05185 27.1218C8.00852 26.97 7.99624 26.8113 8.01573 26.6548C8.03523 26.4984 8.0861 26.3472 8.16545 26.2099C8.2448 26.0726 8.35108 25.9519 8.4782 25.8548L11.3253 23.678L12.1827 20.8522L12.471 19.7314Z" fill="#121212"/>
</svg>
