<svg width="32" height="32" viewBox="0 0 32 32" fill="none" xmlns="http://www.w3.org/2000/svg">
<path d="M23.2 6H8.8C6.148 6 4 8.2375 4 11V21C4 23.7625 6.148 26 8.8 26H23.2C25.852 26 28 23.7625 28 21V11C28 8.2375 25.852 6 23.2 6ZM20.968 18.2125C20.68 18.4625 20.284 18.5625 19.912 18.4625L6.58 15.0625C6.94 14.15 7.792 13.5 8.8 13.5H23.2C24.004 13.5 24.712 13.925 25.156 14.55L20.968 18.2125ZM8.8 8.5H23.2C24.52 8.5 25.6 9.625 25.6 11V11.6875C24.892 11.2625 24.076 11 23.2 11H8.8C7.924 11 7.108 11.2625 6.4 11.6875V11C6.4 9.625 7.48 8.5 8.8 8.5Z" fill="#121212"/>
</svg>
