<svg width="32" height="32" viewBox="0 0 32 32" fill="none" xmlns="http://www.w3.org/2000/svg">
<path fill-rule="evenodd" clip-rule="evenodd" d="M28 16C28 9.3724 22.6276 4 16 4C9.3724 4 4 9.3724 4 16C4 22.6276 9.3724 28 16 28C22.6276 28 28 22.6276 28 16ZM16 10C16.3183 10 16.6235 10.1264 16.8485 10.3515C17.0736 10.5765 17.2 10.8817 17.2 11.2V17.2C17.2 17.5183 17.0736 17.8235 16.8485 18.0485C16.6235 18.2736 16.3183 18.4 16 18.4C15.6817 18.4 15.3765 18.2736 15.1515 18.0485C14.9264 17.8235 14.8 17.5183 14.8 17.2V11.2C14.8 10.8817 14.9264 10.5765 15.1515 10.3515C15.3765 10.1264 15.6817 10 16 10ZM14.8 20.8C14.8 20.4817 14.9264 20.1765 15.1515 19.9515C15.3765 19.7264 15.6817 19.6 16 19.6H16.0096C16.3279 19.6 16.6331 19.7264 16.8581 19.9515C17.0832 20.1765 17.2096 20.4817 17.2096 20.8C17.2096 21.1183 17.0832 21.4235 16.8581 21.6485C16.6331 21.8736 16.3279 22 16.0096 22H16C15.6817 22 15.3765 21.8736 15.1515 21.6485C14.9264 21.4235 14.8 21.1183 14.8 20.8Z" fill="#121212"/>
</svg>
