<svg width="32" height="32" viewBox="0 0 32 32" fill="none" xmlns="http://www.w3.org/2000/svg">
<path d="M16 25C15.2616 25 14.6375 24.7441 14.1277 24.2324C13.6179 23.7206 13.3629 23.0941 13.3629 22.3529C13.3629 21.6118 13.6179 20.9853 14.1277 20.4735C14.6375 19.9618 15.2616 19.7059 16 19.7059C16.7384 19.7059 17.3625 19.9618 17.8723 20.4735C18.3821 20.9853 18.6371 21.6118 18.6371 22.3529C18.6371 23.0941 18.3821 23.7206 17.8723 24.2324C17.3625 24.7441 16.7384 25 16 25ZM16 13.3529C17.3185 13.3529 18.5713 13.5647 19.7583 13.9882C20.9454 14.4118 22.022 14.9941 22.9882 15.7353C23.3398 16 23.5202 16.3487 23.5293 16.7814C23.5385 17.2141 23.3845 17.5889 23.0673 17.9059C22.7684 18.2059 22.3993 18.3605 21.9597 18.3696C21.5202 18.3788 21.1247 18.2595 20.7731 18.0118C20.105 17.5529 19.3666 17.1912 18.5579 16.9265C17.7492 16.6618 16.8966 16.5294 16 16.5294C15.1034 16.5294 14.2508 16.6618 13.4421 16.9265C12.6334 17.1912 11.895 17.5529 11.2269 18.0118C10.8753 18.2588 10.4798 18.3735 10.0402 18.3559C9.60074 18.3382 9.23155 18.1794 8.93269 17.8794C8.63382 17.5618 8.48439 17.1869 8.48439 16.7549C8.48439 16.3229 8.66019 15.9742 9.0118 15.7088C9.97872 14.9676 11.0557 14.3895 12.2427 13.9745C13.4297 13.5594 14.6822 13.3522 16 13.3529ZM16 7C18.1975 7 20.2678 7.36176 22.2108 8.08529C24.1538 8.80882 25.8985 9.83235 27.4448 11.1559C27.7964 11.4559 27.981 11.8265 27.9986 12.2676C28.0162 12.7088 27.8668 13.0882 27.5503 13.4059C27.2514 13.7059 26.8823 13.8605 26.4427 13.8696C26.0032 13.8788 25.6077 13.7419 25.2561 13.4588C23.9903 12.4176 22.5708 11.6105 20.9978 11.0373C19.4247 10.4641 17.7587 10.1772 16 10.1765C14.2413 10.1758 12.5757 10.4627 11.0033 11.0373C9.43091 11.6119 8.01112 12.4191 6.74393 13.4588C6.39232 13.7412 5.99676 13.8781 5.55725 13.8696C5.11774 13.8612 4.74855 13.7066 4.44969 13.4059C4.13324 13.0882 3.98381 12.7088 4.00139 12.2676C4.01897 11.8265 4.20356 11.4559 4.55517 11.1559C6.10224 9.83235 7.84727 8.80882 9.79026 8.08529C11.7332 7.36176 13.8032 7 16 7Z" fill="#121212"/>
</svg>
